G04 #@! TF.FileFunction,Soldermask,Bot*
%FSLAX46Y46*%
G04 Gerber Fmt 4.6, Leading zero omitted, Abs format (unit mm)*
G04 Created by KiCad (PCBNEW 4.0.2-stable) date 12/4/2017 4:33:56 PM*
%MOMM*%
G01*
G04 APERTURE LIST*
%ADD10C,0.100000*%
%ADD11R,1.700000X1.700000*%
%ADD12O,1.700000X1.700000*%
G04 APERTURE END LIST*
D10*
D11*
X165468400Y-116955600D03*
D12*
X168008400Y-116955600D03*
D11*
X165417600Y-138037600D03*
D12*
X167957600Y-138037600D03*
D11*
X145417600Y-138037600D03*
D12*
X147957600Y-138037600D03*
D11*
X154444800Y-138088400D03*
D12*
X151904800Y-138088400D03*
D11*
X145468400Y-116955600D03*
D12*
X148008400Y-116955600D03*
D11*
X105468400Y-116955600D03*
D12*
X108008400Y-116955600D03*
D11*
X85417600Y-138037600D03*
D12*
X87957600Y-138037600D03*
D11*
X94444800Y-138088400D03*
D12*
X91904800Y-138088400D03*
D11*
X105417600Y-138037600D03*
D12*
X107957600Y-138037600D03*
D11*
X85468400Y-116955600D03*
D12*
X88008400Y-116955600D03*
D11*
X74444800Y-138088400D03*
D12*
X71904800Y-138088400D03*
D11*
X125468400Y-116955600D03*
D12*
X128008400Y-116955600D03*
D11*
X125417600Y-138037600D03*
D12*
X127957600Y-138037600D03*
D11*
X114444800Y-138088400D03*
D12*
X111904800Y-138088400D03*
D11*
X134444800Y-138088400D03*
D12*
X131904800Y-138088400D03*
D11*
X165468400Y-91955600D03*
D12*
X168008400Y-91955600D03*
D11*
X165417600Y-113037600D03*
D12*
X167957600Y-113037600D03*
D11*
X145417600Y-113037600D03*
D12*
X147957600Y-113037600D03*
D11*
X154444800Y-113088400D03*
D12*
X151904800Y-113088400D03*
D11*
X145468400Y-91955600D03*
D12*
X148008400Y-91955600D03*
D11*
X105468400Y-91955600D03*
D12*
X108008400Y-91955600D03*
D11*
X85417600Y-113037600D03*
D12*
X87957600Y-113037600D03*
D11*
X94444800Y-113088400D03*
D12*
X91904800Y-113088400D03*
D11*
X105417600Y-113037600D03*
D12*
X107957600Y-113037600D03*
D11*
X85468400Y-91955600D03*
D12*
X88008400Y-91955600D03*
D11*
X74444800Y-113088400D03*
D12*
X71904800Y-113088400D03*
D11*
X125468400Y-91955600D03*
D12*
X128008400Y-91955600D03*
D11*
X125417600Y-113037600D03*
D12*
X127957600Y-113037600D03*
D11*
X114444800Y-113088400D03*
D12*
X111904800Y-113088400D03*
D11*
X134444800Y-113088400D03*
D12*
X131904800Y-113088400D03*
D11*
X165468400Y-66955600D03*
D12*
X168008400Y-66955600D03*
D11*
X165417600Y-88037600D03*
D12*
X167957600Y-88037600D03*
D11*
X145417600Y-88037600D03*
D12*
X147957600Y-88037600D03*
D11*
X154444800Y-88088400D03*
D12*
X151904800Y-88088400D03*
D11*
X145468400Y-66955600D03*
D12*
X148008400Y-66955600D03*
D11*
X105468400Y-66955600D03*
D12*
X108008400Y-66955600D03*
D11*
X85417600Y-88037600D03*
D12*
X87957600Y-88037600D03*
D11*
X94444800Y-88088400D03*
D12*
X91904800Y-88088400D03*
D11*
X105417600Y-88037600D03*
D12*
X107957600Y-88037600D03*
D11*
X85468400Y-66955600D03*
D12*
X88008400Y-66955600D03*
D11*
X74444800Y-88088400D03*
D12*
X71904800Y-88088400D03*
D11*
X125468400Y-66955600D03*
D12*
X128008400Y-66955600D03*
D11*
X125417600Y-88037600D03*
D12*
X127957600Y-88037600D03*
D11*
X114444800Y-88088400D03*
D12*
X111904800Y-88088400D03*
D11*
X134444800Y-88088400D03*
D12*
X131904800Y-88088400D03*
D11*
X165417600Y-63037600D03*
D12*
X167957600Y-63037600D03*
D11*
X154444800Y-63088400D03*
D12*
X151904800Y-63088400D03*
D11*
X165468400Y-41955600D03*
D12*
X168008400Y-41955600D03*
D11*
X145417600Y-63037600D03*
D12*
X147957600Y-63037600D03*
D11*
X134444800Y-63088400D03*
D12*
X131904800Y-63088400D03*
D11*
X145468400Y-41955600D03*
D12*
X148008400Y-41955600D03*
D11*
X125417600Y-63037600D03*
D12*
X127957600Y-63037600D03*
D11*
X114444800Y-63088400D03*
D12*
X111904800Y-63088400D03*
D11*
X125468400Y-41955600D03*
D12*
X128008400Y-41955600D03*
D11*
X105417600Y-63037600D03*
D12*
X107957600Y-63037600D03*
D11*
X94444800Y-63088400D03*
D12*
X91904800Y-63088400D03*
D11*
X105468400Y-41955600D03*
D12*
X108008400Y-41955600D03*
D11*
X85417600Y-63037600D03*
D12*
X87957600Y-63037600D03*
D11*
X74444800Y-63088400D03*
D12*
X71904800Y-63088400D03*
D11*
X85468400Y-41955600D03*
D12*
X88008400Y-41955600D03*
M02*
