G04 #@! TF.FileFunction,Soldermask,Bot*
%FSLAX46Y46*%
G04 Gerber Fmt 4.6, Leading zero omitted, Abs format (unit mm)*
G04 Created by KiCad (PCBNEW 4.0.2-stable) date 11/13/2017 5:19:07 PM*
%MOMM*%
G01*
G04 APERTURE LIST*
%ADD10C,0.100000*%
%ADD11C,0.150000*%
%ADD12R,1.700000X1.700000*%
%ADD13O,1.700000X1.700000*%
G04 APERTURE END LIST*
D10*
D11*
X110000000Y-140000000D02*
X110000000Y-115000000D01*
X90000000Y-140000000D02*
X110000000Y-140000000D01*
X110000000Y-115000000D02*
X90000000Y-115000000D01*
X90000000Y-140000000D02*
X90000000Y-115000000D01*
X110000000Y-115000000D02*
X110000000Y-140000000D01*
X130000000Y-140000000D02*
X130000000Y-115000000D01*
X110000000Y-140000000D02*
X130000000Y-140000000D01*
X130000000Y-115000000D02*
X130000000Y-140000000D01*
X130000000Y-140000000D02*
X150000000Y-140000000D01*
X130000000Y-115000000D02*
X110000000Y-115000000D01*
X150000000Y-115000000D02*
X130000000Y-115000000D01*
X150000000Y-115000000D02*
X150000000Y-140000000D01*
X170000000Y-115000000D02*
X150000000Y-115000000D01*
X150000000Y-140000000D02*
X150000000Y-115000000D01*
X150000000Y-140000000D02*
X170000000Y-140000000D01*
X170000000Y-140000000D02*
X170000000Y-115000000D01*
X70000000Y-115000000D02*
X70000000Y-140000000D01*
X90000000Y-115000000D02*
X90000000Y-140000000D01*
X70000000Y-140000000D02*
X90000000Y-140000000D01*
X90000000Y-115000000D02*
X70000000Y-115000000D01*
X110000000Y-115000000D02*
X110000000Y-90000000D01*
X90000000Y-115000000D02*
X110000000Y-115000000D01*
X110000000Y-90000000D02*
X90000000Y-90000000D01*
X90000000Y-115000000D02*
X90000000Y-90000000D01*
X110000000Y-90000000D02*
X110000000Y-115000000D01*
X130000000Y-115000000D02*
X130000000Y-90000000D01*
X110000000Y-115000000D02*
X130000000Y-115000000D01*
X130000000Y-90000000D02*
X130000000Y-115000000D01*
X130000000Y-115000000D02*
X150000000Y-115000000D01*
X130000000Y-90000000D02*
X110000000Y-90000000D01*
X150000000Y-90000000D02*
X130000000Y-90000000D01*
X150000000Y-90000000D02*
X150000000Y-115000000D01*
X170000000Y-90000000D02*
X150000000Y-90000000D01*
X150000000Y-115000000D02*
X150000000Y-90000000D01*
X150000000Y-115000000D02*
X170000000Y-115000000D01*
X170000000Y-115000000D02*
X170000000Y-90000000D01*
X70000000Y-90000000D02*
X70000000Y-115000000D01*
X90000000Y-90000000D02*
X90000000Y-115000000D01*
X70000000Y-115000000D02*
X90000000Y-115000000D01*
X90000000Y-90000000D02*
X70000000Y-90000000D01*
X110000000Y-90000000D02*
X110000000Y-65000000D01*
X90000000Y-90000000D02*
X110000000Y-90000000D01*
X110000000Y-65000000D02*
X90000000Y-65000000D01*
X90000000Y-90000000D02*
X90000000Y-65000000D01*
X110000000Y-65000000D02*
X110000000Y-90000000D01*
X130000000Y-90000000D02*
X130000000Y-65000000D01*
X110000000Y-90000000D02*
X130000000Y-90000000D01*
X130000000Y-65000000D02*
X130000000Y-90000000D01*
X130000000Y-90000000D02*
X150000000Y-90000000D01*
X130000000Y-65000000D02*
X110000000Y-65000000D01*
X150000000Y-65000000D02*
X130000000Y-65000000D01*
X150000000Y-65000000D02*
X150000000Y-90000000D01*
X170000000Y-65000000D02*
X150000000Y-65000000D01*
X150000000Y-90000000D02*
X150000000Y-65000000D01*
X150000000Y-90000000D02*
X170000000Y-90000000D01*
X170000000Y-90000000D02*
X170000000Y-65000000D01*
X70000000Y-65000000D02*
X70000000Y-90000000D01*
X90000000Y-65000000D02*
X90000000Y-90000000D01*
X70000000Y-90000000D02*
X90000000Y-90000000D01*
X90000000Y-65000000D02*
X70000000Y-65000000D01*
X150000000Y-40000000D02*
X150000000Y-65000000D01*
X170000000Y-65000000D02*
X170000000Y-40000000D01*
X170000000Y-40000000D02*
X150000000Y-40000000D01*
X150000000Y-65000000D02*
X170000000Y-65000000D01*
X130000000Y-40000000D02*
X130000000Y-65000000D01*
X150000000Y-65000000D02*
X150000000Y-40000000D01*
X150000000Y-40000000D02*
X130000000Y-40000000D01*
X130000000Y-65000000D02*
X150000000Y-65000000D01*
X110000000Y-40000000D02*
X110000000Y-65000000D01*
X130000000Y-65000000D02*
X130000000Y-40000000D01*
X130000000Y-40000000D02*
X110000000Y-40000000D01*
X110000000Y-65000000D02*
X130000000Y-65000000D01*
X90000000Y-40000000D02*
X90000000Y-65000000D01*
X110000000Y-65000000D02*
X110000000Y-40000000D01*
X110000000Y-40000000D02*
X90000000Y-40000000D01*
X90000000Y-65000000D02*
X110000000Y-65000000D01*
X90000000Y-40000000D02*
X70000000Y-40000000D01*
X90000000Y-65000000D02*
X90000000Y-40000000D01*
X70000000Y-65000000D02*
X90000000Y-65000000D01*
X70000000Y-40000000D02*
X70000000Y-65000000D01*
D12*
X165468400Y-116955600D03*
D13*
X168008400Y-116955600D03*
D12*
X165417600Y-138037600D03*
D13*
X167957600Y-138037600D03*
D12*
X145417600Y-138037600D03*
D13*
X147957600Y-138037600D03*
D12*
X154444800Y-138088400D03*
D13*
X151904800Y-138088400D03*
D12*
X145468400Y-116955600D03*
D13*
X148008400Y-116955600D03*
D12*
X105468400Y-116955600D03*
D13*
X108008400Y-116955600D03*
D12*
X85417600Y-138037600D03*
D13*
X87957600Y-138037600D03*
D12*
X94444800Y-138088400D03*
D13*
X91904800Y-138088400D03*
D12*
X105417600Y-138037600D03*
D13*
X107957600Y-138037600D03*
D12*
X85468400Y-116955600D03*
D13*
X88008400Y-116955600D03*
D12*
X74444800Y-138088400D03*
D13*
X71904800Y-138088400D03*
D12*
X125468400Y-116955600D03*
D13*
X128008400Y-116955600D03*
D12*
X125417600Y-138037600D03*
D13*
X127957600Y-138037600D03*
D12*
X114444800Y-138088400D03*
D13*
X111904800Y-138088400D03*
D12*
X134444800Y-138088400D03*
D13*
X131904800Y-138088400D03*
D12*
X165468400Y-91955600D03*
D13*
X168008400Y-91955600D03*
D12*
X165417600Y-113037600D03*
D13*
X167957600Y-113037600D03*
D12*
X145417600Y-113037600D03*
D13*
X147957600Y-113037600D03*
D12*
X154444800Y-113088400D03*
D13*
X151904800Y-113088400D03*
D12*
X145468400Y-91955600D03*
D13*
X148008400Y-91955600D03*
D12*
X105468400Y-91955600D03*
D13*
X108008400Y-91955600D03*
D12*
X85417600Y-113037600D03*
D13*
X87957600Y-113037600D03*
D12*
X94444800Y-113088400D03*
D13*
X91904800Y-113088400D03*
D12*
X105417600Y-113037600D03*
D13*
X107957600Y-113037600D03*
D12*
X85468400Y-91955600D03*
D13*
X88008400Y-91955600D03*
D12*
X74444800Y-113088400D03*
D13*
X71904800Y-113088400D03*
D12*
X125468400Y-91955600D03*
D13*
X128008400Y-91955600D03*
D12*
X125417600Y-113037600D03*
D13*
X127957600Y-113037600D03*
D12*
X114444800Y-113088400D03*
D13*
X111904800Y-113088400D03*
D12*
X134444800Y-113088400D03*
D13*
X131904800Y-113088400D03*
D12*
X165468400Y-66955600D03*
D13*
X168008400Y-66955600D03*
D12*
X165417600Y-88037600D03*
D13*
X167957600Y-88037600D03*
D12*
X145417600Y-88037600D03*
D13*
X147957600Y-88037600D03*
D12*
X154444800Y-88088400D03*
D13*
X151904800Y-88088400D03*
D12*
X145468400Y-66955600D03*
D13*
X148008400Y-66955600D03*
D12*
X105468400Y-66955600D03*
D13*
X108008400Y-66955600D03*
D12*
X85417600Y-88037600D03*
D13*
X87957600Y-88037600D03*
D12*
X94444800Y-88088400D03*
D13*
X91904800Y-88088400D03*
D12*
X105417600Y-88037600D03*
D13*
X107957600Y-88037600D03*
D12*
X85468400Y-66955600D03*
D13*
X88008400Y-66955600D03*
D12*
X74444800Y-88088400D03*
D13*
X71904800Y-88088400D03*
D12*
X125468400Y-66955600D03*
D13*
X128008400Y-66955600D03*
D12*
X125417600Y-88037600D03*
D13*
X127957600Y-88037600D03*
D12*
X114444800Y-88088400D03*
D13*
X111904800Y-88088400D03*
D12*
X134444800Y-88088400D03*
D13*
X131904800Y-88088400D03*
D12*
X165417600Y-63037600D03*
D13*
X167957600Y-63037600D03*
D12*
X154444800Y-63088400D03*
D13*
X151904800Y-63088400D03*
D12*
X165468400Y-41955600D03*
D13*
X168008400Y-41955600D03*
D12*
X145417600Y-63037600D03*
D13*
X147957600Y-63037600D03*
D12*
X134444800Y-63088400D03*
D13*
X131904800Y-63088400D03*
D12*
X145468400Y-41955600D03*
D13*
X148008400Y-41955600D03*
D12*
X125417600Y-63037600D03*
D13*
X127957600Y-63037600D03*
D12*
X114444800Y-63088400D03*
D13*
X111904800Y-63088400D03*
D12*
X125468400Y-41955600D03*
D13*
X128008400Y-41955600D03*
D12*
X105417600Y-63037600D03*
D13*
X107957600Y-63037600D03*
D12*
X94444800Y-63088400D03*
D13*
X91904800Y-63088400D03*
D12*
X105468400Y-41955600D03*
D13*
X108008400Y-41955600D03*
D12*
X85417600Y-63037600D03*
D13*
X87957600Y-63037600D03*
D12*
X74444800Y-63088400D03*
D13*
X71904800Y-63088400D03*
D12*
X85468400Y-41955600D03*
D13*
X88008400Y-41955600D03*
M02*
