G04 #@! TF.FileFunction,Paste,Top*
%FSLAX46Y46*%
G04 Gerber Fmt 4.6, Leading zero omitted, Abs format (unit mm)*
G04 Created by KiCad (PCBNEW 4.0.2-stable) date 12/4/2017 4:33:49 PM*
%MOMM*%
G01*
G04 APERTURE LIST*
%ADD10C,0.100000*%
%ADD11R,1.300000X0.700000*%
%ADD12R,1.550000X0.600000*%
%ADD13R,0.700000X1.300000*%
%ADD14R,3.000000X7.500000*%
%ADD15R,1.600000X3.500000*%
%ADD16R,1.800000X2.500000*%
%ADD17R,1.000000X1.600000*%
%ADD18R,0.900000X1.700000*%
%ADD19R,3.500000X1.600000*%
%ADD20R,1.600000X1.000000*%
%ADD21R,0.800000X0.900000*%
%ADD22R,0.900000X0.800000*%
%ADD23R,1.250000X1.000000*%
G04 APERTURE END LIST*
D10*
D11*
X159220000Y-129061200D03*
X159220000Y-130961200D03*
D12*
X151643200Y-126988600D03*
X151643200Y-128258600D03*
X151643200Y-129528600D03*
X151643200Y-130798600D03*
X157043200Y-130798600D03*
X157043200Y-129528600D03*
X157043200Y-128258600D03*
X157043200Y-126988600D03*
D13*
X154830800Y-125083600D03*
X156730800Y-125083600D03*
D14*
X157500000Y-120000000D03*
X152500000Y-120000000D03*
D15*
X166382800Y-120816400D03*
X166382800Y-126216400D03*
D16*
X161150400Y-122054400D03*
X161150400Y-118054400D03*
D17*
X159040800Y-124982000D03*
X162040800Y-124982000D03*
D18*
X162041600Y-127318800D03*
X159141600Y-127318800D03*
D19*
X162362000Y-132094000D03*
X167762000Y-132094000D03*
D20*
X159220000Y-135372000D03*
X159220000Y-132372000D03*
D11*
X157137200Y-133226800D03*
X157137200Y-135126800D03*
X157543600Y-137036800D03*
X157543600Y-138936800D03*
D21*
X159794000Y-138885200D03*
X161694000Y-138885200D03*
X160744000Y-136885200D03*
D19*
X142362000Y-132094000D03*
X147762000Y-132094000D03*
D11*
X153378000Y-133226800D03*
X153378000Y-135126800D03*
D22*
X155257600Y-133126800D03*
X155257600Y-135226800D03*
D23*
X151396800Y-133126000D03*
X151396800Y-135126000D03*
D21*
X139794000Y-138885200D03*
X141694000Y-138885200D03*
X140744000Y-136885200D03*
D18*
X142041600Y-127318800D03*
X139141600Y-127318800D03*
D16*
X141150400Y-122054400D03*
X141150400Y-118054400D03*
D15*
X146382800Y-120816400D03*
X146382800Y-126216400D03*
D17*
X139040800Y-124982000D03*
X142040800Y-124982000D03*
D15*
X106382800Y-120816400D03*
X106382800Y-126216400D03*
D17*
X99040800Y-124982000D03*
X102040800Y-124982000D03*
D16*
X101150400Y-122054400D03*
X101150400Y-118054400D03*
X81150400Y-122054400D03*
X81150400Y-118054400D03*
D14*
X77500000Y-120000000D03*
X72500000Y-120000000D03*
D13*
X74830800Y-125083600D03*
X76730800Y-125083600D03*
D18*
X82041600Y-127318800D03*
X79141600Y-127318800D03*
D17*
X79040800Y-124982000D03*
X82040800Y-124982000D03*
D11*
X79220000Y-129061200D03*
X79220000Y-130961200D03*
D12*
X71643200Y-126988600D03*
X71643200Y-128258600D03*
X71643200Y-129528600D03*
X71643200Y-130798600D03*
X77043200Y-130798600D03*
X77043200Y-129528600D03*
X77043200Y-128258600D03*
X77043200Y-126988600D03*
D20*
X79220000Y-135372000D03*
X79220000Y-132372000D03*
D11*
X93378000Y-133226800D03*
X93378000Y-135126800D03*
D22*
X95257600Y-133126800D03*
X95257600Y-135226800D03*
D23*
X91396800Y-133126000D03*
X91396800Y-135126000D03*
D19*
X82362000Y-132094000D03*
X87762000Y-132094000D03*
D21*
X79794000Y-138885200D03*
X81694000Y-138885200D03*
X80744000Y-136885200D03*
D11*
X97137200Y-133226800D03*
X97137200Y-135126800D03*
X99220000Y-129061200D03*
X99220000Y-130961200D03*
X97543600Y-137036800D03*
X97543600Y-138936800D03*
D20*
X99220000Y-135372000D03*
X99220000Y-132372000D03*
D21*
X99794000Y-138885200D03*
X101694000Y-138885200D03*
X100744000Y-136885200D03*
D19*
X102362000Y-132094000D03*
X107762000Y-132094000D03*
D18*
X102041600Y-127318800D03*
X99141600Y-127318800D03*
D13*
X94830800Y-125083600D03*
X96730800Y-125083600D03*
D14*
X97500000Y-120000000D03*
X92500000Y-120000000D03*
D12*
X91643200Y-126988600D03*
X91643200Y-128258600D03*
X91643200Y-129528600D03*
X91643200Y-130798600D03*
X97043200Y-130798600D03*
X97043200Y-129528600D03*
X97043200Y-128258600D03*
X97043200Y-126988600D03*
D15*
X86382800Y-120816400D03*
X86382800Y-126216400D03*
D11*
X77137200Y-133226800D03*
X77137200Y-135126800D03*
X77543600Y-137036800D03*
X77543600Y-138936800D03*
D22*
X75257600Y-133126800D03*
X75257600Y-135226800D03*
D11*
X73378000Y-133226800D03*
X73378000Y-135126800D03*
D23*
X71396800Y-133126000D03*
X71396800Y-135126000D03*
D11*
X133378000Y-133226800D03*
X133378000Y-135126800D03*
D20*
X139220000Y-135372000D03*
X139220000Y-132372000D03*
D11*
X139220000Y-129061200D03*
X139220000Y-130961200D03*
D12*
X131643200Y-126988600D03*
X131643200Y-128258600D03*
X131643200Y-129528600D03*
X131643200Y-130798600D03*
X137043200Y-130798600D03*
X137043200Y-129528600D03*
X137043200Y-128258600D03*
X137043200Y-126988600D03*
D13*
X134830800Y-125083600D03*
X136730800Y-125083600D03*
D14*
X137500000Y-120000000D03*
X132500000Y-120000000D03*
D18*
X122041600Y-127318800D03*
X119141600Y-127318800D03*
D17*
X119040800Y-124982000D03*
X122040800Y-124982000D03*
D15*
X126382800Y-120816400D03*
X126382800Y-126216400D03*
D16*
X121150400Y-122054400D03*
X121150400Y-118054400D03*
D11*
X119220000Y-129061200D03*
X119220000Y-130961200D03*
D12*
X111643200Y-126988600D03*
X111643200Y-128258600D03*
X111643200Y-129528600D03*
X111643200Y-130798600D03*
X117043200Y-130798600D03*
X117043200Y-129528600D03*
X117043200Y-128258600D03*
X117043200Y-126988600D03*
D13*
X114830800Y-125083600D03*
X116730800Y-125083600D03*
D14*
X117500000Y-120000000D03*
X112500000Y-120000000D03*
D21*
X119794000Y-138885200D03*
X121694000Y-138885200D03*
X120744000Y-136885200D03*
D19*
X122362000Y-132094000D03*
X127762000Y-132094000D03*
D20*
X119220000Y-135372000D03*
X119220000Y-132372000D03*
D23*
X111396800Y-133126000D03*
X111396800Y-135126000D03*
D11*
X113378000Y-133226800D03*
X113378000Y-135126800D03*
D22*
X115257600Y-133126800D03*
X115257600Y-135226800D03*
D11*
X117543600Y-137036800D03*
X117543600Y-138936800D03*
X117137200Y-133226800D03*
X117137200Y-135126800D03*
D22*
X135257600Y-133126800D03*
X135257600Y-135226800D03*
D11*
X137137200Y-133226800D03*
X137137200Y-135126800D03*
X137543600Y-137036800D03*
X137543600Y-138936800D03*
D23*
X131396800Y-133126000D03*
X131396800Y-135126000D03*
D11*
X159220000Y-104061200D03*
X159220000Y-105961200D03*
D12*
X151643200Y-101988600D03*
X151643200Y-103258600D03*
X151643200Y-104528600D03*
X151643200Y-105798600D03*
X157043200Y-105798600D03*
X157043200Y-104528600D03*
X157043200Y-103258600D03*
X157043200Y-101988600D03*
D13*
X154830800Y-100083600D03*
X156730800Y-100083600D03*
D14*
X157500000Y-95000000D03*
X152500000Y-95000000D03*
D15*
X166382800Y-95816400D03*
X166382800Y-101216400D03*
D16*
X161150400Y-97054400D03*
X161150400Y-93054400D03*
D17*
X159040800Y-99982000D03*
X162040800Y-99982000D03*
D18*
X162041600Y-102318800D03*
X159141600Y-102318800D03*
D19*
X162362000Y-107094000D03*
X167762000Y-107094000D03*
D20*
X159220000Y-110372000D03*
X159220000Y-107372000D03*
D11*
X157137200Y-108226800D03*
X157137200Y-110126800D03*
X157543600Y-112036800D03*
X157543600Y-113936800D03*
D21*
X159794000Y-113885200D03*
X161694000Y-113885200D03*
X160744000Y-111885200D03*
D19*
X142362000Y-107094000D03*
X147762000Y-107094000D03*
D11*
X153378000Y-108226800D03*
X153378000Y-110126800D03*
D22*
X155257600Y-108126800D03*
X155257600Y-110226800D03*
D23*
X151396800Y-108126000D03*
X151396800Y-110126000D03*
D21*
X139794000Y-113885200D03*
X141694000Y-113885200D03*
X140744000Y-111885200D03*
D18*
X142041600Y-102318800D03*
X139141600Y-102318800D03*
D16*
X141150400Y-97054400D03*
X141150400Y-93054400D03*
D15*
X146382800Y-95816400D03*
X146382800Y-101216400D03*
D17*
X139040800Y-99982000D03*
X142040800Y-99982000D03*
D15*
X106382800Y-95816400D03*
X106382800Y-101216400D03*
D17*
X99040800Y-99982000D03*
X102040800Y-99982000D03*
D16*
X101150400Y-97054400D03*
X101150400Y-93054400D03*
X81150400Y-97054400D03*
X81150400Y-93054400D03*
D14*
X77500000Y-95000000D03*
X72500000Y-95000000D03*
D13*
X74830800Y-100083600D03*
X76730800Y-100083600D03*
D18*
X82041600Y-102318800D03*
X79141600Y-102318800D03*
D17*
X79040800Y-99982000D03*
X82040800Y-99982000D03*
D11*
X79220000Y-104061200D03*
X79220000Y-105961200D03*
D12*
X71643200Y-101988600D03*
X71643200Y-103258600D03*
X71643200Y-104528600D03*
X71643200Y-105798600D03*
X77043200Y-105798600D03*
X77043200Y-104528600D03*
X77043200Y-103258600D03*
X77043200Y-101988600D03*
D20*
X79220000Y-110372000D03*
X79220000Y-107372000D03*
D11*
X93378000Y-108226800D03*
X93378000Y-110126800D03*
D22*
X95257600Y-108126800D03*
X95257600Y-110226800D03*
D23*
X91396800Y-108126000D03*
X91396800Y-110126000D03*
D19*
X82362000Y-107094000D03*
X87762000Y-107094000D03*
D21*
X79794000Y-113885200D03*
X81694000Y-113885200D03*
X80744000Y-111885200D03*
D11*
X97137200Y-108226800D03*
X97137200Y-110126800D03*
X99220000Y-104061200D03*
X99220000Y-105961200D03*
X97543600Y-112036800D03*
X97543600Y-113936800D03*
D20*
X99220000Y-110372000D03*
X99220000Y-107372000D03*
D21*
X99794000Y-113885200D03*
X101694000Y-113885200D03*
X100744000Y-111885200D03*
D19*
X102362000Y-107094000D03*
X107762000Y-107094000D03*
D18*
X102041600Y-102318800D03*
X99141600Y-102318800D03*
D13*
X94830800Y-100083600D03*
X96730800Y-100083600D03*
D14*
X97500000Y-95000000D03*
X92500000Y-95000000D03*
D12*
X91643200Y-101988600D03*
X91643200Y-103258600D03*
X91643200Y-104528600D03*
X91643200Y-105798600D03*
X97043200Y-105798600D03*
X97043200Y-104528600D03*
X97043200Y-103258600D03*
X97043200Y-101988600D03*
D15*
X86382800Y-95816400D03*
X86382800Y-101216400D03*
D11*
X77137200Y-108226800D03*
X77137200Y-110126800D03*
X77543600Y-112036800D03*
X77543600Y-113936800D03*
D22*
X75257600Y-108126800D03*
X75257600Y-110226800D03*
D11*
X73378000Y-108226800D03*
X73378000Y-110126800D03*
D23*
X71396800Y-108126000D03*
X71396800Y-110126000D03*
D11*
X133378000Y-108226800D03*
X133378000Y-110126800D03*
D20*
X139220000Y-110372000D03*
X139220000Y-107372000D03*
D11*
X139220000Y-104061200D03*
X139220000Y-105961200D03*
D12*
X131643200Y-101988600D03*
X131643200Y-103258600D03*
X131643200Y-104528600D03*
X131643200Y-105798600D03*
X137043200Y-105798600D03*
X137043200Y-104528600D03*
X137043200Y-103258600D03*
X137043200Y-101988600D03*
D13*
X134830800Y-100083600D03*
X136730800Y-100083600D03*
D14*
X137500000Y-95000000D03*
X132500000Y-95000000D03*
D18*
X122041600Y-102318800D03*
X119141600Y-102318800D03*
D17*
X119040800Y-99982000D03*
X122040800Y-99982000D03*
D15*
X126382800Y-95816400D03*
X126382800Y-101216400D03*
D16*
X121150400Y-97054400D03*
X121150400Y-93054400D03*
D11*
X119220000Y-104061200D03*
X119220000Y-105961200D03*
D12*
X111643200Y-101988600D03*
X111643200Y-103258600D03*
X111643200Y-104528600D03*
X111643200Y-105798600D03*
X117043200Y-105798600D03*
X117043200Y-104528600D03*
X117043200Y-103258600D03*
X117043200Y-101988600D03*
D13*
X114830800Y-100083600D03*
X116730800Y-100083600D03*
D14*
X117500000Y-95000000D03*
X112500000Y-95000000D03*
D21*
X119794000Y-113885200D03*
X121694000Y-113885200D03*
X120744000Y-111885200D03*
D19*
X122362000Y-107094000D03*
X127762000Y-107094000D03*
D20*
X119220000Y-110372000D03*
X119220000Y-107372000D03*
D23*
X111396800Y-108126000D03*
X111396800Y-110126000D03*
D11*
X113378000Y-108226800D03*
X113378000Y-110126800D03*
D22*
X115257600Y-108126800D03*
X115257600Y-110226800D03*
D11*
X117543600Y-112036800D03*
X117543600Y-113936800D03*
X117137200Y-108226800D03*
X117137200Y-110126800D03*
D22*
X135257600Y-108126800D03*
X135257600Y-110226800D03*
D11*
X137137200Y-108226800D03*
X137137200Y-110126800D03*
X137543600Y-112036800D03*
X137543600Y-113936800D03*
D23*
X131396800Y-108126000D03*
X131396800Y-110126000D03*
D11*
X159220000Y-79061200D03*
X159220000Y-80961200D03*
D12*
X151643200Y-76988600D03*
X151643200Y-78258600D03*
X151643200Y-79528600D03*
X151643200Y-80798600D03*
X157043200Y-80798600D03*
X157043200Y-79528600D03*
X157043200Y-78258600D03*
X157043200Y-76988600D03*
D13*
X154830800Y-75083600D03*
X156730800Y-75083600D03*
D14*
X157500000Y-70000000D03*
X152500000Y-70000000D03*
D15*
X166382800Y-70816400D03*
X166382800Y-76216400D03*
D16*
X161150400Y-72054400D03*
X161150400Y-68054400D03*
D17*
X159040800Y-74982000D03*
X162040800Y-74982000D03*
D18*
X162041600Y-77318800D03*
X159141600Y-77318800D03*
D19*
X162362000Y-82094000D03*
X167762000Y-82094000D03*
D20*
X159220000Y-85372000D03*
X159220000Y-82372000D03*
D11*
X157137200Y-83226800D03*
X157137200Y-85126800D03*
X157543600Y-87036800D03*
X157543600Y-88936800D03*
D21*
X159794000Y-88885200D03*
X161694000Y-88885200D03*
X160744000Y-86885200D03*
D19*
X142362000Y-82094000D03*
X147762000Y-82094000D03*
D11*
X153378000Y-83226800D03*
X153378000Y-85126800D03*
D22*
X155257600Y-83126800D03*
X155257600Y-85226800D03*
D23*
X151396800Y-83126000D03*
X151396800Y-85126000D03*
D21*
X139794000Y-88885200D03*
X141694000Y-88885200D03*
X140744000Y-86885200D03*
D18*
X142041600Y-77318800D03*
X139141600Y-77318800D03*
D16*
X141150400Y-72054400D03*
X141150400Y-68054400D03*
D15*
X146382800Y-70816400D03*
X146382800Y-76216400D03*
D17*
X139040800Y-74982000D03*
X142040800Y-74982000D03*
D15*
X106382800Y-70816400D03*
X106382800Y-76216400D03*
D17*
X99040800Y-74982000D03*
X102040800Y-74982000D03*
D16*
X101150400Y-72054400D03*
X101150400Y-68054400D03*
X81150400Y-72054400D03*
X81150400Y-68054400D03*
D14*
X77500000Y-70000000D03*
X72500000Y-70000000D03*
D13*
X74830800Y-75083600D03*
X76730800Y-75083600D03*
D18*
X82041600Y-77318800D03*
X79141600Y-77318800D03*
D17*
X79040800Y-74982000D03*
X82040800Y-74982000D03*
D11*
X79220000Y-79061200D03*
X79220000Y-80961200D03*
D12*
X71643200Y-76988600D03*
X71643200Y-78258600D03*
X71643200Y-79528600D03*
X71643200Y-80798600D03*
X77043200Y-80798600D03*
X77043200Y-79528600D03*
X77043200Y-78258600D03*
X77043200Y-76988600D03*
D20*
X79220000Y-85372000D03*
X79220000Y-82372000D03*
D11*
X93378000Y-83226800D03*
X93378000Y-85126800D03*
D22*
X95257600Y-83126800D03*
X95257600Y-85226800D03*
D23*
X91396800Y-83126000D03*
X91396800Y-85126000D03*
D19*
X82362000Y-82094000D03*
X87762000Y-82094000D03*
D21*
X79794000Y-88885200D03*
X81694000Y-88885200D03*
X80744000Y-86885200D03*
D11*
X97137200Y-83226800D03*
X97137200Y-85126800D03*
X99220000Y-79061200D03*
X99220000Y-80961200D03*
X97543600Y-87036800D03*
X97543600Y-88936800D03*
D20*
X99220000Y-85372000D03*
X99220000Y-82372000D03*
D21*
X99794000Y-88885200D03*
X101694000Y-88885200D03*
X100744000Y-86885200D03*
D19*
X102362000Y-82094000D03*
X107762000Y-82094000D03*
D18*
X102041600Y-77318800D03*
X99141600Y-77318800D03*
D13*
X94830800Y-75083600D03*
X96730800Y-75083600D03*
D14*
X97500000Y-70000000D03*
X92500000Y-70000000D03*
D12*
X91643200Y-76988600D03*
X91643200Y-78258600D03*
X91643200Y-79528600D03*
X91643200Y-80798600D03*
X97043200Y-80798600D03*
X97043200Y-79528600D03*
X97043200Y-78258600D03*
X97043200Y-76988600D03*
D15*
X86382800Y-70816400D03*
X86382800Y-76216400D03*
D11*
X77137200Y-83226800D03*
X77137200Y-85126800D03*
X77543600Y-87036800D03*
X77543600Y-88936800D03*
D22*
X75257600Y-83126800D03*
X75257600Y-85226800D03*
D11*
X73378000Y-83226800D03*
X73378000Y-85126800D03*
D23*
X71396800Y-83126000D03*
X71396800Y-85126000D03*
D11*
X133378000Y-83226800D03*
X133378000Y-85126800D03*
D20*
X139220000Y-85372000D03*
X139220000Y-82372000D03*
D11*
X139220000Y-79061200D03*
X139220000Y-80961200D03*
D12*
X131643200Y-76988600D03*
X131643200Y-78258600D03*
X131643200Y-79528600D03*
X131643200Y-80798600D03*
X137043200Y-80798600D03*
X137043200Y-79528600D03*
X137043200Y-78258600D03*
X137043200Y-76988600D03*
D13*
X134830800Y-75083600D03*
X136730800Y-75083600D03*
D14*
X137500000Y-70000000D03*
X132500000Y-70000000D03*
D18*
X122041600Y-77318800D03*
X119141600Y-77318800D03*
D17*
X119040800Y-74982000D03*
X122040800Y-74982000D03*
D15*
X126382800Y-70816400D03*
X126382800Y-76216400D03*
D16*
X121150400Y-72054400D03*
X121150400Y-68054400D03*
D11*
X119220000Y-79061200D03*
X119220000Y-80961200D03*
D12*
X111643200Y-76988600D03*
X111643200Y-78258600D03*
X111643200Y-79528600D03*
X111643200Y-80798600D03*
X117043200Y-80798600D03*
X117043200Y-79528600D03*
X117043200Y-78258600D03*
X117043200Y-76988600D03*
D13*
X114830800Y-75083600D03*
X116730800Y-75083600D03*
D14*
X117500000Y-70000000D03*
X112500000Y-70000000D03*
D21*
X119794000Y-88885200D03*
X121694000Y-88885200D03*
X120744000Y-86885200D03*
D19*
X122362000Y-82094000D03*
X127762000Y-82094000D03*
D20*
X119220000Y-85372000D03*
X119220000Y-82372000D03*
D23*
X111396800Y-83126000D03*
X111396800Y-85126000D03*
D11*
X113378000Y-83226800D03*
X113378000Y-85126800D03*
D22*
X115257600Y-83126800D03*
X115257600Y-85226800D03*
D11*
X117543600Y-87036800D03*
X117543600Y-88936800D03*
X117137200Y-83226800D03*
X117137200Y-85126800D03*
D22*
X135257600Y-83126800D03*
X135257600Y-85226800D03*
D11*
X137137200Y-83226800D03*
X137137200Y-85126800D03*
X137543600Y-87036800D03*
X137543600Y-88936800D03*
D23*
X131396800Y-83126000D03*
X131396800Y-85126000D03*
D19*
X162362000Y-57094000D03*
X167762000Y-57094000D03*
D18*
X162041600Y-52318800D03*
X159141600Y-52318800D03*
D17*
X159040800Y-49982000D03*
X162040800Y-49982000D03*
D11*
X157543600Y-62036800D03*
X157543600Y-63936800D03*
D21*
X159794000Y-63885200D03*
X161694000Y-63885200D03*
X160744000Y-61885200D03*
D11*
X157137200Y-58226800D03*
X157137200Y-60126800D03*
D20*
X159220000Y-60372000D03*
X159220000Y-57372000D03*
D16*
X161150400Y-47054400D03*
X161150400Y-43054400D03*
D14*
X157500000Y-45000000D03*
X152500000Y-45000000D03*
D15*
X166382800Y-45816400D03*
X166382800Y-51216400D03*
D13*
X154830800Y-50083600D03*
X156730800Y-50083600D03*
D12*
X151643200Y-51988600D03*
X151643200Y-53258600D03*
X151643200Y-54528600D03*
X151643200Y-55798600D03*
X157043200Y-55798600D03*
X157043200Y-54528600D03*
X157043200Y-53258600D03*
X157043200Y-51988600D03*
D22*
X155257600Y-58126800D03*
X155257600Y-60226800D03*
D11*
X159220000Y-54061200D03*
X159220000Y-55961200D03*
X153378000Y-58226800D03*
X153378000Y-60126800D03*
D23*
X151396800Y-58126000D03*
X151396800Y-60126000D03*
D19*
X142362000Y-57094000D03*
X147762000Y-57094000D03*
D18*
X142041600Y-52318800D03*
X139141600Y-52318800D03*
D17*
X139040800Y-49982000D03*
X142040800Y-49982000D03*
D11*
X137543600Y-62036800D03*
X137543600Y-63936800D03*
D21*
X139794000Y-63885200D03*
X141694000Y-63885200D03*
X140744000Y-61885200D03*
D11*
X137137200Y-58226800D03*
X137137200Y-60126800D03*
D20*
X139220000Y-60372000D03*
X139220000Y-57372000D03*
D16*
X141150400Y-47054400D03*
X141150400Y-43054400D03*
D14*
X137500000Y-45000000D03*
X132500000Y-45000000D03*
D15*
X146382800Y-45816400D03*
X146382800Y-51216400D03*
D13*
X134830800Y-50083600D03*
X136730800Y-50083600D03*
D12*
X131643200Y-51988600D03*
X131643200Y-53258600D03*
X131643200Y-54528600D03*
X131643200Y-55798600D03*
X137043200Y-55798600D03*
X137043200Y-54528600D03*
X137043200Y-53258600D03*
X137043200Y-51988600D03*
D22*
X135257600Y-58126800D03*
X135257600Y-60226800D03*
D11*
X139220000Y-54061200D03*
X139220000Y-55961200D03*
X133378000Y-58226800D03*
X133378000Y-60126800D03*
D23*
X131396800Y-58126000D03*
X131396800Y-60126000D03*
D19*
X122362000Y-57094000D03*
X127762000Y-57094000D03*
D18*
X122041600Y-52318800D03*
X119141600Y-52318800D03*
D17*
X119040800Y-49982000D03*
X122040800Y-49982000D03*
D11*
X117543600Y-62036800D03*
X117543600Y-63936800D03*
D21*
X119794000Y-63885200D03*
X121694000Y-63885200D03*
X120744000Y-61885200D03*
D11*
X117137200Y-58226800D03*
X117137200Y-60126800D03*
D20*
X119220000Y-60372000D03*
X119220000Y-57372000D03*
D16*
X121150400Y-47054400D03*
X121150400Y-43054400D03*
D14*
X117500000Y-45000000D03*
X112500000Y-45000000D03*
D15*
X126382800Y-45816400D03*
X126382800Y-51216400D03*
D13*
X114830800Y-50083600D03*
X116730800Y-50083600D03*
D12*
X111643200Y-51988600D03*
X111643200Y-53258600D03*
X111643200Y-54528600D03*
X111643200Y-55798600D03*
X117043200Y-55798600D03*
X117043200Y-54528600D03*
X117043200Y-53258600D03*
X117043200Y-51988600D03*
D22*
X115257600Y-58126800D03*
X115257600Y-60226800D03*
D11*
X119220000Y-54061200D03*
X119220000Y-55961200D03*
X113378000Y-58226800D03*
X113378000Y-60126800D03*
D23*
X111396800Y-58126000D03*
X111396800Y-60126000D03*
D19*
X102362000Y-57094000D03*
X107762000Y-57094000D03*
D18*
X102041600Y-52318800D03*
X99141600Y-52318800D03*
D17*
X99040800Y-49982000D03*
X102040800Y-49982000D03*
D11*
X97543600Y-62036800D03*
X97543600Y-63936800D03*
D21*
X99794000Y-63885200D03*
X101694000Y-63885200D03*
X100744000Y-61885200D03*
D11*
X97137200Y-58226800D03*
X97137200Y-60126800D03*
D20*
X99220000Y-60372000D03*
X99220000Y-57372000D03*
D16*
X101150400Y-47054400D03*
X101150400Y-43054400D03*
D14*
X97500000Y-45000000D03*
X92500000Y-45000000D03*
D15*
X106382800Y-45816400D03*
X106382800Y-51216400D03*
D13*
X94830800Y-50083600D03*
X96730800Y-50083600D03*
D12*
X91643200Y-51988600D03*
X91643200Y-53258600D03*
X91643200Y-54528600D03*
X91643200Y-55798600D03*
X97043200Y-55798600D03*
X97043200Y-54528600D03*
X97043200Y-53258600D03*
X97043200Y-51988600D03*
D22*
X95257600Y-58126800D03*
X95257600Y-60226800D03*
D11*
X99220000Y-54061200D03*
X99220000Y-55961200D03*
X93378000Y-58226800D03*
X93378000Y-60126800D03*
D23*
X91396800Y-58126000D03*
X91396800Y-60126000D03*
X71396800Y-58126000D03*
X71396800Y-60126000D03*
D19*
X82362000Y-57094000D03*
X87762000Y-57094000D03*
D15*
X86382800Y-45816400D03*
X86382800Y-51216400D03*
D17*
X79040800Y-49982000D03*
X82040800Y-49982000D03*
D20*
X79220000Y-60372000D03*
X79220000Y-57372000D03*
D22*
X75257600Y-58126800D03*
X75257600Y-60226800D03*
D14*
X77500000Y-45000000D03*
X72500000Y-45000000D03*
D21*
X79794000Y-63885200D03*
X81694000Y-63885200D03*
X80744000Y-61885200D03*
D13*
X74830800Y-50083600D03*
X76730800Y-50083600D03*
D18*
X82041600Y-52318800D03*
X79141600Y-52318800D03*
D11*
X79220000Y-54061200D03*
X79220000Y-55961200D03*
X73378000Y-58226800D03*
X73378000Y-60126800D03*
X77137200Y-58226800D03*
X77137200Y-60126800D03*
X77543600Y-62036800D03*
X77543600Y-63936800D03*
D12*
X71643200Y-51988600D03*
X71643200Y-53258600D03*
X71643200Y-54528600D03*
X71643200Y-55798600D03*
X77043200Y-55798600D03*
X77043200Y-54528600D03*
X77043200Y-53258600D03*
X77043200Y-51988600D03*
D16*
X81150400Y-47054400D03*
X81150400Y-43054400D03*
M02*
