M48
;DRILL file {KiCad 4.0.2-stable} date 12/4/2017 4:34:01 PM
;FORMAT={3:3/ absolute / metric / suppress leading zeros}
FMAT,2
METRIC,TZ
T1C0.400
T2C1.000
%
G90
G05
M71
T1
X73000Y-53500
X73000Y-78500
X73000Y-103500
X73000Y-128500
X73500Y-54000
X73500Y-79000
X73500Y-104000
X73500Y-129000
X73988Y-54503
X73988Y-79503
X73988Y-104503
X73988Y-129503
X80084Y-59126
X80084Y-84126
X80084Y-109126
X80084Y-134126
X80795Y-59126
X80795Y-84126
X80795Y-109126
X80795Y-134126
X81506Y-59126
X81506Y-84126
X81506Y-109126
X81506Y-134126
X93000Y-53500
X93000Y-78500
X93000Y-103500
X93000Y-128500
X93500Y-54000
X93500Y-79000
X93500Y-104000
X93500Y-129000
X93988Y-54503
X93988Y-79503
X93988Y-104503
X93988Y-129503
X100084Y-59126
X100084Y-84126
X100084Y-109126
X100084Y-134126
X100795Y-59126
X100795Y-84126
X100795Y-109126
X100795Y-134126
X101506Y-59126
X101506Y-84126
X101506Y-109126
X101506Y-134126
X113000Y-53500
X113000Y-78500
X113000Y-103500
X113000Y-128500
X113500Y-54000
X113500Y-79000
X113500Y-104000
X113500Y-129000
X113988Y-54503
X113988Y-79503
X113988Y-104503
X113988Y-129503
X120084Y-59126
X120084Y-84126
X120084Y-109126
X120084Y-134126
X120795Y-59126
X120795Y-84126
X120795Y-109126
X120795Y-134126
X121506Y-59126
X121506Y-84126
X121506Y-109126
X121506Y-134126
X133000Y-53500
X133000Y-78500
X133000Y-103500
X133000Y-128500
X133500Y-54000
X133500Y-79000
X133500Y-104000
X133500Y-129000
X133988Y-54503
X133988Y-79503
X133988Y-104503
X133988Y-129503
X140084Y-59126
X140084Y-84126
X140084Y-109126
X140084Y-134126
X140795Y-59126
X140795Y-84126
X140795Y-109126
X140795Y-134126
X141506Y-59126
X141506Y-84126
X141506Y-109126
X141506Y-134126
X153000Y-53500
X153000Y-78500
X153000Y-103500
X153000Y-128500
X153500Y-54000
X153500Y-79000
X153500Y-104000
X153500Y-129000
X153988Y-54503
X153988Y-79503
X153988Y-104503
X153988Y-129503
X160084Y-59126
X160084Y-84126
X160084Y-109126
X160084Y-134126
X160795Y-59126
X160795Y-84126
X160795Y-109126
X160795Y-134126
X161506Y-59126
X161506Y-84126
X161506Y-109126
X161506Y-134126
T2
X71905Y-63088
X71905Y-88088
X71905Y-113088
X71905Y-138088
X74445Y-63088
X74445Y-88088
X74445Y-113088
X74445Y-138088
X85418Y-63038
X85418Y-88038
X85418Y-113038
X85418Y-138038
X85468Y-41956
X85468Y-66956
X85468Y-91956
X85468Y-116956
X87958Y-63038
X87958Y-88038
X87958Y-113038
X87958Y-138038
X88008Y-41956
X88008Y-66956
X88008Y-91956
X88008Y-116956
X91905Y-63088
X91905Y-88088
X91905Y-113088
X91905Y-138088
X94445Y-63088
X94445Y-88088
X94445Y-113088
X94445Y-138088
X105418Y-63038
X105418Y-88038
X105418Y-113038
X105418Y-138038
X105468Y-41956
X105468Y-66956
X105468Y-91956
X105468Y-116956
X107958Y-63038
X107958Y-88038
X107958Y-113038
X107958Y-138038
X108008Y-41956
X108008Y-66956
X108008Y-91956
X108008Y-116956
X111905Y-63088
X111905Y-88088
X111905Y-113088
X111905Y-138088
X114445Y-63088
X114445Y-88088
X114445Y-113088
X114445Y-138088
X125418Y-63038
X125418Y-88038
X125418Y-113038
X125418Y-138038
X125468Y-41956
X125468Y-66956
X125468Y-91956
X125468Y-116956
X127958Y-63038
X127958Y-88038
X127958Y-113038
X127958Y-138038
X128008Y-41956
X128008Y-66956
X128008Y-91956
X128008Y-116956
X131905Y-63088
X131905Y-88088
X131905Y-113088
X131905Y-138088
X134445Y-63088
X134445Y-88088
X134445Y-113088
X134445Y-138088
X145418Y-63038
X145418Y-88038
X145418Y-113038
X145418Y-138038
X145468Y-41956
X145468Y-66956
X145468Y-91956
X145468Y-116956
X147958Y-63038
X147958Y-88038
X147958Y-113038
X147958Y-138038
X148008Y-41956
X148008Y-66956
X148008Y-91956
X148008Y-116956
X151905Y-63088
X151905Y-88088
X151905Y-113088
X151905Y-138088
X154445Y-63088
X154445Y-88088
X154445Y-113088
X154445Y-138088
X165418Y-63038
X165418Y-88038
X165418Y-113038
X165418Y-138038
X165468Y-41956
X165468Y-66956
X165468Y-91956
X165468Y-116956
X167958Y-63038
X167958Y-88038
X167958Y-113038
X167958Y-138038
X168008Y-41956
X168008Y-66956
X168008Y-91956
X168008Y-116956
T0
M30
