G04 #@! TF.FileFunction,Copper,L1,Top,Signal*
%FSLAX46Y46*%
G04 Gerber Fmt 4.6, Leading zero omitted, Abs format (unit mm)*
G04 Created by KiCad (PCBNEW 4.0.2-stable) date 12/4/2017 4:33:49 PM*
%MOMM*%
G01*
G04 APERTURE LIST*
%ADD10C,0.100000*%
%ADD11R,1.300000X0.700000*%
%ADD12R,1.550000X0.600000*%
%ADD13R,0.700000X1.300000*%
%ADD14R,3.000000X7.500000*%
%ADD15R,1.600000X3.500000*%
%ADD16R,1.700000X1.700000*%
%ADD17O,1.700000X1.700000*%
%ADD18R,1.800000X2.500000*%
%ADD19R,1.000000X1.600000*%
%ADD20R,0.900000X1.700000*%
%ADD21R,3.500000X1.600000*%
%ADD22R,1.600000X1.000000*%
%ADD23R,0.800000X0.900000*%
%ADD24R,0.900000X0.800000*%
%ADD25R,1.250000X1.000000*%
%ADD26C,0.600000*%
%ADD27C,0.500000*%
%ADD28C,0.250000*%
G04 APERTURE END LIST*
D10*
D11*
X159220000Y-129061200D03*
X159220000Y-130961200D03*
D12*
X151643200Y-126988600D03*
X151643200Y-128258600D03*
X151643200Y-129528600D03*
X151643200Y-130798600D03*
X157043200Y-130798600D03*
X157043200Y-129528600D03*
X157043200Y-128258600D03*
X157043200Y-126988600D03*
D13*
X154830800Y-125083600D03*
X156730800Y-125083600D03*
D14*
X157500000Y-120000000D03*
X152500000Y-120000000D03*
D15*
X166382800Y-120816400D03*
X166382800Y-126216400D03*
D16*
X165468400Y-116955600D03*
D17*
X168008400Y-116955600D03*
D18*
X161150400Y-122054400D03*
X161150400Y-118054400D03*
D19*
X159040800Y-124982000D03*
X162040800Y-124982000D03*
D20*
X162041600Y-127318800D03*
X159141600Y-127318800D03*
D21*
X162362000Y-132094000D03*
X167762000Y-132094000D03*
D22*
X159220000Y-135372000D03*
X159220000Y-132372000D03*
D11*
X157137200Y-133226800D03*
X157137200Y-135126800D03*
X157543600Y-137036800D03*
X157543600Y-138936800D03*
D16*
X165417600Y-138037600D03*
D17*
X167957600Y-138037600D03*
D23*
X159794000Y-138885200D03*
X161694000Y-138885200D03*
X160744000Y-136885200D03*
D16*
X145417600Y-138037600D03*
D17*
X147957600Y-138037600D03*
D16*
X154444800Y-138088400D03*
D17*
X151904800Y-138088400D03*
D21*
X142362000Y-132094000D03*
X147762000Y-132094000D03*
D11*
X153378000Y-133226800D03*
X153378000Y-135126800D03*
D24*
X155257600Y-133126800D03*
X155257600Y-135226800D03*
D25*
X151396800Y-133126000D03*
X151396800Y-135126000D03*
D23*
X139794000Y-138885200D03*
X141694000Y-138885200D03*
X140744000Y-136885200D03*
D20*
X142041600Y-127318800D03*
X139141600Y-127318800D03*
D18*
X141150400Y-122054400D03*
X141150400Y-118054400D03*
D16*
X145468400Y-116955600D03*
D17*
X148008400Y-116955600D03*
D15*
X146382800Y-120816400D03*
X146382800Y-126216400D03*
D19*
X139040800Y-124982000D03*
X142040800Y-124982000D03*
D15*
X106382800Y-120816400D03*
X106382800Y-126216400D03*
D16*
X105468400Y-116955600D03*
D17*
X108008400Y-116955600D03*
D19*
X99040800Y-124982000D03*
X102040800Y-124982000D03*
D18*
X101150400Y-122054400D03*
X101150400Y-118054400D03*
X81150400Y-122054400D03*
X81150400Y-118054400D03*
D14*
X77500000Y-120000000D03*
X72500000Y-120000000D03*
D13*
X74830800Y-125083600D03*
X76730800Y-125083600D03*
D20*
X82041600Y-127318800D03*
X79141600Y-127318800D03*
D19*
X79040800Y-124982000D03*
X82040800Y-124982000D03*
D11*
X79220000Y-129061200D03*
X79220000Y-130961200D03*
D12*
X71643200Y-126988600D03*
X71643200Y-128258600D03*
X71643200Y-129528600D03*
X71643200Y-130798600D03*
X77043200Y-130798600D03*
X77043200Y-129528600D03*
X77043200Y-128258600D03*
X77043200Y-126988600D03*
D22*
X79220000Y-135372000D03*
X79220000Y-132372000D03*
D16*
X85417600Y-138037600D03*
D17*
X87957600Y-138037600D03*
D11*
X93378000Y-133226800D03*
X93378000Y-135126800D03*
D24*
X95257600Y-133126800D03*
X95257600Y-135226800D03*
D16*
X94444800Y-138088400D03*
D17*
X91904800Y-138088400D03*
D25*
X91396800Y-133126000D03*
X91396800Y-135126000D03*
D21*
X82362000Y-132094000D03*
X87762000Y-132094000D03*
D23*
X79794000Y-138885200D03*
X81694000Y-138885200D03*
X80744000Y-136885200D03*
D11*
X97137200Y-133226800D03*
X97137200Y-135126800D03*
X99220000Y-129061200D03*
X99220000Y-130961200D03*
X97543600Y-137036800D03*
X97543600Y-138936800D03*
D22*
X99220000Y-135372000D03*
X99220000Y-132372000D03*
D23*
X99794000Y-138885200D03*
X101694000Y-138885200D03*
X100744000Y-136885200D03*
D21*
X102362000Y-132094000D03*
X107762000Y-132094000D03*
D16*
X105417600Y-138037600D03*
D17*
X107957600Y-138037600D03*
D20*
X102041600Y-127318800D03*
X99141600Y-127318800D03*
D16*
X85468400Y-116955600D03*
D17*
X88008400Y-116955600D03*
D13*
X94830800Y-125083600D03*
X96730800Y-125083600D03*
D14*
X97500000Y-120000000D03*
X92500000Y-120000000D03*
D12*
X91643200Y-126988600D03*
X91643200Y-128258600D03*
X91643200Y-129528600D03*
X91643200Y-130798600D03*
X97043200Y-130798600D03*
X97043200Y-129528600D03*
X97043200Y-128258600D03*
X97043200Y-126988600D03*
D15*
X86382800Y-120816400D03*
X86382800Y-126216400D03*
D11*
X77137200Y-133226800D03*
X77137200Y-135126800D03*
X77543600Y-137036800D03*
X77543600Y-138936800D03*
D24*
X75257600Y-133126800D03*
X75257600Y-135226800D03*
D11*
X73378000Y-133226800D03*
X73378000Y-135126800D03*
D25*
X71396800Y-133126000D03*
X71396800Y-135126000D03*
D16*
X74444800Y-138088400D03*
D17*
X71904800Y-138088400D03*
D11*
X133378000Y-133226800D03*
X133378000Y-135126800D03*
D22*
X139220000Y-135372000D03*
X139220000Y-132372000D03*
D11*
X139220000Y-129061200D03*
X139220000Y-130961200D03*
D12*
X131643200Y-126988600D03*
X131643200Y-128258600D03*
X131643200Y-129528600D03*
X131643200Y-130798600D03*
X137043200Y-130798600D03*
X137043200Y-129528600D03*
X137043200Y-128258600D03*
X137043200Y-126988600D03*
D13*
X134830800Y-125083600D03*
X136730800Y-125083600D03*
D14*
X137500000Y-120000000D03*
X132500000Y-120000000D03*
D16*
X125468400Y-116955600D03*
D17*
X128008400Y-116955600D03*
D20*
X122041600Y-127318800D03*
X119141600Y-127318800D03*
D19*
X119040800Y-124982000D03*
X122040800Y-124982000D03*
D15*
X126382800Y-120816400D03*
X126382800Y-126216400D03*
D18*
X121150400Y-122054400D03*
X121150400Y-118054400D03*
D11*
X119220000Y-129061200D03*
X119220000Y-130961200D03*
D12*
X111643200Y-126988600D03*
X111643200Y-128258600D03*
X111643200Y-129528600D03*
X111643200Y-130798600D03*
X117043200Y-130798600D03*
X117043200Y-129528600D03*
X117043200Y-128258600D03*
X117043200Y-126988600D03*
D13*
X114830800Y-125083600D03*
X116730800Y-125083600D03*
D14*
X117500000Y-120000000D03*
X112500000Y-120000000D03*
D23*
X119794000Y-138885200D03*
X121694000Y-138885200D03*
X120744000Y-136885200D03*
D21*
X122362000Y-132094000D03*
X127762000Y-132094000D03*
D16*
X125417600Y-138037600D03*
D17*
X127957600Y-138037600D03*
D22*
X119220000Y-135372000D03*
X119220000Y-132372000D03*
D16*
X114444800Y-138088400D03*
D17*
X111904800Y-138088400D03*
D25*
X111396800Y-133126000D03*
X111396800Y-135126000D03*
D11*
X113378000Y-133226800D03*
X113378000Y-135126800D03*
D24*
X115257600Y-133126800D03*
X115257600Y-135226800D03*
D11*
X117543600Y-137036800D03*
X117543600Y-138936800D03*
X117137200Y-133226800D03*
X117137200Y-135126800D03*
D24*
X135257600Y-133126800D03*
X135257600Y-135226800D03*
D11*
X137137200Y-133226800D03*
X137137200Y-135126800D03*
D16*
X134444800Y-138088400D03*
D17*
X131904800Y-138088400D03*
D11*
X137543600Y-137036800D03*
X137543600Y-138936800D03*
D25*
X131396800Y-133126000D03*
X131396800Y-135126000D03*
D11*
X159220000Y-104061200D03*
X159220000Y-105961200D03*
D12*
X151643200Y-101988600D03*
X151643200Y-103258600D03*
X151643200Y-104528600D03*
X151643200Y-105798600D03*
X157043200Y-105798600D03*
X157043200Y-104528600D03*
X157043200Y-103258600D03*
X157043200Y-101988600D03*
D13*
X154830800Y-100083600D03*
X156730800Y-100083600D03*
D14*
X157500000Y-95000000D03*
X152500000Y-95000000D03*
D15*
X166382800Y-95816400D03*
X166382800Y-101216400D03*
D16*
X165468400Y-91955600D03*
D17*
X168008400Y-91955600D03*
D18*
X161150400Y-97054400D03*
X161150400Y-93054400D03*
D19*
X159040800Y-99982000D03*
X162040800Y-99982000D03*
D20*
X162041600Y-102318800D03*
X159141600Y-102318800D03*
D21*
X162362000Y-107094000D03*
X167762000Y-107094000D03*
D22*
X159220000Y-110372000D03*
X159220000Y-107372000D03*
D11*
X157137200Y-108226800D03*
X157137200Y-110126800D03*
X157543600Y-112036800D03*
X157543600Y-113936800D03*
D16*
X165417600Y-113037600D03*
D17*
X167957600Y-113037600D03*
D23*
X159794000Y-113885200D03*
X161694000Y-113885200D03*
X160744000Y-111885200D03*
D16*
X145417600Y-113037600D03*
D17*
X147957600Y-113037600D03*
D16*
X154444800Y-113088400D03*
D17*
X151904800Y-113088400D03*
D21*
X142362000Y-107094000D03*
X147762000Y-107094000D03*
D11*
X153378000Y-108226800D03*
X153378000Y-110126800D03*
D24*
X155257600Y-108126800D03*
X155257600Y-110226800D03*
D25*
X151396800Y-108126000D03*
X151396800Y-110126000D03*
D23*
X139794000Y-113885200D03*
X141694000Y-113885200D03*
X140744000Y-111885200D03*
D20*
X142041600Y-102318800D03*
X139141600Y-102318800D03*
D18*
X141150400Y-97054400D03*
X141150400Y-93054400D03*
D16*
X145468400Y-91955600D03*
D17*
X148008400Y-91955600D03*
D15*
X146382800Y-95816400D03*
X146382800Y-101216400D03*
D19*
X139040800Y-99982000D03*
X142040800Y-99982000D03*
D15*
X106382800Y-95816400D03*
X106382800Y-101216400D03*
D16*
X105468400Y-91955600D03*
D17*
X108008400Y-91955600D03*
D19*
X99040800Y-99982000D03*
X102040800Y-99982000D03*
D18*
X101150400Y-97054400D03*
X101150400Y-93054400D03*
X81150400Y-97054400D03*
X81150400Y-93054400D03*
D14*
X77500000Y-95000000D03*
X72500000Y-95000000D03*
D13*
X74830800Y-100083600D03*
X76730800Y-100083600D03*
D20*
X82041600Y-102318800D03*
X79141600Y-102318800D03*
D19*
X79040800Y-99982000D03*
X82040800Y-99982000D03*
D11*
X79220000Y-104061200D03*
X79220000Y-105961200D03*
D12*
X71643200Y-101988600D03*
X71643200Y-103258600D03*
X71643200Y-104528600D03*
X71643200Y-105798600D03*
X77043200Y-105798600D03*
X77043200Y-104528600D03*
X77043200Y-103258600D03*
X77043200Y-101988600D03*
D22*
X79220000Y-110372000D03*
X79220000Y-107372000D03*
D16*
X85417600Y-113037600D03*
D17*
X87957600Y-113037600D03*
D11*
X93378000Y-108226800D03*
X93378000Y-110126800D03*
D24*
X95257600Y-108126800D03*
X95257600Y-110226800D03*
D16*
X94444800Y-113088400D03*
D17*
X91904800Y-113088400D03*
D25*
X91396800Y-108126000D03*
X91396800Y-110126000D03*
D21*
X82362000Y-107094000D03*
X87762000Y-107094000D03*
D23*
X79794000Y-113885200D03*
X81694000Y-113885200D03*
X80744000Y-111885200D03*
D11*
X97137200Y-108226800D03*
X97137200Y-110126800D03*
X99220000Y-104061200D03*
X99220000Y-105961200D03*
X97543600Y-112036800D03*
X97543600Y-113936800D03*
D22*
X99220000Y-110372000D03*
X99220000Y-107372000D03*
D23*
X99794000Y-113885200D03*
X101694000Y-113885200D03*
X100744000Y-111885200D03*
D21*
X102362000Y-107094000D03*
X107762000Y-107094000D03*
D16*
X105417600Y-113037600D03*
D17*
X107957600Y-113037600D03*
D20*
X102041600Y-102318800D03*
X99141600Y-102318800D03*
D16*
X85468400Y-91955600D03*
D17*
X88008400Y-91955600D03*
D13*
X94830800Y-100083600D03*
X96730800Y-100083600D03*
D14*
X97500000Y-95000000D03*
X92500000Y-95000000D03*
D12*
X91643200Y-101988600D03*
X91643200Y-103258600D03*
X91643200Y-104528600D03*
X91643200Y-105798600D03*
X97043200Y-105798600D03*
X97043200Y-104528600D03*
X97043200Y-103258600D03*
X97043200Y-101988600D03*
D15*
X86382800Y-95816400D03*
X86382800Y-101216400D03*
D11*
X77137200Y-108226800D03*
X77137200Y-110126800D03*
X77543600Y-112036800D03*
X77543600Y-113936800D03*
D24*
X75257600Y-108126800D03*
X75257600Y-110226800D03*
D11*
X73378000Y-108226800D03*
X73378000Y-110126800D03*
D25*
X71396800Y-108126000D03*
X71396800Y-110126000D03*
D16*
X74444800Y-113088400D03*
D17*
X71904800Y-113088400D03*
D11*
X133378000Y-108226800D03*
X133378000Y-110126800D03*
D22*
X139220000Y-110372000D03*
X139220000Y-107372000D03*
D11*
X139220000Y-104061200D03*
X139220000Y-105961200D03*
D12*
X131643200Y-101988600D03*
X131643200Y-103258600D03*
X131643200Y-104528600D03*
X131643200Y-105798600D03*
X137043200Y-105798600D03*
X137043200Y-104528600D03*
X137043200Y-103258600D03*
X137043200Y-101988600D03*
D13*
X134830800Y-100083600D03*
X136730800Y-100083600D03*
D14*
X137500000Y-95000000D03*
X132500000Y-95000000D03*
D16*
X125468400Y-91955600D03*
D17*
X128008400Y-91955600D03*
D20*
X122041600Y-102318800D03*
X119141600Y-102318800D03*
D19*
X119040800Y-99982000D03*
X122040800Y-99982000D03*
D15*
X126382800Y-95816400D03*
X126382800Y-101216400D03*
D18*
X121150400Y-97054400D03*
X121150400Y-93054400D03*
D11*
X119220000Y-104061200D03*
X119220000Y-105961200D03*
D12*
X111643200Y-101988600D03*
X111643200Y-103258600D03*
X111643200Y-104528600D03*
X111643200Y-105798600D03*
X117043200Y-105798600D03*
X117043200Y-104528600D03*
X117043200Y-103258600D03*
X117043200Y-101988600D03*
D13*
X114830800Y-100083600D03*
X116730800Y-100083600D03*
D14*
X117500000Y-95000000D03*
X112500000Y-95000000D03*
D23*
X119794000Y-113885200D03*
X121694000Y-113885200D03*
X120744000Y-111885200D03*
D21*
X122362000Y-107094000D03*
X127762000Y-107094000D03*
D16*
X125417600Y-113037600D03*
D17*
X127957600Y-113037600D03*
D22*
X119220000Y-110372000D03*
X119220000Y-107372000D03*
D16*
X114444800Y-113088400D03*
D17*
X111904800Y-113088400D03*
D25*
X111396800Y-108126000D03*
X111396800Y-110126000D03*
D11*
X113378000Y-108226800D03*
X113378000Y-110126800D03*
D24*
X115257600Y-108126800D03*
X115257600Y-110226800D03*
D11*
X117543600Y-112036800D03*
X117543600Y-113936800D03*
X117137200Y-108226800D03*
X117137200Y-110126800D03*
D24*
X135257600Y-108126800D03*
X135257600Y-110226800D03*
D11*
X137137200Y-108226800D03*
X137137200Y-110126800D03*
D16*
X134444800Y-113088400D03*
D17*
X131904800Y-113088400D03*
D11*
X137543600Y-112036800D03*
X137543600Y-113936800D03*
D25*
X131396800Y-108126000D03*
X131396800Y-110126000D03*
D11*
X159220000Y-79061200D03*
X159220000Y-80961200D03*
D12*
X151643200Y-76988600D03*
X151643200Y-78258600D03*
X151643200Y-79528600D03*
X151643200Y-80798600D03*
X157043200Y-80798600D03*
X157043200Y-79528600D03*
X157043200Y-78258600D03*
X157043200Y-76988600D03*
D13*
X154830800Y-75083600D03*
X156730800Y-75083600D03*
D14*
X157500000Y-70000000D03*
X152500000Y-70000000D03*
D15*
X166382800Y-70816400D03*
X166382800Y-76216400D03*
D16*
X165468400Y-66955600D03*
D17*
X168008400Y-66955600D03*
D18*
X161150400Y-72054400D03*
X161150400Y-68054400D03*
D19*
X159040800Y-74982000D03*
X162040800Y-74982000D03*
D20*
X162041600Y-77318800D03*
X159141600Y-77318800D03*
D21*
X162362000Y-82094000D03*
X167762000Y-82094000D03*
D22*
X159220000Y-85372000D03*
X159220000Y-82372000D03*
D11*
X157137200Y-83226800D03*
X157137200Y-85126800D03*
X157543600Y-87036800D03*
X157543600Y-88936800D03*
D16*
X165417600Y-88037600D03*
D17*
X167957600Y-88037600D03*
D23*
X159794000Y-88885200D03*
X161694000Y-88885200D03*
X160744000Y-86885200D03*
D16*
X145417600Y-88037600D03*
D17*
X147957600Y-88037600D03*
D16*
X154444800Y-88088400D03*
D17*
X151904800Y-88088400D03*
D21*
X142362000Y-82094000D03*
X147762000Y-82094000D03*
D11*
X153378000Y-83226800D03*
X153378000Y-85126800D03*
D24*
X155257600Y-83126800D03*
X155257600Y-85226800D03*
D25*
X151396800Y-83126000D03*
X151396800Y-85126000D03*
D23*
X139794000Y-88885200D03*
X141694000Y-88885200D03*
X140744000Y-86885200D03*
D20*
X142041600Y-77318800D03*
X139141600Y-77318800D03*
D18*
X141150400Y-72054400D03*
X141150400Y-68054400D03*
D16*
X145468400Y-66955600D03*
D17*
X148008400Y-66955600D03*
D15*
X146382800Y-70816400D03*
X146382800Y-76216400D03*
D19*
X139040800Y-74982000D03*
X142040800Y-74982000D03*
D15*
X106382800Y-70816400D03*
X106382800Y-76216400D03*
D16*
X105468400Y-66955600D03*
D17*
X108008400Y-66955600D03*
D19*
X99040800Y-74982000D03*
X102040800Y-74982000D03*
D18*
X101150400Y-72054400D03*
X101150400Y-68054400D03*
X81150400Y-72054400D03*
X81150400Y-68054400D03*
D14*
X77500000Y-70000000D03*
X72500000Y-70000000D03*
D13*
X74830800Y-75083600D03*
X76730800Y-75083600D03*
D20*
X82041600Y-77318800D03*
X79141600Y-77318800D03*
D19*
X79040800Y-74982000D03*
X82040800Y-74982000D03*
D11*
X79220000Y-79061200D03*
X79220000Y-80961200D03*
D12*
X71643200Y-76988600D03*
X71643200Y-78258600D03*
X71643200Y-79528600D03*
X71643200Y-80798600D03*
X77043200Y-80798600D03*
X77043200Y-79528600D03*
X77043200Y-78258600D03*
X77043200Y-76988600D03*
D22*
X79220000Y-85372000D03*
X79220000Y-82372000D03*
D16*
X85417600Y-88037600D03*
D17*
X87957600Y-88037600D03*
D11*
X93378000Y-83226800D03*
X93378000Y-85126800D03*
D24*
X95257600Y-83126800D03*
X95257600Y-85226800D03*
D16*
X94444800Y-88088400D03*
D17*
X91904800Y-88088400D03*
D25*
X91396800Y-83126000D03*
X91396800Y-85126000D03*
D21*
X82362000Y-82094000D03*
X87762000Y-82094000D03*
D23*
X79794000Y-88885200D03*
X81694000Y-88885200D03*
X80744000Y-86885200D03*
D11*
X97137200Y-83226800D03*
X97137200Y-85126800D03*
X99220000Y-79061200D03*
X99220000Y-80961200D03*
X97543600Y-87036800D03*
X97543600Y-88936800D03*
D22*
X99220000Y-85372000D03*
X99220000Y-82372000D03*
D23*
X99794000Y-88885200D03*
X101694000Y-88885200D03*
X100744000Y-86885200D03*
D21*
X102362000Y-82094000D03*
X107762000Y-82094000D03*
D16*
X105417600Y-88037600D03*
D17*
X107957600Y-88037600D03*
D20*
X102041600Y-77318800D03*
X99141600Y-77318800D03*
D16*
X85468400Y-66955600D03*
D17*
X88008400Y-66955600D03*
D13*
X94830800Y-75083600D03*
X96730800Y-75083600D03*
D14*
X97500000Y-70000000D03*
X92500000Y-70000000D03*
D12*
X91643200Y-76988600D03*
X91643200Y-78258600D03*
X91643200Y-79528600D03*
X91643200Y-80798600D03*
X97043200Y-80798600D03*
X97043200Y-79528600D03*
X97043200Y-78258600D03*
X97043200Y-76988600D03*
D15*
X86382800Y-70816400D03*
X86382800Y-76216400D03*
D11*
X77137200Y-83226800D03*
X77137200Y-85126800D03*
X77543600Y-87036800D03*
X77543600Y-88936800D03*
D24*
X75257600Y-83126800D03*
X75257600Y-85226800D03*
D11*
X73378000Y-83226800D03*
X73378000Y-85126800D03*
D25*
X71396800Y-83126000D03*
X71396800Y-85126000D03*
D16*
X74444800Y-88088400D03*
D17*
X71904800Y-88088400D03*
D11*
X133378000Y-83226800D03*
X133378000Y-85126800D03*
D22*
X139220000Y-85372000D03*
X139220000Y-82372000D03*
D11*
X139220000Y-79061200D03*
X139220000Y-80961200D03*
D12*
X131643200Y-76988600D03*
X131643200Y-78258600D03*
X131643200Y-79528600D03*
X131643200Y-80798600D03*
X137043200Y-80798600D03*
X137043200Y-79528600D03*
X137043200Y-78258600D03*
X137043200Y-76988600D03*
D13*
X134830800Y-75083600D03*
X136730800Y-75083600D03*
D14*
X137500000Y-70000000D03*
X132500000Y-70000000D03*
D16*
X125468400Y-66955600D03*
D17*
X128008400Y-66955600D03*
D20*
X122041600Y-77318800D03*
X119141600Y-77318800D03*
D19*
X119040800Y-74982000D03*
X122040800Y-74982000D03*
D15*
X126382800Y-70816400D03*
X126382800Y-76216400D03*
D18*
X121150400Y-72054400D03*
X121150400Y-68054400D03*
D11*
X119220000Y-79061200D03*
X119220000Y-80961200D03*
D12*
X111643200Y-76988600D03*
X111643200Y-78258600D03*
X111643200Y-79528600D03*
X111643200Y-80798600D03*
X117043200Y-80798600D03*
X117043200Y-79528600D03*
X117043200Y-78258600D03*
X117043200Y-76988600D03*
D13*
X114830800Y-75083600D03*
X116730800Y-75083600D03*
D14*
X117500000Y-70000000D03*
X112500000Y-70000000D03*
D23*
X119794000Y-88885200D03*
X121694000Y-88885200D03*
X120744000Y-86885200D03*
D21*
X122362000Y-82094000D03*
X127762000Y-82094000D03*
D16*
X125417600Y-88037600D03*
D17*
X127957600Y-88037600D03*
D22*
X119220000Y-85372000D03*
X119220000Y-82372000D03*
D16*
X114444800Y-88088400D03*
D17*
X111904800Y-88088400D03*
D25*
X111396800Y-83126000D03*
X111396800Y-85126000D03*
D11*
X113378000Y-83226800D03*
X113378000Y-85126800D03*
D24*
X115257600Y-83126800D03*
X115257600Y-85226800D03*
D11*
X117543600Y-87036800D03*
X117543600Y-88936800D03*
X117137200Y-83226800D03*
X117137200Y-85126800D03*
D24*
X135257600Y-83126800D03*
X135257600Y-85226800D03*
D11*
X137137200Y-83226800D03*
X137137200Y-85126800D03*
D16*
X134444800Y-88088400D03*
D17*
X131904800Y-88088400D03*
D11*
X137543600Y-87036800D03*
X137543600Y-88936800D03*
D25*
X131396800Y-83126000D03*
X131396800Y-85126000D03*
D16*
X165417600Y-63037600D03*
D17*
X167957600Y-63037600D03*
D21*
X162362000Y-57094000D03*
X167762000Y-57094000D03*
D20*
X162041600Y-52318800D03*
X159141600Y-52318800D03*
D19*
X159040800Y-49982000D03*
X162040800Y-49982000D03*
D11*
X157543600Y-62036800D03*
X157543600Y-63936800D03*
D23*
X159794000Y-63885200D03*
X161694000Y-63885200D03*
X160744000Y-61885200D03*
D11*
X157137200Y-58226800D03*
X157137200Y-60126800D03*
D22*
X159220000Y-60372000D03*
X159220000Y-57372000D03*
D16*
X154444800Y-63088400D03*
D17*
X151904800Y-63088400D03*
D18*
X161150400Y-47054400D03*
X161150400Y-43054400D03*
D16*
X165468400Y-41955600D03*
D17*
X168008400Y-41955600D03*
D14*
X157500000Y-45000000D03*
X152500000Y-45000000D03*
D15*
X166382800Y-45816400D03*
X166382800Y-51216400D03*
D13*
X154830800Y-50083600D03*
X156730800Y-50083600D03*
D12*
X151643200Y-51988600D03*
X151643200Y-53258600D03*
X151643200Y-54528600D03*
X151643200Y-55798600D03*
X157043200Y-55798600D03*
X157043200Y-54528600D03*
X157043200Y-53258600D03*
X157043200Y-51988600D03*
D24*
X155257600Y-58126800D03*
X155257600Y-60226800D03*
D11*
X159220000Y-54061200D03*
X159220000Y-55961200D03*
X153378000Y-58226800D03*
X153378000Y-60126800D03*
D25*
X151396800Y-58126000D03*
X151396800Y-60126000D03*
D16*
X145417600Y-63037600D03*
D17*
X147957600Y-63037600D03*
D21*
X142362000Y-57094000D03*
X147762000Y-57094000D03*
D20*
X142041600Y-52318800D03*
X139141600Y-52318800D03*
D19*
X139040800Y-49982000D03*
X142040800Y-49982000D03*
D11*
X137543600Y-62036800D03*
X137543600Y-63936800D03*
D23*
X139794000Y-63885200D03*
X141694000Y-63885200D03*
X140744000Y-61885200D03*
D11*
X137137200Y-58226800D03*
X137137200Y-60126800D03*
D22*
X139220000Y-60372000D03*
X139220000Y-57372000D03*
D16*
X134444800Y-63088400D03*
D17*
X131904800Y-63088400D03*
D18*
X141150400Y-47054400D03*
X141150400Y-43054400D03*
D16*
X145468400Y-41955600D03*
D17*
X148008400Y-41955600D03*
D14*
X137500000Y-45000000D03*
X132500000Y-45000000D03*
D15*
X146382800Y-45816400D03*
X146382800Y-51216400D03*
D13*
X134830800Y-50083600D03*
X136730800Y-50083600D03*
D12*
X131643200Y-51988600D03*
X131643200Y-53258600D03*
X131643200Y-54528600D03*
X131643200Y-55798600D03*
X137043200Y-55798600D03*
X137043200Y-54528600D03*
X137043200Y-53258600D03*
X137043200Y-51988600D03*
D24*
X135257600Y-58126800D03*
X135257600Y-60226800D03*
D11*
X139220000Y-54061200D03*
X139220000Y-55961200D03*
X133378000Y-58226800D03*
X133378000Y-60126800D03*
D25*
X131396800Y-58126000D03*
X131396800Y-60126000D03*
D16*
X125417600Y-63037600D03*
D17*
X127957600Y-63037600D03*
D21*
X122362000Y-57094000D03*
X127762000Y-57094000D03*
D20*
X122041600Y-52318800D03*
X119141600Y-52318800D03*
D19*
X119040800Y-49982000D03*
X122040800Y-49982000D03*
D11*
X117543600Y-62036800D03*
X117543600Y-63936800D03*
D23*
X119794000Y-63885200D03*
X121694000Y-63885200D03*
X120744000Y-61885200D03*
D11*
X117137200Y-58226800D03*
X117137200Y-60126800D03*
D22*
X119220000Y-60372000D03*
X119220000Y-57372000D03*
D16*
X114444800Y-63088400D03*
D17*
X111904800Y-63088400D03*
D18*
X121150400Y-47054400D03*
X121150400Y-43054400D03*
D16*
X125468400Y-41955600D03*
D17*
X128008400Y-41955600D03*
D14*
X117500000Y-45000000D03*
X112500000Y-45000000D03*
D15*
X126382800Y-45816400D03*
X126382800Y-51216400D03*
D13*
X114830800Y-50083600D03*
X116730800Y-50083600D03*
D12*
X111643200Y-51988600D03*
X111643200Y-53258600D03*
X111643200Y-54528600D03*
X111643200Y-55798600D03*
X117043200Y-55798600D03*
X117043200Y-54528600D03*
X117043200Y-53258600D03*
X117043200Y-51988600D03*
D24*
X115257600Y-58126800D03*
X115257600Y-60226800D03*
D11*
X119220000Y-54061200D03*
X119220000Y-55961200D03*
X113378000Y-58226800D03*
X113378000Y-60126800D03*
D25*
X111396800Y-58126000D03*
X111396800Y-60126000D03*
D16*
X105417600Y-63037600D03*
D17*
X107957600Y-63037600D03*
D21*
X102362000Y-57094000D03*
X107762000Y-57094000D03*
D20*
X102041600Y-52318800D03*
X99141600Y-52318800D03*
D19*
X99040800Y-49982000D03*
X102040800Y-49982000D03*
D11*
X97543600Y-62036800D03*
X97543600Y-63936800D03*
D23*
X99794000Y-63885200D03*
X101694000Y-63885200D03*
X100744000Y-61885200D03*
D11*
X97137200Y-58226800D03*
X97137200Y-60126800D03*
D22*
X99220000Y-60372000D03*
X99220000Y-57372000D03*
D16*
X94444800Y-63088400D03*
D17*
X91904800Y-63088400D03*
D18*
X101150400Y-47054400D03*
X101150400Y-43054400D03*
D16*
X105468400Y-41955600D03*
D17*
X108008400Y-41955600D03*
D14*
X97500000Y-45000000D03*
X92500000Y-45000000D03*
D15*
X106382800Y-45816400D03*
X106382800Y-51216400D03*
D13*
X94830800Y-50083600D03*
X96730800Y-50083600D03*
D12*
X91643200Y-51988600D03*
X91643200Y-53258600D03*
X91643200Y-54528600D03*
X91643200Y-55798600D03*
X97043200Y-55798600D03*
X97043200Y-54528600D03*
X97043200Y-53258600D03*
X97043200Y-51988600D03*
D24*
X95257600Y-58126800D03*
X95257600Y-60226800D03*
D11*
X99220000Y-54061200D03*
X99220000Y-55961200D03*
X93378000Y-58226800D03*
X93378000Y-60126800D03*
D25*
X91396800Y-58126000D03*
X91396800Y-60126000D03*
X71396800Y-58126000D03*
X71396800Y-60126000D03*
D21*
X82362000Y-57094000D03*
X87762000Y-57094000D03*
D15*
X86382800Y-45816400D03*
X86382800Y-51216400D03*
D19*
X79040800Y-49982000D03*
X82040800Y-49982000D03*
D22*
X79220000Y-60372000D03*
X79220000Y-57372000D03*
D24*
X75257600Y-58126800D03*
X75257600Y-60226800D03*
D14*
X77500000Y-45000000D03*
X72500000Y-45000000D03*
D16*
X85417600Y-63037600D03*
D17*
X87957600Y-63037600D03*
D16*
X74444800Y-63088400D03*
D17*
X71904800Y-63088400D03*
D16*
X85468400Y-41955600D03*
D17*
X88008400Y-41955600D03*
D23*
X79794000Y-63885200D03*
X81694000Y-63885200D03*
X80744000Y-61885200D03*
D13*
X74830800Y-50083600D03*
X76730800Y-50083600D03*
D20*
X82041600Y-52318800D03*
X79141600Y-52318800D03*
D11*
X79220000Y-54061200D03*
X79220000Y-55961200D03*
X73378000Y-58226800D03*
X73378000Y-60126800D03*
X77137200Y-58226800D03*
X77137200Y-60126800D03*
X77543600Y-62036800D03*
X77543600Y-63936800D03*
D12*
X71643200Y-51988600D03*
X71643200Y-53258600D03*
X71643200Y-54528600D03*
X71643200Y-55798600D03*
X77043200Y-55798600D03*
X77043200Y-54528600D03*
X77043200Y-53258600D03*
X77043200Y-51988600D03*
D18*
X81150400Y-47054400D03*
X81150400Y-43054400D03*
D26*
X140083600Y-134126000D03*
X141506000Y-134126000D03*
X140794800Y-134126000D03*
X133987600Y-129503200D03*
X133000000Y-128500000D03*
X133500000Y-129000000D03*
X80083600Y-134126000D03*
X80794800Y-134126000D03*
X73987600Y-129503200D03*
X73000000Y-128500000D03*
X81506000Y-134126000D03*
X73500000Y-129000000D03*
X153500000Y-129000000D03*
X153987600Y-129503200D03*
X161506000Y-134126000D03*
X160083600Y-134126000D03*
X160794800Y-134126000D03*
X153000000Y-128500000D03*
X93987600Y-129503200D03*
X101506000Y-134126000D03*
X100083600Y-134126000D03*
X93000000Y-128500000D03*
X93500000Y-129000000D03*
X100794800Y-134126000D03*
X120083600Y-134126000D03*
X113987600Y-129503200D03*
X120794800Y-134126000D03*
X113500000Y-129000000D03*
X121506000Y-134126000D03*
X113000000Y-128500000D03*
X140083600Y-109126000D03*
X141506000Y-109126000D03*
X140794800Y-109126000D03*
X133987600Y-104503200D03*
X133000000Y-103500000D03*
X133500000Y-104000000D03*
X80083600Y-109126000D03*
X80794800Y-109126000D03*
X73987600Y-104503200D03*
X73000000Y-103500000D03*
X81506000Y-109126000D03*
X73500000Y-104000000D03*
X153500000Y-104000000D03*
X153987600Y-104503200D03*
X161506000Y-109126000D03*
X160083600Y-109126000D03*
X160794800Y-109126000D03*
X153000000Y-103500000D03*
X93987600Y-104503200D03*
X101506000Y-109126000D03*
X100083600Y-109126000D03*
X93000000Y-103500000D03*
X93500000Y-104000000D03*
X100794800Y-109126000D03*
X120083600Y-109126000D03*
X113987600Y-104503200D03*
X120794800Y-109126000D03*
X113500000Y-104000000D03*
X121506000Y-109126000D03*
X113000000Y-103500000D03*
X140083600Y-84126000D03*
X141506000Y-84126000D03*
X140794800Y-84126000D03*
X133987600Y-79503200D03*
X133000000Y-78500000D03*
X133500000Y-79000000D03*
X80083600Y-84126000D03*
X80794800Y-84126000D03*
X73987600Y-79503200D03*
X73000000Y-78500000D03*
X81506000Y-84126000D03*
X73500000Y-79000000D03*
X153500000Y-79000000D03*
X153987600Y-79503200D03*
X161506000Y-84126000D03*
X160083600Y-84126000D03*
X160794800Y-84126000D03*
X153000000Y-78500000D03*
X93987600Y-79503200D03*
X101506000Y-84126000D03*
X100083600Y-84126000D03*
X93000000Y-78500000D03*
X93500000Y-79000000D03*
X100794800Y-84126000D03*
X120083600Y-84126000D03*
X113987600Y-79503200D03*
X120794800Y-84126000D03*
X113500000Y-79000000D03*
X121506000Y-84126000D03*
X113000000Y-78500000D03*
X160083600Y-59126000D03*
X153500000Y-54000000D03*
X153987600Y-54503200D03*
X160794800Y-59126000D03*
X161506000Y-59126000D03*
X153000000Y-53500000D03*
X140083600Y-59126000D03*
X133500000Y-54000000D03*
X133987600Y-54503200D03*
X140794800Y-59126000D03*
X141506000Y-59126000D03*
X133000000Y-53500000D03*
X120083600Y-59126000D03*
X113500000Y-54000000D03*
X113987600Y-54503200D03*
X120794800Y-59126000D03*
X121506000Y-59126000D03*
X113000000Y-53500000D03*
X100083600Y-59126000D03*
X93500000Y-54000000D03*
X93987600Y-54503200D03*
X100794800Y-59126000D03*
X101506000Y-59126000D03*
X93000000Y-53500000D03*
X81506000Y-59126000D03*
X80794800Y-59126000D03*
X73987600Y-54503200D03*
X73500000Y-54000000D03*
X73000000Y-53500000D03*
X80083600Y-59126000D03*
D27*
X147682800Y-126216400D02*
X148008400Y-125890800D01*
X146382800Y-126216400D02*
X147682800Y-126216400D01*
X145148400Y-124982000D02*
X146382800Y-126216400D01*
X142040800Y-124982000D02*
X145148400Y-124982000D01*
X147762000Y-132094000D02*
X147762000Y-137842000D01*
X147762000Y-137842000D02*
X147957600Y-138037600D01*
D28*
X151396800Y-135126000D02*
X151521800Y-135126000D01*
X151396800Y-135126000D02*
X153377200Y-135126000D01*
X153377200Y-135126000D02*
X153378000Y-135126800D01*
X151521800Y-135126000D02*
X152362000Y-134285800D01*
X152362000Y-134285800D02*
X152362000Y-132246400D01*
X153000000Y-131608400D02*
X153000000Y-130366800D01*
X152701400Y-130798600D02*
X153000000Y-130500000D01*
X152362000Y-132246400D02*
X153000000Y-131608400D01*
X153000000Y-130500000D02*
X153000000Y-130366800D01*
X151643200Y-130798600D02*
X152701400Y-130798600D01*
D27*
X153000000Y-128500000D02*
X153500000Y-129000000D01*
X151643200Y-128258600D02*
X152758600Y-128258600D01*
D28*
X153000000Y-130366800D02*
X153000000Y-128500000D01*
D27*
X152758600Y-128258600D02*
X153000000Y-128500000D01*
D28*
X161694000Y-138185200D02*
X161694000Y-138885200D01*
X161694000Y-136400198D02*
X161694000Y-138185200D01*
X160665802Y-135372000D02*
X161694000Y-136400198D01*
D27*
X160794800Y-134126000D02*
X161506000Y-134126000D01*
X159466000Y-134126000D02*
X160083600Y-134126000D01*
X159220000Y-135372000D02*
X159220000Y-134372000D01*
X160083600Y-134126000D02*
X160794800Y-134126000D01*
D28*
X159220000Y-135372000D02*
X160665802Y-135372000D01*
D27*
X159220000Y-134372000D02*
X159466000Y-134126000D01*
X167762000Y-132094000D02*
X167762000Y-137842000D01*
X167762000Y-137842000D02*
X167957600Y-138037600D01*
D28*
X153500000Y-129000000D02*
X153500000Y-129015600D01*
D27*
X153500000Y-129015600D02*
X153987600Y-129503200D01*
X148008400Y-125890800D02*
X148008400Y-118157681D01*
X148008400Y-118157681D02*
X148008400Y-116955600D01*
X162040800Y-124982000D02*
X165148400Y-124982000D01*
X167682800Y-126216400D02*
X168008400Y-125890800D01*
X165148400Y-124982000D02*
X166382800Y-126216400D01*
X166382800Y-126216400D02*
X167682800Y-126216400D01*
X168008400Y-118157681D02*
X168008400Y-116955600D01*
X168008400Y-125890800D02*
X168008400Y-118157681D01*
D28*
X113377200Y-135126000D02*
X113378000Y-135126800D01*
X111396800Y-135126000D02*
X113377200Y-135126000D01*
X111396800Y-135126000D02*
X111521800Y-135126000D01*
X111521800Y-135126000D02*
X112362000Y-134285800D01*
X112362000Y-134285800D02*
X112362000Y-132246400D01*
X111643200Y-130798600D02*
X112701400Y-130798600D01*
X113000000Y-130500000D02*
X113000000Y-130366800D01*
X113000000Y-131608400D02*
X113000000Y-130366800D01*
X112362000Y-132246400D02*
X113000000Y-131608400D01*
X112701400Y-130798600D02*
X113000000Y-130500000D01*
D27*
X113500000Y-129015600D02*
X113987600Y-129503200D01*
X112758600Y-128258600D02*
X113000000Y-128500000D01*
D28*
X113000000Y-130366800D02*
X113000000Y-128500000D01*
X113500000Y-129000000D02*
X113500000Y-129015600D01*
D27*
X113000000Y-128500000D02*
X113500000Y-129000000D01*
X111643200Y-128258600D02*
X112758600Y-128258600D01*
X108008400Y-118157681D02*
X108008400Y-116955600D01*
X108008400Y-125890800D02*
X108008400Y-118157681D01*
X125148400Y-124982000D02*
X126382800Y-126216400D01*
X122040800Y-124982000D02*
X125148400Y-124982000D01*
X128008400Y-118157681D02*
X128008400Y-116955600D01*
X127682800Y-126216400D02*
X128008400Y-125890800D01*
X126382800Y-126216400D02*
X127682800Y-126216400D01*
X128008400Y-125890800D02*
X128008400Y-118157681D01*
D28*
X133377200Y-135126000D02*
X133378000Y-135126800D01*
X131396800Y-135126000D02*
X133377200Y-135126000D01*
X131521800Y-135126000D02*
X132362000Y-134285800D01*
X131396800Y-135126000D02*
X131521800Y-135126000D01*
X132362000Y-134285800D02*
X132362000Y-132246400D01*
X131643200Y-130798600D02*
X132701400Y-130798600D01*
X132701400Y-130798600D02*
X133000000Y-130500000D01*
X132362000Y-132246400D02*
X133000000Y-131608400D01*
X133000000Y-131608400D02*
X133000000Y-130366800D01*
X133000000Y-130500000D02*
X133000000Y-130366800D01*
D27*
X131643200Y-128258600D02*
X132758600Y-128258600D01*
X133000000Y-128500000D02*
X133500000Y-129000000D01*
X132758600Y-128258600D02*
X133000000Y-128500000D01*
X133500000Y-129015600D02*
X133987600Y-129503200D01*
D28*
X133500000Y-129000000D02*
X133500000Y-129015600D01*
X133000000Y-130366800D02*
X133000000Y-128500000D01*
D27*
X139466000Y-134126000D02*
X140083600Y-134126000D01*
D28*
X140665802Y-135372000D02*
X141694000Y-136400198D01*
X139220000Y-135372000D02*
X140665802Y-135372000D01*
D27*
X140083600Y-134126000D02*
X140794800Y-134126000D01*
X140794800Y-134126000D02*
X141506000Y-134126000D01*
X139220000Y-134372000D02*
X139466000Y-134126000D01*
X139220000Y-135372000D02*
X139220000Y-134372000D01*
D28*
X141694000Y-136400198D02*
X141694000Y-138185200D01*
X141694000Y-138185200D02*
X141694000Y-138885200D01*
D27*
X119466000Y-134126000D02*
X120083600Y-134126000D01*
D28*
X120665802Y-135372000D02*
X121694000Y-136400198D01*
D27*
X119220000Y-134372000D02*
X119466000Y-134126000D01*
X120794800Y-134126000D02*
X121506000Y-134126000D01*
D28*
X119220000Y-135372000D02*
X120665802Y-135372000D01*
D27*
X119220000Y-135372000D02*
X119220000Y-134372000D01*
X120083600Y-134126000D02*
X120794800Y-134126000D01*
D28*
X121694000Y-138185200D02*
X121694000Y-138885200D01*
D27*
X127762000Y-137842000D02*
X127957600Y-138037600D01*
X127762000Y-132094000D02*
X127762000Y-137842000D01*
D28*
X121694000Y-136400198D02*
X121694000Y-138185200D01*
X81694000Y-136400198D02*
X81694000Y-138185200D01*
X81694000Y-138185200D02*
X81694000Y-138885200D01*
D27*
X79466000Y-134126000D02*
X80083600Y-134126000D01*
X79220000Y-134372000D02*
X79466000Y-134126000D01*
D28*
X80665802Y-135372000D02*
X81694000Y-136400198D01*
D27*
X80794800Y-134126000D02*
X81506000Y-134126000D01*
D28*
X79220000Y-135372000D02*
X80665802Y-135372000D01*
D27*
X80083600Y-134126000D02*
X80794800Y-134126000D01*
X79220000Y-135372000D02*
X79220000Y-134372000D01*
D28*
X73377200Y-135126000D02*
X73378000Y-135126800D01*
X71521800Y-135126000D02*
X72362000Y-134285800D01*
X71396800Y-135126000D02*
X73377200Y-135126000D01*
X71396800Y-135126000D02*
X71521800Y-135126000D01*
X72362000Y-134285800D02*
X72362000Y-132246400D01*
X73000000Y-131608400D02*
X73000000Y-130366800D01*
X73000000Y-130500000D02*
X73000000Y-130366800D01*
X72362000Y-132246400D02*
X73000000Y-131608400D01*
X72701400Y-130798600D02*
X73000000Y-130500000D01*
D27*
X107682800Y-126216400D02*
X108008400Y-125890800D01*
X106382800Y-126216400D02*
X107682800Y-126216400D01*
X102040800Y-124982000D02*
X105148400Y-124982000D01*
X105148400Y-124982000D02*
X106382800Y-126216400D01*
X100083600Y-134126000D02*
X100794800Y-134126000D01*
X100794800Y-134126000D02*
X101506000Y-134126000D01*
X107762000Y-132094000D02*
X107762000Y-137842000D01*
D28*
X101694000Y-138185200D02*
X101694000Y-138885200D01*
D27*
X107762000Y-137842000D02*
X107957600Y-138037600D01*
D28*
X101694000Y-136400198D02*
X101694000Y-138185200D01*
D27*
X99220000Y-134372000D02*
X99466000Y-134126000D01*
X99466000Y-134126000D02*
X100083600Y-134126000D01*
D28*
X99220000Y-135372000D02*
X100665802Y-135372000D01*
D27*
X99220000Y-135372000D02*
X99220000Y-134372000D01*
D28*
X100665802Y-135372000D02*
X101694000Y-136400198D01*
X71643200Y-130798600D02*
X72701400Y-130798600D01*
D27*
X71643200Y-128258600D02*
X72758600Y-128258600D01*
D28*
X73500000Y-129000000D02*
X73500000Y-129015600D01*
D27*
X73000000Y-128500000D02*
X73500000Y-129000000D01*
X72758600Y-128258600D02*
X73000000Y-128500000D01*
D28*
X73000000Y-130366800D02*
X73000000Y-128500000D01*
D27*
X73500000Y-129015600D02*
X73987600Y-129503200D01*
X87682800Y-126216400D02*
X88008400Y-125890800D01*
X86382800Y-126216400D02*
X87682800Y-126216400D01*
X85148400Y-124982000D02*
X86382800Y-126216400D01*
X82040800Y-124982000D02*
X85148400Y-124982000D01*
D28*
X93000000Y-130366800D02*
X93000000Y-128500000D01*
D27*
X93000000Y-128500000D02*
X93500000Y-129000000D01*
X93500000Y-129015600D02*
X93987600Y-129503200D01*
D28*
X93500000Y-129000000D02*
X93500000Y-129015600D01*
D27*
X91643200Y-128258600D02*
X92758600Y-128258600D01*
X92758600Y-128258600D02*
X93000000Y-128500000D01*
X88008400Y-125890800D02*
X88008400Y-118157681D01*
X88008400Y-118157681D02*
X88008400Y-116955600D01*
D28*
X93000000Y-131608400D02*
X93000000Y-130366800D01*
X92701400Y-130798600D02*
X93000000Y-130500000D01*
X93000000Y-130500000D02*
X93000000Y-130366800D01*
X92362000Y-132246400D02*
X93000000Y-131608400D01*
X91643200Y-130798600D02*
X92701400Y-130798600D01*
X92362000Y-134285800D02*
X92362000Y-132246400D01*
X91396800Y-135126000D02*
X91521800Y-135126000D01*
X91521800Y-135126000D02*
X92362000Y-134285800D01*
D27*
X87762000Y-132094000D02*
X87762000Y-137842000D01*
X87762000Y-137842000D02*
X87957600Y-138037600D01*
D28*
X93377200Y-135126000D02*
X93378000Y-135126800D01*
X91396800Y-135126000D02*
X93377200Y-135126000D01*
D27*
X147682800Y-101216400D02*
X148008400Y-100890800D01*
X146382800Y-101216400D02*
X147682800Y-101216400D01*
X145148400Y-99982000D02*
X146382800Y-101216400D01*
X142040800Y-99982000D02*
X145148400Y-99982000D01*
X147762000Y-107094000D02*
X147762000Y-112842000D01*
X147762000Y-112842000D02*
X147957600Y-113037600D01*
D28*
X151396800Y-110126000D02*
X151521800Y-110126000D01*
X151396800Y-110126000D02*
X153377200Y-110126000D01*
X153377200Y-110126000D02*
X153378000Y-110126800D01*
X151521800Y-110126000D02*
X152362000Y-109285800D01*
X152362000Y-109285800D02*
X152362000Y-107246400D01*
X153000000Y-106608400D02*
X153000000Y-105366800D01*
X152701400Y-105798600D02*
X153000000Y-105500000D01*
X152362000Y-107246400D02*
X153000000Y-106608400D01*
X153000000Y-105500000D02*
X153000000Y-105366800D01*
X151643200Y-105798600D02*
X152701400Y-105798600D01*
D27*
X153000000Y-103500000D02*
X153500000Y-104000000D01*
X151643200Y-103258600D02*
X152758600Y-103258600D01*
D28*
X153000000Y-105366800D02*
X153000000Y-103500000D01*
D27*
X152758600Y-103258600D02*
X153000000Y-103500000D01*
D28*
X161694000Y-113185200D02*
X161694000Y-113885200D01*
X161694000Y-111400198D02*
X161694000Y-113185200D01*
X160665802Y-110372000D02*
X161694000Y-111400198D01*
D27*
X160794800Y-109126000D02*
X161506000Y-109126000D01*
X159466000Y-109126000D02*
X160083600Y-109126000D01*
X159220000Y-110372000D02*
X159220000Y-109372000D01*
X160083600Y-109126000D02*
X160794800Y-109126000D01*
D28*
X159220000Y-110372000D02*
X160665802Y-110372000D01*
D27*
X159220000Y-109372000D02*
X159466000Y-109126000D01*
X167762000Y-107094000D02*
X167762000Y-112842000D01*
X167762000Y-112842000D02*
X167957600Y-113037600D01*
D28*
X153500000Y-104000000D02*
X153500000Y-104015600D01*
D27*
X153500000Y-104015600D02*
X153987600Y-104503200D01*
X148008400Y-100890800D02*
X148008400Y-93157681D01*
X148008400Y-93157681D02*
X148008400Y-91955600D01*
X162040800Y-99982000D02*
X165148400Y-99982000D01*
X167682800Y-101216400D02*
X168008400Y-100890800D01*
X165148400Y-99982000D02*
X166382800Y-101216400D01*
X166382800Y-101216400D02*
X167682800Y-101216400D01*
X168008400Y-93157681D02*
X168008400Y-91955600D01*
X168008400Y-100890800D02*
X168008400Y-93157681D01*
D28*
X113377200Y-110126000D02*
X113378000Y-110126800D01*
X111396800Y-110126000D02*
X113377200Y-110126000D01*
X111396800Y-110126000D02*
X111521800Y-110126000D01*
X111521800Y-110126000D02*
X112362000Y-109285800D01*
X112362000Y-109285800D02*
X112362000Y-107246400D01*
X111643200Y-105798600D02*
X112701400Y-105798600D01*
X113000000Y-105500000D02*
X113000000Y-105366800D01*
X113000000Y-106608400D02*
X113000000Y-105366800D01*
X112362000Y-107246400D02*
X113000000Y-106608400D01*
X112701400Y-105798600D02*
X113000000Y-105500000D01*
D27*
X113500000Y-104015600D02*
X113987600Y-104503200D01*
X112758600Y-103258600D02*
X113000000Y-103500000D01*
D28*
X113000000Y-105366800D02*
X113000000Y-103500000D01*
X113500000Y-104000000D02*
X113500000Y-104015600D01*
D27*
X113000000Y-103500000D02*
X113500000Y-104000000D01*
X111643200Y-103258600D02*
X112758600Y-103258600D01*
X108008400Y-93157681D02*
X108008400Y-91955600D01*
X108008400Y-100890800D02*
X108008400Y-93157681D01*
X125148400Y-99982000D02*
X126382800Y-101216400D01*
X122040800Y-99982000D02*
X125148400Y-99982000D01*
X128008400Y-93157681D02*
X128008400Y-91955600D01*
X127682800Y-101216400D02*
X128008400Y-100890800D01*
X126382800Y-101216400D02*
X127682800Y-101216400D01*
X128008400Y-100890800D02*
X128008400Y-93157681D01*
D28*
X133377200Y-110126000D02*
X133378000Y-110126800D01*
X131396800Y-110126000D02*
X133377200Y-110126000D01*
X131521800Y-110126000D02*
X132362000Y-109285800D01*
X131396800Y-110126000D02*
X131521800Y-110126000D01*
X132362000Y-109285800D02*
X132362000Y-107246400D01*
X131643200Y-105798600D02*
X132701400Y-105798600D01*
X132701400Y-105798600D02*
X133000000Y-105500000D01*
X132362000Y-107246400D02*
X133000000Y-106608400D01*
X133000000Y-106608400D02*
X133000000Y-105366800D01*
X133000000Y-105500000D02*
X133000000Y-105366800D01*
D27*
X131643200Y-103258600D02*
X132758600Y-103258600D01*
X133000000Y-103500000D02*
X133500000Y-104000000D01*
X132758600Y-103258600D02*
X133000000Y-103500000D01*
X133500000Y-104015600D02*
X133987600Y-104503200D01*
D28*
X133500000Y-104000000D02*
X133500000Y-104015600D01*
X133000000Y-105366800D02*
X133000000Y-103500000D01*
D27*
X139466000Y-109126000D02*
X140083600Y-109126000D01*
D28*
X140665802Y-110372000D02*
X141694000Y-111400198D01*
X139220000Y-110372000D02*
X140665802Y-110372000D01*
D27*
X140083600Y-109126000D02*
X140794800Y-109126000D01*
X140794800Y-109126000D02*
X141506000Y-109126000D01*
X139220000Y-109372000D02*
X139466000Y-109126000D01*
X139220000Y-110372000D02*
X139220000Y-109372000D01*
D28*
X141694000Y-111400198D02*
X141694000Y-113185200D01*
X141694000Y-113185200D02*
X141694000Y-113885200D01*
D27*
X119466000Y-109126000D02*
X120083600Y-109126000D01*
D28*
X120665802Y-110372000D02*
X121694000Y-111400198D01*
D27*
X119220000Y-109372000D02*
X119466000Y-109126000D01*
X120794800Y-109126000D02*
X121506000Y-109126000D01*
D28*
X119220000Y-110372000D02*
X120665802Y-110372000D01*
D27*
X119220000Y-110372000D02*
X119220000Y-109372000D01*
X120083600Y-109126000D02*
X120794800Y-109126000D01*
D28*
X121694000Y-113185200D02*
X121694000Y-113885200D01*
D27*
X127762000Y-112842000D02*
X127957600Y-113037600D01*
X127762000Y-107094000D02*
X127762000Y-112842000D01*
D28*
X121694000Y-111400198D02*
X121694000Y-113185200D01*
X81694000Y-111400198D02*
X81694000Y-113185200D01*
X81694000Y-113185200D02*
X81694000Y-113885200D01*
D27*
X79466000Y-109126000D02*
X80083600Y-109126000D01*
X79220000Y-109372000D02*
X79466000Y-109126000D01*
D28*
X80665802Y-110372000D02*
X81694000Y-111400198D01*
D27*
X80794800Y-109126000D02*
X81506000Y-109126000D01*
D28*
X79220000Y-110372000D02*
X80665802Y-110372000D01*
D27*
X80083600Y-109126000D02*
X80794800Y-109126000D01*
X79220000Y-110372000D02*
X79220000Y-109372000D01*
D28*
X73377200Y-110126000D02*
X73378000Y-110126800D01*
X71521800Y-110126000D02*
X72362000Y-109285800D01*
X71396800Y-110126000D02*
X73377200Y-110126000D01*
X71396800Y-110126000D02*
X71521800Y-110126000D01*
X72362000Y-109285800D02*
X72362000Y-107246400D01*
X73000000Y-106608400D02*
X73000000Y-105366800D01*
X73000000Y-105500000D02*
X73000000Y-105366800D01*
X72362000Y-107246400D02*
X73000000Y-106608400D01*
X72701400Y-105798600D02*
X73000000Y-105500000D01*
D27*
X107682800Y-101216400D02*
X108008400Y-100890800D01*
X106382800Y-101216400D02*
X107682800Y-101216400D01*
X102040800Y-99982000D02*
X105148400Y-99982000D01*
X105148400Y-99982000D02*
X106382800Y-101216400D01*
X100083600Y-109126000D02*
X100794800Y-109126000D01*
X100794800Y-109126000D02*
X101506000Y-109126000D01*
X107762000Y-107094000D02*
X107762000Y-112842000D01*
D28*
X101694000Y-113185200D02*
X101694000Y-113885200D01*
D27*
X107762000Y-112842000D02*
X107957600Y-113037600D01*
D28*
X101694000Y-111400198D02*
X101694000Y-113185200D01*
D27*
X99220000Y-109372000D02*
X99466000Y-109126000D01*
X99466000Y-109126000D02*
X100083600Y-109126000D01*
D28*
X99220000Y-110372000D02*
X100665802Y-110372000D01*
D27*
X99220000Y-110372000D02*
X99220000Y-109372000D01*
D28*
X100665802Y-110372000D02*
X101694000Y-111400198D01*
X71643200Y-105798600D02*
X72701400Y-105798600D01*
D27*
X71643200Y-103258600D02*
X72758600Y-103258600D01*
D28*
X73500000Y-104000000D02*
X73500000Y-104015600D01*
D27*
X73000000Y-103500000D02*
X73500000Y-104000000D01*
X72758600Y-103258600D02*
X73000000Y-103500000D01*
D28*
X73000000Y-105366800D02*
X73000000Y-103500000D01*
D27*
X73500000Y-104015600D02*
X73987600Y-104503200D01*
X87682800Y-101216400D02*
X88008400Y-100890800D01*
X86382800Y-101216400D02*
X87682800Y-101216400D01*
X85148400Y-99982000D02*
X86382800Y-101216400D01*
X82040800Y-99982000D02*
X85148400Y-99982000D01*
D28*
X93000000Y-105366800D02*
X93000000Y-103500000D01*
D27*
X93000000Y-103500000D02*
X93500000Y-104000000D01*
X93500000Y-104015600D02*
X93987600Y-104503200D01*
D28*
X93500000Y-104000000D02*
X93500000Y-104015600D01*
D27*
X91643200Y-103258600D02*
X92758600Y-103258600D01*
X92758600Y-103258600D02*
X93000000Y-103500000D01*
X88008400Y-100890800D02*
X88008400Y-93157681D01*
X88008400Y-93157681D02*
X88008400Y-91955600D01*
D28*
X93000000Y-106608400D02*
X93000000Y-105366800D01*
X92701400Y-105798600D02*
X93000000Y-105500000D01*
X93000000Y-105500000D02*
X93000000Y-105366800D01*
X92362000Y-107246400D02*
X93000000Y-106608400D01*
X91643200Y-105798600D02*
X92701400Y-105798600D01*
X92362000Y-109285800D02*
X92362000Y-107246400D01*
X91396800Y-110126000D02*
X91521800Y-110126000D01*
X91521800Y-110126000D02*
X92362000Y-109285800D01*
D27*
X87762000Y-107094000D02*
X87762000Y-112842000D01*
X87762000Y-112842000D02*
X87957600Y-113037600D01*
D28*
X93377200Y-110126000D02*
X93378000Y-110126800D01*
X91396800Y-110126000D02*
X93377200Y-110126000D01*
D27*
X147682800Y-76216400D02*
X148008400Y-75890800D01*
X146382800Y-76216400D02*
X147682800Y-76216400D01*
X145148400Y-74982000D02*
X146382800Y-76216400D01*
X142040800Y-74982000D02*
X145148400Y-74982000D01*
X147762000Y-82094000D02*
X147762000Y-87842000D01*
X147762000Y-87842000D02*
X147957600Y-88037600D01*
D28*
X151396800Y-85126000D02*
X151521800Y-85126000D01*
X151396800Y-85126000D02*
X153377200Y-85126000D01*
X153377200Y-85126000D02*
X153378000Y-85126800D01*
X151521800Y-85126000D02*
X152362000Y-84285800D01*
X152362000Y-84285800D02*
X152362000Y-82246400D01*
X153000000Y-81608400D02*
X153000000Y-80366800D01*
X152701400Y-80798600D02*
X153000000Y-80500000D01*
X152362000Y-82246400D02*
X153000000Y-81608400D01*
X153000000Y-80500000D02*
X153000000Y-80366800D01*
X151643200Y-80798600D02*
X152701400Y-80798600D01*
D27*
X153000000Y-78500000D02*
X153500000Y-79000000D01*
X151643200Y-78258600D02*
X152758600Y-78258600D01*
D28*
X153000000Y-80366800D02*
X153000000Y-78500000D01*
D27*
X152758600Y-78258600D02*
X153000000Y-78500000D01*
D28*
X161694000Y-88185200D02*
X161694000Y-88885200D01*
X161694000Y-86400198D02*
X161694000Y-88185200D01*
X160665802Y-85372000D02*
X161694000Y-86400198D01*
D27*
X160794800Y-84126000D02*
X161506000Y-84126000D01*
X159466000Y-84126000D02*
X160083600Y-84126000D01*
X159220000Y-85372000D02*
X159220000Y-84372000D01*
X160083600Y-84126000D02*
X160794800Y-84126000D01*
D28*
X159220000Y-85372000D02*
X160665802Y-85372000D01*
D27*
X159220000Y-84372000D02*
X159466000Y-84126000D01*
X167762000Y-82094000D02*
X167762000Y-87842000D01*
X167762000Y-87842000D02*
X167957600Y-88037600D01*
D28*
X153500000Y-79000000D02*
X153500000Y-79015600D01*
D27*
X153500000Y-79015600D02*
X153987600Y-79503200D01*
X148008400Y-75890800D02*
X148008400Y-68157681D01*
X148008400Y-68157681D02*
X148008400Y-66955600D01*
X162040800Y-74982000D02*
X165148400Y-74982000D01*
X167682800Y-76216400D02*
X168008400Y-75890800D01*
X165148400Y-74982000D02*
X166382800Y-76216400D01*
X166382800Y-76216400D02*
X167682800Y-76216400D01*
X168008400Y-68157681D02*
X168008400Y-66955600D01*
X168008400Y-75890800D02*
X168008400Y-68157681D01*
D28*
X113377200Y-85126000D02*
X113378000Y-85126800D01*
X111396800Y-85126000D02*
X113377200Y-85126000D01*
X111396800Y-85126000D02*
X111521800Y-85126000D01*
X111521800Y-85126000D02*
X112362000Y-84285800D01*
X112362000Y-84285800D02*
X112362000Y-82246400D01*
X111643200Y-80798600D02*
X112701400Y-80798600D01*
X113000000Y-80500000D02*
X113000000Y-80366800D01*
X113000000Y-81608400D02*
X113000000Y-80366800D01*
X112362000Y-82246400D02*
X113000000Y-81608400D01*
X112701400Y-80798600D02*
X113000000Y-80500000D01*
D27*
X113500000Y-79015600D02*
X113987600Y-79503200D01*
X112758600Y-78258600D02*
X113000000Y-78500000D01*
D28*
X113000000Y-80366800D02*
X113000000Y-78500000D01*
X113500000Y-79000000D02*
X113500000Y-79015600D01*
D27*
X113000000Y-78500000D02*
X113500000Y-79000000D01*
X111643200Y-78258600D02*
X112758600Y-78258600D01*
X108008400Y-68157681D02*
X108008400Y-66955600D01*
X108008400Y-75890800D02*
X108008400Y-68157681D01*
X125148400Y-74982000D02*
X126382800Y-76216400D01*
X122040800Y-74982000D02*
X125148400Y-74982000D01*
X128008400Y-68157681D02*
X128008400Y-66955600D01*
X127682800Y-76216400D02*
X128008400Y-75890800D01*
X126382800Y-76216400D02*
X127682800Y-76216400D01*
X128008400Y-75890800D02*
X128008400Y-68157681D01*
D28*
X133377200Y-85126000D02*
X133378000Y-85126800D01*
X131396800Y-85126000D02*
X133377200Y-85126000D01*
X131521800Y-85126000D02*
X132362000Y-84285800D01*
X131396800Y-85126000D02*
X131521800Y-85126000D01*
X132362000Y-84285800D02*
X132362000Y-82246400D01*
X131643200Y-80798600D02*
X132701400Y-80798600D01*
X132701400Y-80798600D02*
X133000000Y-80500000D01*
X132362000Y-82246400D02*
X133000000Y-81608400D01*
X133000000Y-81608400D02*
X133000000Y-80366800D01*
X133000000Y-80500000D02*
X133000000Y-80366800D01*
D27*
X131643200Y-78258600D02*
X132758600Y-78258600D01*
X133000000Y-78500000D02*
X133500000Y-79000000D01*
X132758600Y-78258600D02*
X133000000Y-78500000D01*
X133500000Y-79015600D02*
X133987600Y-79503200D01*
D28*
X133500000Y-79000000D02*
X133500000Y-79015600D01*
X133000000Y-80366800D02*
X133000000Y-78500000D01*
D27*
X139466000Y-84126000D02*
X140083600Y-84126000D01*
D28*
X140665802Y-85372000D02*
X141694000Y-86400198D01*
X139220000Y-85372000D02*
X140665802Y-85372000D01*
D27*
X140083600Y-84126000D02*
X140794800Y-84126000D01*
X140794800Y-84126000D02*
X141506000Y-84126000D01*
X139220000Y-84372000D02*
X139466000Y-84126000D01*
X139220000Y-85372000D02*
X139220000Y-84372000D01*
D28*
X141694000Y-86400198D02*
X141694000Y-88185200D01*
X141694000Y-88185200D02*
X141694000Y-88885200D01*
D27*
X119466000Y-84126000D02*
X120083600Y-84126000D01*
D28*
X120665802Y-85372000D02*
X121694000Y-86400198D01*
D27*
X119220000Y-84372000D02*
X119466000Y-84126000D01*
X120794800Y-84126000D02*
X121506000Y-84126000D01*
D28*
X119220000Y-85372000D02*
X120665802Y-85372000D01*
D27*
X119220000Y-85372000D02*
X119220000Y-84372000D01*
X120083600Y-84126000D02*
X120794800Y-84126000D01*
D28*
X121694000Y-88185200D02*
X121694000Y-88885200D01*
D27*
X127762000Y-87842000D02*
X127957600Y-88037600D01*
X127762000Y-82094000D02*
X127762000Y-87842000D01*
D28*
X121694000Y-86400198D02*
X121694000Y-88185200D01*
X81694000Y-86400198D02*
X81694000Y-88185200D01*
X81694000Y-88185200D02*
X81694000Y-88885200D01*
D27*
X79466000Y-84126000D02*
X80083600Y-84126000D01*
X79220000Y-84372000D02*
X79466000Y-84126000D01*
D28*
X80665802Y-85372000D02*
X81694000Y-86400198D01*
D27*
X80794800Y-84126000D02*
X81506000Y-84126000D01*
D28*
X79220000Y-85372000D02*
X80665802Y-85372000D01*
D27*
X80083600Y-84126000D02*
X80794800Y-84126000D01*
X79220000Y-85372000D02*
X79220000Y-84372000D01*
D28*
X73377200Y-85126000D02*
X73378000Y-85126800D01*
X71521800Y-85126000D02*
X72362000Y-84285800D01*
X71396800Y-85126000D02*
X73377200Y-85126000D01*
X71396800Y-85126000D02*
X71521800Y-85126000D01*
X72362000Y-84285800D02*
X72362000Y-82246400D01*
X73000000Y-81608400D02*
X73000000Y-80366800D01*
X73000000Y-80500000D02*
X73000000Y-80366800D01*
X72362000Y-82246400D02*
X73000000Y-81608400D01*
X72701400Y-80798600D02*
X73000000Y-80500000D01*
D27*
X107682800Y-76216400D02*
X108008400Y-75890800D01*
X106382800Y-76216400D02*
X107682800Y-76216400D01*
X102040800Y-74982000D02*
X105148400Y-74982000D01*
X105148400Y-74982000D02*
X106382800Y-76216400D01*
X100083600Y-84126000D02*
X100794800Y-84126000D01*
X100794800Y-84126000D02*
X101506000Y-84126000D01*
X107762000Y-82094000D02*
X107762000Y-87842000D01*
D28*
X101694000Y-88185200D02*
X101694000Y-88885200D01*
D27*
X107762000Y-87842000D02*
X107957600Y-88037600D01*
D28*
X101694000Y-86400198D02*
X101694000Y-88185200D01*
D27*
X99220000Y-84372000D02*
X99466000Y-84126000D01*
X99466000Y-84126000D02*
X100083600Y-84126000D01*
D28*
X99220000Y-85372000D02*
X100665802Y-85372000D01*
D27*
X99220000Y-85372000D02*
X99220000Y-84372000D01*
D28*
X100665802Y-85372000D02*
X101694000Y-86400198D01*
X71643200Y-80798600D02*
X72701400Y-80798600D01*
D27*
X71643200Y-78258600D02*
X72758600Y-78258600D01*
D28*
X73500000Y-79000000D02*
X73500000Y-79015600D01*
D27*
X73000000Y-78500000D02*
X73500000Y-79000000D01*
X72758600Y-78258600D02*
X73000000Y-78500000D01*
D28*
X73000000Y-80366800D02*
X73000000Y-78500000D01*
D27*
X73500000Y-79015600D02*
X73987600Y-79503200D01*
X87682800Y-76216400D02*
X88008400Y-75890800D01*
X86382800Y-76216400D02*
X87682800Y-76216400D01*
X85148400Y-74982000D02*
X86382800Y-76216400D01*
X82040800Y-74982000D02*
X85148400Y-74982000D01*
D28*
X93000000Y-80366800D02*
X93000000Y-78500000D01*
D27*
X93000000Y-78500000D02*
X93500000Y-79000000D01*
X93500000Y-79015600D02*
X93987600Y-79503200D01*
D28*
X93500000Y-79000000D02*
X93500000Y-79015600D01*
D27*
X91643200Y-78258600D02*
X92758600Y-78258600D01*
X92758600Y-78258600D02*
X93000000Y-78500000D01*
X88008400Y-75890800D02*
X88008400Y-68157681D01*
X88008400Y-68157681D02*
X88008400Y-66955600D01*
D28*
X93000000Y-81608400D02*
X93000000Y-80366800D01*
X92701400Y-80798600D02*
X93000000Y-80500000D01*
X93000000Y-80500000D02*
X93000000Y-80366800D01*
X92362000Y-82246400D02*
X93000000Y-81608400D01*
X91643200Y-80798600D02*
X92701400Y-80798600D01*
X92362000Y-84285800D02*
X92362000Y-82246400D01*
X91396800Y-85126000D02*
X91521800Y-85126000D01*
X91521800Y-85126000D02*
X92362000Y-84285800D01*
D27*
X87762000Y-82094000D02*
X87762000Y-87842000D01*
X87762000Y-87842000D02*
X87957600Y-88037600D01*
D28*
X93377200Y-85126000D02*
X93378000Y-85126800D01*
X91396800Y-85126000D02*
X93377200Y-85126000D01*
D27*
X168008400Y-43157681D02*
X168008400Y-41955600D01*
X168008400Y-50890800D02*
X168008400Y-43157681D01*
X165148400Y-49982000D02*
X166382800Y-51216400D01*
X167682800Y-51216400D02*
X168008400Y-50890800D01*
X166382800Y-51216400D02*
X167682800Y-51216400D01*
X162040800Y-49982000D02*
X165148400Y-49982000D01*
X167762000Y-62842000D02*
X167957600Y-63037600D01*
X167762000Y-57094000D02*
X167762000Y-62842000D01*
D28*
X161694000Y-63185200D02*
X161694000Y-63885200D01*
X161694000Y-61400198D02*
X161694000Y-63185200D01*
D27*
X159220000Y-59372000D02*
X159466000Y-59126000D01*
D28*
X160665802Y-60372000D02*
X161694000Y-61400198D01*
D27*
X159466000Y-59126000D02*
X160083600Y-59126000D01*
X159220000Y-60372000D02*
X159220000Y-59372000D01*
X160794800Y-59126000D02*
X161506000Y-59126000D01*
D28*
X159220000Y-60372000D02*
X160665802Y-60372000D01*
D27*
X160083600Y-59126000D02*
X160794800Y-59126000D01*
X151643200Y-53258600D02*
X152758600Y-53258600D01*
D28*
X153500000Y-54000000D02*
X153500000Y-54015600D01*
X153000000Y-55366800D02*
X153000000Y-53500000D01*
D27*
X153500000Y-54015600D02*
X153987600Y-54503200D01*
X153000000Y-53500000D02*
X153500000Y-54000000D01*
X152758600Y-53258600D02*
X153000000Y-53500000D01*
D28*
X151396800Y-60126000D02*
X153377200Y-60126000D01*
X153377200Y-60126000D02*
X153378000Y-60126800D01*
X151521800Y-60126000D02*
X152362000Y-59285800D01*
X151396800Y-60126000D02*
X151521800Y-60126000D01*
X152362000Y-59285800D02*
X152362000Y-57246400D01*
X151643200Y-55798600D02*
X152701400Y-55798600D01*
X152701400Y-55798600D02*
X153000000Y-55500000D01*
X153000000Y-56608400D02*
X153000000Y-55366800D01*
X152362000Y-57246400D02*
X153000000Y-56608400D01*
X153000000Y-55500000D02*
X153000000Y-55366800D01*
D27*
X148008400Y-43157681D02*
X148008400Y-41955600D01*
X148008400Y-50890800D02*
X148008400Y-43157681D01*
X145148400Y-49982000D02*
X146382800Y-51216400D01*
X147682800Y-51216400D02*
X148008400Y-50890800D01*
X146382800Y-51216400D02*
X147682800Y-51216400D01*
X142040800Y-49982000D02*
X145148400Y-49982000D01*
X147762000Y-62842000D02*
X147957600Y-63037600D01*
X147762000Y-57094000D02*
X147762000Y-62842000D01*
D28*
X141694000Y-63185200D02*
X141694000Y-63885200D01*
X141694000Y-61400198D02*
X141694000Y-63185200D01*
D27*
X139220000Y-59372000D02*
X139466000Y-59126000D01*
D28*
X140665802Y-60372000D02*
X141694000Y-61400198D01*
D27*
X139466000Y-59126000D02*
X140083600Y-59126000D01*
X139220000Y-60372000D02*
X139220000Y-59372000D01*
X140794800Y-59126000D02*
X141506000Y-59126000D01*
D28*
X139220000Y-60372000D02*
X140665802Y-60372000D01*
D27*
X140083600Y-59126000D02*
X140794800Y-59126000D01*
X131643200Y-53258600D02*
X132758600Y-53258600D01*
D28*
X133500000Y-54000000D02*
X133500000Y-54015600D01*
X133000000Y-55366800D02*
X133000000Y-53500000D01*
D27*
X133500000Y-54015600D02*
X133987600Y-54503200D01*
X133000000Y-53500000D02*
X133500000Y-54000000D01*
X132758600Y-53258600D02*
X133000000Y-53500000D01*
D28*
X131396800Y-60126000D02*
X133377200Y-60126000D01*
X133377200Y-60126000D02*
X133378000Y-60126800D01*
X131521800Y-60126000D02*
X132362000Y-59285800D01*
X131396800Y-60126000D02*
X131521800Y-60126000D01*
X132362000Y-59285800D02*
X132362000Y-57246400D01*
X131643200Y-55798600D02*
X132701400Y-55798600D01*
X132701400Y-55798600D02*
X133000000Y-55500000D01*
X133000000Y-56608400D02*
X133000000Y-55366800D01*
X132362000Y-57246400D02*
X133000000Y-56608400D01*
X133000000Y-55500000D02*
X133000000Y-55366800D01*
D27*
X128008400Y-43157681D02*
X128008400Y-41955600D01*
X128008400Y-50890800D02*
X128008400Y-43157681D01*
X125148400Y-49982000D02*
X126382800Y-51216400D01*
X127682800Y-51216400D02*
X128008400Y-50890800D01*
X126382800Y-51216400D02*
X127682800Y-51216400D01*
X122040800Y-49982000D02*
X125148400Y-49982000D01*
X127762000Y-62842000D02*
X127957600Y-63037600D01*
X127762000Y-57094000D02*
X127762000Y-62842000D01*
D28*
X121694000Y-63185200D02*
X121694000Y-63885200D01*
X121694000Y-61400198D02*
X121694000Y-63185200D01*
D27*
X119220000Y-59372000D02*
X119466000Y-59126000D01*
D28*
X120665802Y-60372000D02*
X121694000Y-61400198D01*
D27*
X119466000Y-59126000D02*
X120083600Y-59126000D01*
X119220000Y-60372000D02*
X119220000Y-59372000D01*
X120794800Y-59126000D02*
X121506000Y-59126000D01*
D28*
X119220000Y-60372000D02*
X120665802Y-60372000D01*
D27*
X120083600Y-59126000D02*
X120794800Y-59126000D01*
X111643200Y-53258600D02*
X112758600Y-53258600D01*
D28*
X113500000Y-54000000D02*
X113500000Y-54015600D01*
X113000000Y-55366800D02*
X113000000Y-53500000D01*
D27*
X113500000Y-54015600D02*
X113987600Y-54503200D01*
X113000000Y-53500000D02*
X113500000Y-54000000D01*
X112758600Y-53258600D02*
X113000000Y-53500000D01*
D28*
X111396800Y-60126000D02*
X113377200Y-60126000D01*
X113377200Y-60126000D02*
X113378000Y-60126800D01*
X111521800Y-60126000D02*
X112362000Y-59285800D01*
X111396800Y-60126000D02*
X111521800Y-60126000D01*
X112362000Y-59285800D02*
X112362000Y-57246400D01*
X111643200Y-55798600D02*
X112701400Y-55798600D01*
X112701400Y-55798600D02*
X113000000Y-55500000D01*
X113000000Y-56608400D02*
X113000000Y-55366800D01*
X112362000Y-57246400D02*
X113000000Y-56608400D01*
X113000000Y-55500000D02*
X113000000Y-55366800D01*
D27*
X108008400Y-43157681D02*
X108008400Y-41955600D01*
X108008400Y-50890800D02*
X108008400Y-43157681D01*
X105148400Y-49982000D02*
X106382800Y-51216400D01*
X107682800Y-51216400D02*
X108008400Y-50890800D01*
X106382800Y-51216400D02*
X107682800Y-51216400D01*
X102040800Y-49982000D02*
X105148400Y-49982000D01*
X107762000Y-62842000D02*
X107957600Y-63037600D01*
X107762000Y-57094000D02*
X107762000Y-62842000D01*
D28*
X101694000Y-63185200D02*
X101694000Y-63885200D01*
X101694000Y-61400198D02*
X101694000Y-63185200D01*
D27*
X99220000Y-59372000D02*
X99466000Y-59126000D01*
D28*
X100665802Y-60372000D02*
X101694000Y-61400198D01*
D27*
X99466000Y-59126000D02*
X100083600Y-59126000D01*
X99220000Y-60372000D02*
X99220000Y-59372000D01*
X100794800Y-59126000D02*
X101506000Y-59126000D01*
D28*
X99220000Y-60372000D02*
X100665802Y-60372000D01*
D27*
X100083600Y-59126000D02*
X100794800Y-59126000D01*
X91643200Y-53258600D02*
X92758600Y-53258600D01*
D28*
X93500000Y-54000000D02*
X93500000Y-54015600D01*
X93000000Y-55366800D02*
X93000000Y-53500000D01*
D27*
X93500000Y-54015600D02*
X93987600Y-54503200D01*
X93000000Y-53500000D02*
X93500000Y-54000000D01*
X92758600Y-53258600D02*
X93000000Y-53500000D01*
D28*
X91396800Y-60126000D02*
X93377200Y-60126000D01*
X93377200Y-60126000D02*
X93378000Y-60126800D01*
X91521800Y-60126000D02*
X92362000Y-59285800D01*
X91396800Y-60126000D02*
X91521800Y-60126000D01*
X92362000Y-59285800D02*
X92362000Y-57246400D01*
X91643200Y-55798600D02*
X92701400Y-55798600D01*
X92701400Y-55798600D02*
X93000000Y-55500000D01*
X93000000Y-56608400D02*
X93000000Y-55366800D01*
X92362000Y-57246400D02*
X93000000Y-56608400D01*
X93000000Y-55500000D02*
X93000000Y-55366800D01*
X73000000Y-55500000D02*
X73000000Y-55366800D01*
X73000000Y-55366800D02*
X73000000Y-53500000D01*
X72362000Y-57246400D02*
X73000000Y-56608400D01*
X73000000Y-56608400D02*
X73000000Y-55366800D01*
X72362000Y-59285800D02*
X72362000Y-57246400D01*
X71396800Y-60126000D02*
X71521800Y-60126000D01*
X71521800Y-60126000D02*
X72362000Y-59285800D01*
X71396800Y-60126000D02*
X73377200Y-60126000D01*
X73377200Y-60126000D02*
X73378000Y-60126800D01*
D27*
X80794800Y-59126000D02*
X81506000Y-59126000D01*
X80083600Y-59126000D02*
X80794800Y-59126000D01*
D28*
X79220000Y-60372000D02*
X80665802Y-60372000D01*
X80665802Y-60372000D02*
X81694000Y-61400198D01*
X81694000Y-61400198D02*
X81694000Y-63185200D01*
X81694000Y-63185200D02*
X81694000Y-63885200D01*
X73500000Y-54000000D02*
X73500000Y-54015600D01*
D27*
X73500000Y-54015600D02*
X73987600Y-54503200D01*
X73000000Y-53500000D02*
X73500000Y-54000000D01*
D28*
X72701400Y-55798600D02*
X73000000Y-55500000D01*
X71643200Y-55798600D02*
X72701400Y-55798600D01*
D27*
X72758600Y-53258600D02*
X73000000Y-53500000D01*
X71643200Y-53258600D02*
X72758600Y-53258600D01*
X79466000Y-59126000D02*
X80083600Y-59126000D01*
X79220000Y-60372000D02*
X79220000Y-59372000D01*
X79220000Y-59372000D02*
X79466000Y-59126000D01*
X87762000Y-57094000D02*
X87762000Y-62842000D01*
X87762000Y-62842000D02*
X87957600Y-63037600D01*
X82040800Y-49982000D02*
X85148400Y-49982000D01*
X85148400Y-49982000D02*
X86382800Y-51216400D01*
X86382800Y-51216400D02*
X87682800Y-51216400D01*
X87682800Y-51216400D02*
X88008400Y-50890800D01*
X88008400Y-50890800D02*
X88008400Y-43157681D01*
X88008400Y-43157681D02*
X88008400Y-41955600D01*
X142041600Y-130473600D02*
X142362000Y-130794000D01*
X142362000Y-130794000D02*
X142362000Y-132094000D01*
X142362000Y-133632000D02*
X142362000Y-132094000D01*
X145417600Y-136687600D02*
X142362000Y-133632000D01*
X145417600Y-138037600D02*
X145417600Y-136687600D01*
X142260400Y-132195600D02*
X142362000Y-132094000D01*
X160286800Y-132195600D02*
X162260400Y-132195600D01*
X165417600Y-136687600D02*
X162362000Y-133632000D01*
X162362000Y-133632000D02*
X162362000Y-132094000D01*
X165417600Y-138037600D02*
X165417600Y-136687600D01*
X162260400Y-132195600D02*
X162362000Y-132094000D01*
X162041600Y-130473600D02*
X162362000Y-130794000D01*
X162362000Y-130794000D02*
X162362000Y-132094000D01*
X162041600Y-129249200D02*
X162041600Y-127318800D01*
D28*
X158068200Y-130078600D02*
X161212200Y-130078600D01*
X161212200Y-130078600D02*
X162041600Y-129249200D01*
D27*
X162041600Y-129249200D02*
X162041600Y-130473600D01*
D28*
X157137200Y-133226800D02*
X157137200Y-132626800D01*
X157137200Y-132626800D02*
X157392000Y-132372000D01*
D27*
X160110400Y-132372000D02*
X160286800Y-132195600D01*
D28*
X158170000Y-132372000D02*
X159220000Y-132372000D01*
D27*
X159220000Y-132372000D02*
X160110400Y-132372000D01*
D28*
X157392000Y-132372000D02*
X158170000Y-132372000D01*
X157518200Y-129528600D02*
X158068200Y-130078600D01*
X157043200Y-129528600D02*
X157518200Y-129528600D01*
X117043200Y-129528600D02*
X117518200Y-129528600D01*
X118170000Y-132372000D02*
X119220000Y-132372000D01*
X117392000Y-132372000D02*
X118170000Y-132372000D01*
X118068200Y-130078600D02*
X121212200Y-130078600D01*
D27*
X122041600Y-130473600D02*
X122362000Y-130794000D01*
D28*
X121212200Y-130078600D02*
X122041600Y-129249200D01*
D27*
X122041600Y-129249200D02*
X122041600Y-130473600D01*
X122362000Y-130794000D02*
X122362000Y-132094000D01*
X122041600Y-129249200D02*
X122041600Y-127318800D01*
D28*
X137137200Y-133226800D02*
X137137200Y-132626800D01*
X137137200Y-132626800D02*
X137392000Y-132372000D01*
X137518200Y-129528600D02*
X138068200Y-130078600D01*
X137043200Y-129528600D02*
X137518200Y-129528600D01*
D27*
X142041600Y-129249200D02*
X142041600Y-127318800D01*
X142041600Y-129249200D02*
X142041600Y-130473600D01*
D28*
X141212200Y-130078600D02*
X142041600Y-129249200D01*
D27*
X140286800Y-132195600D02*
X142260400Y-132195600D01*
D28*
X138068200Y-130078600D02*
X141212200Y-130078600D01*
D27*
X140110400Y-132372000D02*
X140286800Y-132195600D01*
X139220000Y-132372000D02*
X140110400Y-132372000D01*
D28*
X137392000Y-132372000D02*
X138170000Y-132372000D01*
X138170000Y-132372000D02*
X139220000Y-132372000D01*
D27*
X122362000Y-133632000D02*
X122362000Y-132094000D01*
X125417600Y-136687600D02*
X122362000Y-133632000D01*
X122260400Y-132195600D02*
X122362000Y-132094000D01*
X125417600Y-138037600D02*
X125417600Y-136687600D01*
X120110400Y-132372000D02*
X120286800Y-132195600D01*
X119220000Y-132372000D02*
X120110400Y-132372000D01*
D28*
X117137200Y-132626800D02*
X117392000Y-132372000D01*
X117518200Y-129528600D02*
X118068200Y-130078600D01*
X117137200Y-133226800D02*
X117137200Y-132626800D01*
D27*
X120286800Y-132195600D02*
X122260400Y-132195600D01*
D28*
X78170000Y-132372000D02*
X79220000Y-132372000D01*
D27*
X79220000Y-132372000D02*
X80110400Y-132372000D01*
D28*
X77392000Y-132372000D02*
X78170000Y-132372000D01*
X77137200Y-132626800D02*
X77392000Y-132372000D01*
X77137200Y-133226800D02*
X77137200Y-132626800D01*
D27*
X102041600Y-129249200D02*
X102041600Y-127318800D01*
D28*
X97043200Y-129528600D02*
X97518200Y-129528600D01*
X97518200Y-129528600D02*
X98068200Y-130078600D01*
X98068200Y-130078600D02*
X101212200Y-130078600D01*
D27*
X102041600Y-130473600D02*
X102362000Y-130794000D01*
X102362000Y-130794000D02*
X102362000Y-132094000D01*
D28*
X101212200Y-130078600D02*
X102041600Y-129249200D01*
D27*
X102041600Y-129249200D02*
X102041600Y-130473600D01*
X99220000Y-132372000D02*
X100110400Y-132372000D01*
X100110400Y-132372000D02*
X100286800Y-132195600D01*
X100286800Y-132195600D02*
X102260400Y-132195600D01*
X102362000Y-133632000D02*
X102362000Y-132094000D01*
X105417600Y-136687600D02*
X102362000Y-133632000D01*
X105417600Y-138037600D02*
X105417600Y-136687600D01*
X102260400Y-132195600D02*
X102362000Y-132094000D01*
D28*
X97137200Y-133226800D02*
X97137200Y-132626800D01*
X98170000Y-132372000D02*
X99220000Y-132372000D01*
X97137200Y-132626800D02*
X97392000Y-132372000D01*
X97392000Y-132372000D02*
X98170000Y-132372000D01*
X77518200Y-129528600D02*
X78068200Y-130078600D01*
X77043200Y-129528600D02*
X77518200Y-129528600D01*
D27*
X82041600Y-129249200D02*
X82041600Y-130473600D01*
D28*
X81212200Y-130078600D02*
X82041600Y-129249200D01*
X78068200Y-130078600D02*
X81212200Y-130078600D01*
D27*
X82041600Y-129249200D02*
X82041600Y-127318800D01*
X82041600Y-130473600D02*
X82362000Y-130794000D01*
X85417600Y-136687600D02*
X82362000Y-133632000D01*
X85417600Y-138037600D02*
X85417600Y-136687600D01*
X82362000Y-133632000D02*
X82362000Y-132094000D01*
X82260400Y-132195600D02*
X82362000Y-132094000D01*
X82362000Y-130794000D02*
X82362000Y-132094000D01*
X80286800Y-132195600D02*
X82260400Y-132195600D01*
X80110400Y-132372000D02*
X80286800Y-132195600D01*
X142041600Y-105473600D02*
X142362000Y-105794000D01*
X142362000Y-105794000D02*
X142362000Y-107094000D01*
X142362000Y-108632000D02*
X142362000Y-107094000D01*
X145417600Y-111687600D02*
X142362000Y-108632000D01*
X145417600Y-113037600D02*
X145417600Y-111687600D01*
X142260400Y-107195600D02*
X142362000Y-107094000D01*
X160286800Y-107195600D02*
X162260400Y-107195600D01*
X165417600Y-111687600D02*
X162362000Y-108632000D01*
X162362000Y-108632000D02*
X162362000Y-107094000D01*
X165417600Y-113037600D02*
X165417600Y-111687600D01*
X162260400Y-107195600D02*
X162362000Y-107094000D01*
X162041600Y-105473600D02*
X162362000Y-105794000D01*
X162362000Y-105794000D02*
X162362000Y-107094000D01*
X162041600Y-104249200D02*
X162041600Y-102318800D01*
D28*
X158068200Y-105078600D02*
X161212200Y-105078600D01*
X161212200Y-105078600D02*
X162041600Y-104249200D01*
D27*
X162041600Y-104249200D02*
X162041600Y-105473600D01*
D28*
X157137200Y-108226800D02*
X157137200Y-107626800D01*
X157137200Y-107626800D02*
X157392000Y-107372000D01*
D27*
X160110400Y-107372000D02*
X160286800Y-107195600D01*
D28*
X158170000Y-107372000D02*
X159220000Y-107372000D01*
D27*
X159220000Y-107372000D02*
X160110400Y-107372000D01*
D28*
X157392000Y-107372000D02*
X158170000Y-107372000D01*
X157518200Y-104528600D02*
X158068200Y-105078600D01*
X157043200Y-104528600D02*
X157518200Y-104528600D01*
X117043200Y-104528600D02*
X117518200Y-104528600D01*
X118170000Y-107372000D02*
X119220000Y-107372000D01*
X117392000Y-107372000D02*
X118170000Y-107372000D01*
X118068200Y-105078600D02*
X121212200Y-105078600D01*
D27*
X122041600Y-105473600D02*
X122362000Y-105794000D01*
D28*
X121212200Y-105078600D02*
X122041600Y-104249200D01*
D27*
X122041600Y-104249200D02*
X122041600Y-105473600D01*
X122362000Y-105794000D02*
X122362000Y-107094000D01*
X122041600Y-104249200D02*
X122041600Y-102318800D01*
D28*
X137137200Y-108226800D02*
X137137200Y-107626800D01*
X137137200Y-107626800D02*
X137392000Y-107372000D01*
X137518200Y-104528600D02*
X138068200Y-105078600D01*
X137043200Y-104528600D02*
X137518200Y-104528600D01*
D27*
X142041600Y-104249200D02*
X142041600Y-102318800D01*
X142041600Y-104249200D02*
X142041600Y-105473600D01*
D28*
X141212200Y-105078600D02*
X142041600Y-104249200D01*
D27*
X140286800Y-107195600D02*
X142260400Y-107195600D01*
D28*
X138068200Y-105078600D02*
X141212200Y-105078600D01*
D27*
X140110400Y-107372000D02*
X140286800Y-107195600D01*
X139220000Y-107372000D02*
X140110400Y-107372000D01*
D28*
X137392000Y-107372000D02*
X138170000Y-107372000D01*
X138170000Y-107372000D02*
X139220000Y-107372000D01*
D27*
X122362000Y-108632000D02*
X122362000Y-107094000D01*
X125417600Y-111687600D02*
X122362000Y-108632000D01*
X122260400Y-107195600D02*
X122362000Y-107094000D01*
X125417600Y-113037600D02*
X125417600Y-111687600D01*
X120110400Y-107372000D02*
X120286800Y-107195600D01*
X119220000Y-107372000D02*
X120110400Y-107372000D01*
D28*
X117137200Y-107626800D02*
X117392000Y-107372000D01*
X117518200Y-104528600D02*
X118068200Y-105078600D01*
X117137200Y-108226800D02*
X117137200Y-107626800D01*
D27*
X120286800Y-107195600D02*
X122260400Y-107195600D01*
D28*
X78170000Y-107372000D02*
X79220000Y-107372000D01*
D27*
X79220000Y-107372000D02*
X80110400Y-107372000D01*
D28*
X77392000Y-107372000D02*
X78170000Y-107372000D01*
X77137200Y-107626800D02*
X77392000Y-107372000D01*
X77137200Y-108226800D02*
X77137200Y-107626800D01*
D27*
X102041600Y-104249200D02*
X102041600Y-102318800D01*
D28*
X97043200Y-104528600D02*
X97518200Y-104528600D01*
X97518200Y-104528600D02*
X98068200Y-105078600D01*
X98068200Y-105078600D02*
X101212200Y-105078600D01*
D27*
X102041600Y-105473600D02*
X102362000Y-105794000D01*
X102362000Y-105794000D02*
X102362000Y-107094000D01*
D28*
X101212200Y-105078600D02*
X102041600Y-104249200D01*
D27*
X102041600Y-104249200D02*
X102041600Y-105473600D01*
X99220000Y-107372000D02*
X100110400Y-107372000D01*
X100110400Y-107372000D02*
X100286800Y-107195600D01*
X100286800Y-107195600D02*
X102260400Y-107195600D01*
X102362000Y-108632000D02*
X102362000Y-107094000D01*
X105417600Y-111687600D02*
X102362000Y-108632000D01*
X105417600Y-113037600D02*
X105417600Y-111687600D01*
X102260400Y-107195600D02*
X102362000Y-107094000D01*
D28*
X97137200Y-108226800D02*
X97137200Y-107626800D01*
X98170000Y-107372000D02*
X99220000Y-107372000D01*
X97137200Y-107626800D02*
X97392000Y-107372000D01*
X97392000Y-107372000D02*
X98170000Y-107372000D01*
X77518200Y-104528600D02*
X78068200Y-105078600D01*
X77043200Y-104528600D02*
X77518200Y-104528600D01*
D27*
X82041600Y-104249200D02*
X82041600Y-105473600D01*
D28*
X81212200Y-105078600D02*
X82041600Y-104249200D01*
X78068200Y-105078600D02*
X81212200Y-105078600D01*
D27*
X82041600Y-104249200D02*
X82041600Y-102318800D01*
X82041600Y-105473600D02*
X82362000Y-105794000D01*
X85417600Y-111687600D02*
X82362000Y-108632000D01*
X85417600Y-113037600D02*
X85417600Y-111687600D01*
X82362000Y-108632000D02*
X82362000Y-107094000D01*
X82260400Y-107195600D02*
X82362000Y-107094000D01*
X82362000Y-105794000D02*
X82362000Y-107094000D01*
X80286800Y-107195600D02*
X82260400Y-107195600D01*
X80110400Y-107372000D02*
X80286800Y-107195600D01*
X142041600Y-80473600D02*
X142362000Y-80794000D01*
X142362000Y-80794000D02*
X142362000Y-82094000D01*
X142362000Y-83632000D02*
X142362000Y-82094000D01*
X145417600Y-86687600D02*
X142362000Y-83632000D01*
X145417600Y-88037600D02*
X145417600Y-86687600D01*
X142260400Y-82195600D02*
X142362000Y-82094000D01*
X160286800Y-82195600D02*
X162260400Y-82195600D01*
X165417600Y-86687600D02*
X162362000Y-83632000D01*
X162362000Y-83632000D02*
X162362000Y-82094000D01*
X165417600Y-88037600D02*
X165417600Y-86687600D01*
X162260400Y-82195600D02*
X162362000Y-82094000D01*
X162041600Y-80473600D02*
X162362000Y-80794000D01*
X162362000Y-80794000D02*
X162362000Y-82094000D01*
X162041600Y-79249200D02*
X162041600Y-77318800D01*
D28*
X158068200Y-80078600D02*
X161212200Y-80078600D01*
X161212200Y-80078600D02*
X162041600Y-79249200D01*
D27*
X162041600Y-79249200D02*
X162041600Y-80473600D01*
D28*
X157137200Y-83226800D02*
X157137200Y-82626800D01*
X157137200Y-82626800D02*
X157392000Y-82372000D01*
D27*
X160110400Y-82372000D02*
X160286800Y-82195600D01*
D28*
X158170000Y-82372000D02*
X159220000Y-82372000D01*
D27*
X159220000Y-82372000D02*
X160110400Y-82372000D01*
D28*
X157392000Y-82372000D02*
X158170000Y-82372000D01*
X157518200Y-79528600D02*
X158068200Y-80078600D01*
X157043200Y-79528600D02*
X157518200Y-79528600D01*
X117043200Y-79528600D02*
X117518200Y-79528600D01*
X118170000Y-82372000D02*
X119220000Y-82372000D01*
X117392000Y-82372000D02*
X118170000Y-82372000D01*
X118068200Y-80078600D02*
X121212200Y-80078600D01*
D27*
X122041600Y-80473600D02*
X122362000Y-80794000D01*
D28*
X121212200Y-80078600D02*
X122041600Y-79249200D01*
D27*
X122041600Y-79249200D02*
X122041600Y-80473600D01*
X122362000Y-80794000D02*
X122362000Y-82094000D01*
X122041600Y-79249200D02*
X122041600Y-77318800D01*
D28*
X137137200Y-83226800D02*
X137137200Y-82626800D01*
X137137200Y-82626800D02*
X137392000Y-82372000D01*
X137518200Y-79528600D02*
X138068200Y-80078600D01*
X137043200Y-79528600D02*
X137518200Y-79528600D01*
D27*
X142041600Y-79249200D02*
X142041600Y-77318800D01*
X142041600Y-79249200D02*
X142041600Y-80473600D01*
D28*
X141212200Y-80078600D02*
X142041600Y-79249200D01*
D27*
X140286800Y-82195600D02*
X142260400Y-82195600D01*
D28*
X138068200Y-80078600D02*
X141212200Y-80078600D01*
D27*
X140110400Y-82372000D02*
X140286800Y-82195600D01*
X139220000Y-82372000D02*
X140110400Y-82372000D01*
D28*
X137392000Y-82372000D02*
X138170000Y-82372000D01*
X138170000Y-82372000D02*
X139220000Y-82372000D01*
D27*
X122362000Y-83632000D02*
X122362000Y-82094000D01*
X125417600Y-86687600D02*
X122362000Y-83632000D01*
X122260400Y-82195600D02*
X122362000Y-82094000D01*
X125417600Y-88037600D02*
X125417600Y-86687600D01*
X120110400Y-82372000D02*
X120286800Y-82195600D01*
X119220000Y-82372000D02*
X120110400Y-82372000D01*
D28*
X117137200Y-82626800D02*
X117392000Y-82372000D01*
X117518200Y-79528600D02*
X118068200Y-80078600D01*
X117137200Y-83226800D02*
X117137200Y-82626800D01*
D27*
X120286800Y-82195600D02*
X122260400Y-82195600D01*
D28*
X78170000Y-82372000D02*
X79220000Y-82372000D01*
D27*
X79220000Y-82372000D02*
X80110400Y-82372000D01*
D28*
X77392000Y-82372000D02*
X78170000Y-82372000D01*
X77137200Y-82626800D02*
X77392000Y-82372000D01*
X77137200Y-83226800D02*
X77137200Y-82626800D01*
D27*
X102041600Y-79249200D02*
X102041600Y-77318800D01*
D28*
X97043200Y-79528600D02*
X97518200Y-79528600D01*
X97518200Y-79528600D02*
X98068200Y-80078600D01*
X98068200Y-80078600D02*
X101212200Y-80078600D01*
D27*
X102041600Y-80473600D02*
X102362000Y-80794000D01*
X102362000Y-80794000D02*
X102362000Y-82094000D01*
D28*
X101212200Y-80078600D02*
X102041600Y-79249200D01*
D27*
X102041600Y-79249200D02*
X102041600Y-80473600D01*
X99220000Y-82372000D02*
X100110400Y-82372000D01*
X100110400Y-82372000D02*
X100286800Y-82195600D01*
X100286800Y-82195600D02*
X102260400Y-82195600D01*
X102362000Y-83632000D02*
X102362000Y-82094000D01*
X105417600Y-86687600D02*
X102362000Y-83632000D01*
X105417600Y-88037600D02*
X105417600Y-86687600D01*
X102260400Y-82195600D02*
X102362000Y-82094000D01*
D28*
X97137200Y-83226800D02*
X97137200Y-82626800D01*
X98170000Y-82372000D02*
X99220000Y-82372000D01*
X97137200Y-82626800D02*
X97392000Y-82372000D01*
X97392000Y-82372000D02*
X98170000Y-82372000D01*
X77518200Y-79528600D02*
X78068200Y-80078600D01*
X77043200Y-79528600D02*
X77518200Y-79528600D01*
D27*
X82041600Y-79249200D02*
X82041600Y-80473600D01*
D28*
X81212200Y-80078600D02*
X82041600Y-79249200D01*
X78068200Y-80078600D02*
X81212200Y-80078600D01*
D27*
X82041600Y-79249200D02*
X82041600Y-77318800D01*
X82041600Y-80473600D02*
X82362000Y-80794000D01*
X85417600Y-86687600D02*
X82362000Y-83632000D01*
X85417600Y-88037600D02*
X85417600Y-86687600D01*
X82362000Y-83632000D02*
X82362000Y-82094000D01*
X82260400Y-82195600D02*
X82362000Y-82094000D01*
X82362000Y-80794000D02*
X82362000Y-82094000D01*
X80286800Y-82195600D02*
X82260400Y-82195600D01*
X80110400Y-82372000D02*
X80286800Y-82195600D01*
X162041600Y-54249200D02*
X162041600Y-52318800D01*
D28*
X157518200Y-54528600D02*
X158068200Y-55078600D01*
X158068200Y-55078600D02*
X161212200Y-55078600D01*
D27*
X159220000Y-57372000D02*
X160110400Y-57372000D01*
D28*
X158170000Y-57372000D02*
X159220000Y-57372000D01*
X157392000Y-57372000D02*
X158170000Y-57372000D01*
D27*
X162362000Y-58632000D02*
X162362000Y-57094000D01*
X165417600Y-61687600D02*
X162362000Y-58632000D01*
X165417600Y-63037600D02*
X165417600Y-61687600D01*
X160286800Y-57195600D02*
X162260400Y-57195600D01*
X162041600Y-55473600D02*
X162362000Y-55794000D01*
X162041600Y-54249200D02*
X162041600Y-55473600D01*
X162362000Y-55794000D02*
X162362000Y-57094000D01*
X160110400Y-57372000D02*
X160286800Y-57195600D01*
X162260400Y-57195600D02*
X162362000Y-57094000D01*
D28*
X161212200Y-55078600D02*
X162041600Y-54249200D01*
X157137200Y-57626800D02*
X157392000Y-57372000D01*
X157137200Y-58226800D02*
X157137200Y-57626800D01*
X157043200Y-54528600D02*
X157518200Y-54528600D01*
D27*
X142041600Y-54249200D02*
X142041600Y-52318800D01*
D28*
X137518200Y-54528600D02*
X138068200Y-55078600D01*
X138068200Y-55078600D02*
X141212200Y-55078600D01*
D27*
X139220000Y-57372000D02*
X140110400Y-57372000D01*
D28*
X138170000Y-57372000D02*
X139220000Y-57372000D01*
X137392000Y-57372000D02*
X138170000Y-57372000D01*
D27*
X142362000Y-58632000D02*
X142362000Y-57094000D01*
X145417600Y-61687600D02*
X142362000Y-58632000D01*
X145417600Y-63037600D02*
X145417600Y-61687600D01*
X140286800Y-57195600D02*
X142260400Y-57195600D01*
X142041600Y-55473600D02*
X142362000Y-55794000D01*
X142041600Y-54249200D02*
X142041600Y-55473600D01*
X142362000Y-55794000D02*
X142362000Y-57094000D01*
X140110400Y-57372000D02*
X140286800Y-57195600D01*
X142260400Y-57195600D02*
X142362000Y-57094000D01*
D28*
X141212200Y-55078600D02*
X142041600Y-54249200D01*
X137137200Y-57626800D02*
X137392000Y-57372000D01*
X137137200Y-58226800D02*
X137137200Y-57626800D01*
X137043200Y-54528600D02*
X137518200Y-54528600D01*
D27*
X122041600Y-54249200D02*
X122041600Y-52318800D01*
D28*
X117518200Y-54528600D02*
X118068200Y-55078600D01*
X118068200Y-55078600D02*
X121212200Y-55078600D01*
D27*
X119220000Y-57372000D02*
X120110400Y-57372000D01*
D28*
X118170000Y-57372000D02*
X119220000Y-57372000D01*
X117392000Y-57372000D02*
X118170000Y-57372000D01*
D27*
X122362000Y-58632000D02*
X122362000Y-57094000D01*
X125417600Y-61687600D02*
X122362000Y-58632000D01*
X125417600Y-63037600D02*
X125417600Y-61687600D01*
X120286800Y-57195600D02*
X122260400Y-57195600D01*
X122041600Y-55473600D02*
X122362000Y-55794000D01*
X122041600Y-54249200D02*
X122041600Y-55473600D01*
X122362000Y-55794000D02*
X122362000Y-57094000D01*
X120110400Y-57372000D02*
X120286800Y-57195600D01*
X122260400Y-57195600D02*
X122362000Y-57094000D01*
D28*
X121212200Y-55078600D02*
X122041600Y-54249200D01*
X117137200Y-57626800D02*
X117392000Y-57372000D01*
X117137200Y-58226800D02*
X117137200Y-57626800D01*
X117043200Y-54528600D02*
X117518200Y-54528600D01*
D27*
X102041600Y-54249200D02*
X102041600Y-52318800D01*
D28*
X97518200Y-54528600D02*
X98068200Y-55078600D01*
X98068200Y-55078600D02*
X101212200Y-55078600D01*
D27*
X99220000Y-57372000D02*
X100110400Y-57372000D01*
D28*
X98170000Y-57372000D02*
X99220000Y-57372000D01*
X97392000Y-57372000D02*
X98170000Y-57372000D01*
D27*
X102362000Y-58632000D02*
X102362000Y-57094000D01*
X105417600Y-61687600D02*
X102362000Y-58632000D01*
X105417600Y-63037600D02*
X105417600Y-61687600D01*
X100286800Y-57195600D02*
X102260400Y-57195600D01*
X102041600Y-55473600D02*
X102362000Y-55794000D01*
X102041600Y-54249200D02*
X102041600Y-55473600D01*
X102362000Y-55794000D02*
X102362000Y-57094000D01*
X100110400Y-57372000D02*
X100286800Y-57195600D01*
X102260400Y-57195600D02*
X102362000Y-57094000D01*
D28*
X101212200Y-55078600D02*
X102041600Y-54249200D01*
X97137200Y-57626800D02*
X97392000Y-57372000D01*
X97137200Y-58226800D02*
X97137200Y-57626800D01*
X97043200Y-54528600D02*
X97518200Y-54528600D01*
D27*
X82041600Y-54249200D02*
X82041600Y-55473600D01*
X82041600Y-55473600D02*
X82362000Y-55794000D01*
X82362000Y-55794000D02*
X82362000Y-57094000D01*
X82041600Y-54249200D02*
X82041600Y-52318800D01*
D28*
X77043200Y-54528600D02*
X77518200Y-54528600D01*
X81212200Y-55078600D02*
X82041600Y-54249200D01*
X77518200Y-54528600D02*
X78068200Y-55078600D01*
X78068200Y-55078600D02*
X81212200Y-55078600D01*
D27*
X80286800Y-57195600D02*
X82260400Y-57195600D01*
X82260400Y-57195600D02*
X82362000Y-57094000D01*
X80110400Y-57372000D02*
X80286800Y-57195600D01*
X79220000Y-57372000D02*
X80110400Y-57372000D01*
D28*
X77137200Y-58226800D02*
X77137200Y-57626800D01*
X77137200Y-57626800D02*
X77392000Y-57372000D01*
X77392000Y-57372000D02*
X78170000Y-57372000D01*
X78170000Y-57372000D02*
X79220000Y-57372000D01*
D27*
X85417600Y-63037600D02*
X85417600Y-61687600D01*
X85417600Y-61687600D02*
X82362000Y-58632000D01*
X82362000Y-58632000D02*
X82362000Y-57094000D01*
X142388400Y-120816400D02*
X141150400Y-122054400D01*
X146382800Y-120816400D02*
X142388400Y-120816400D01*
D28*
X160120000Y-129061200D02*
X161048800Y-128132400D01*
X159220000Y-129061200D02*
X160120000Y-129061200D01*
D27*
X159040800Y-124982000D02*
X160540800Y-124982000D01*
D28*
X161048800Y-128132400D02*
X161048800Y-124474000D01*
D27*
X160540800Y-124982000D02*
X161048800Y-124474000D01*
X146382800Y-117870000D02*
X145468400Y-116955600D01*
X146382800Y-120816400D02*
X146382800Y-117870000D01*
X162388400Y-120816400D02*
X161150400Y-122054400D01*
X166382800Y-120816400D02*
X166382800Y-117870000D01*
X166382800Y-120816400D02*
X162388400Y-120816400D01*
X166382800Y-117870000D02*
X165468400Y-116955600D01*
X161048800Y-124474000D02*
X161048800Y-123906000D01*
X161048800Y-123906000D02*
X161150400Y-123804400D01*
X161150400Y-123804400D02*
X161150400Y-122054400D01*
X122388400Y-120816400D02*
X121150400Y-122054400D01*
X126382800Y-120816400D02*
X122388400Y-120816400D01*
X121150400Y-123804400D02*
X121150400Y-122054400D01*
X121048800Y-123906000D02*
X121150400Y-123804400D01*
D28*
X119220000Y-129061200D02*
X120120000Y-129061200D01*
X120120000Y-129061200D02*
X121048800Y-128132400D01*
X121048800Y-128132400D02*
X121048800Y-124474000D01*
D27*
X119040800Y-124982000D02*
X120540800Y-124982000D01*
X120540800Y-124982000D02*
X121048800Y-124474000D01*
X121048800Y-124474000D02*
X121048800Y-123906000D01*
D28*
X141048800Y-128132400D02*
X141048800Y-124474000D01*
D27*
X141048800Y-124474000D02*
X141048800Y-123906000D01*
X141048800Y-123906000D02*
X141150400Y-123804400D01*
X140540800Y-124982000D02*
X141048800Y-124474000D01*
X126382800Y-117870000D02*
X125468400Y-116955600D01*
X141150400Y-123804400D02*
X141150400Y-122054400D01*
X126382800Y-120816400D02*
X126382800Y-117870000D01*
D28*
X139220000Y-129061200D02*
X140120000Y-129061200D01*
X140120000Y-129061200D02*
X141048800Y-128132400D01*
D27*
X139040800Y-124982000D02*
X140540800Y-124982000D01*
X106382800Y-117870000D02*
X105468400Y-116955600D01*
X106382800Y-120816400D02*
X102388400Y-120816400D01*
X106382800Y-120816400D02*
X106382800Y-117870000D01*
X102388400Y-120816400D02*
X101150400Y-122054400D01*
D28*
X101048800Y-128132400D02*
X101048800Y-124474000D01*
D27*
X99040800Y-124982000D02*
X100540800Y-124982000D01*
X100540800Y-124982000D02*
X101048800Y-124474000D01*
D28*
X100120000Y-129061200D02*
X101048800Y-128132400D01*
D27*
X101048800Y-124474000D02*
X101048800Y-123906000D01*
X101048800Y-123906000D02*
X101150400Y-123804400D01*
X101150400Y-123804400D02*
X101150400Y-122054400D01*
D28*
X99220000Y-129061200D02*
X100120000Y-129061200D01*
D27*
X81150400Y-123804400D02*
X81150400Y-122054400D01*
X81048800Y-123906000D02*
X81150400Y-123804400D01*
X81048800Y-124474000D02*
X81048800Y-123906000D01*
X79040800Y-124982000D02*
X80540800Y-124982000D01*
D28*
X81048800Y-128132400D02*
X81048800Y-124474000D01*
X80120000Y-129061200D02*
X81048800Y-128132400D01*
X79220000Y-129061200D02*
X80120000Y-129061200D01*
D27*
X80540800Y-124982000D02*
X81048800Y-124474000D01*
X86382800Y-120816400D02*
X82388400Y-120816400D01*
X82388400Y-120816400D02*
X81150400Y-122054400D01*
X86382800Y-117870000D02*
X85468400Y-116955600D01*
X86382800Y-120816400D02*
X86382800Y-117870000D01*
X142388400Y-95816400D02*
X141150400Y-97054400D01*
X146382800Y-95816400D02*
X142388400Y-95816400D01*
D28*
X160120000Y-104061200D02*
X161048800Y-103132400D01*
X159220000Y-104061200D02*
X160120000Y-104061200D01*
D27*
X159040800Y-99982000D02*
X160540800Y-99982000D01*
D28*
X161048800Y-103132400D02*
X161048800Y-99474000D01*
D27*
X160540800Y-99982000D02*
X161048800Y-99474000D01*
X146382800Y-92870000D02*
X145468400Y-91955600D01*
X146382800Y-95816400D02*
X146382800Y-92870000D01*
X162388400Y-95816400D02*
X161150400Y-97054400D01*
X166382800Y-95816400D02*
X166382800Y-92870000D01*
X166382800Y-95816400D02*
X162388400Y-95816400D01*
X166382800Y-92870000D02*
X165468400Y-91955600D01*
X161048800Y-99474000D02*
X161048800Y-98906000D01*
X161048800Y-98906000D02*
X161150400Y-98804400D01*
X161150400Y-98804400D02*
X161150400Y-97054400D01*
X122388400Y-95816400D02*
X121150400Y-97054400D01*
X126382800Y-95816400D02*
X122388400Y-95816400D01*
X121150400Y-98804400D02*
X121150400Y-97054400D01*
X121048800Y-98906000D02*
X121150400Y-98804400D01*
D28*
X119220000Y-104061200D02*
X120120000Y-104061200D01*
X120120000Y-104061200D02*
X121048800Y-103132400D01*
X121048800Y-103132400D02*
X121048800Y-99474000D01*
D27*
X119040800Y-99982000D02*
X120540800Y-99982000D01*
X120540800Y-99982000D02*
X121048800Y-99474000D01*
X121048800Y-99474000D02*
X121048800Y-98906000D01*
D28*
X141048800Y-103132400D02*
X141048800Y-99474000D01*
D27*
X141048800Y-99474000D02*
X141048800Y-98906000D01*
X141048800Y-98906000D02*
X141150400Y-98804400D01*
X140540800Y-99982000D02*
X141048800Y-99474000D01*
X126382800Y-92870000D02*
X125468400Y-91955600D01*
X141150400Y-98804400D02*
X141150400Y-97054400D01*
X126382800Y-95816400D02*
X126382800Y-92870000D01*
D28*
X139220000Y-104061200D02*
X140120000Y-104061200D01*
X140120000Y-104061200D02*
X141048800Y-103132400D01*
D27*
X139040800Y-99982000D02*
X140540800Y-99982000D01*
X106382800Y-92870000D02*
X105468400Y-91955600D01*
X106382800Y-95816400D02*
X102388400Y-95816400D01*
X106382800Y-95816400D02*
X106382800Y-92870000D01*
X102388400Y-95816400D02*
X101150400Y-97054400D01*
D28*
X101048800Y-103132400D02*
X101048800Y-99474000D01*
D27*
X99040800Y-99982000D02*
X100540800Y-99982000D01*
X100540800Y-99982000D02*
X101048800Y-99474000D01*
D28*
X100120000Y-104061200D02*
X101048800Y-103132400D01*
D27*
X101048800Y-99474000D02*
X101048800Y-98906000D01*
X101048800Y-98906000D02*
X101150400Y-98804400D01*
X101150400Y-98804400D02*
X101150400Y-97054400D01*
D28*
X99220000Y-104061200D02*
X100120000Y-104061200D01*
D27*
X81150400Y-98804400D02*
X81150400Y-97054400D01*
X81048800Y-98906000D02*
X81150400Y-98804400D01*
X81048800Y-99474000D02*
X81048800Y-98906000D01*
X79040800Y-99982000D02*
X80540800Y-99982000D01*
D28*
X81048800Y-103132400D02*
X81048800Y-99474000D01*
X80120000Y-104061200D02*
X81048800Y-103132400D01*
X79220000Y-104061200D02*
X80120000Y-104061200D01*
D27*
X80540800Y-99982000D02*
X81048800Y-99474000D01*
X86382800Y-95816400D02*
X82388400Y-95816400D01*
X82388400Y-95816400D02*
X81150400Y-97054400D01*
X86382800Y-92870000D02*
X85468400Y-91955600D01*
X86382800Y-95816400D02*
X86382800Y-92870000D01*
X142388400Y-70816400D02*
X141150400Y-72054400D01*
X146382800Y-70816400D02*
X142388400Y-70816400D01*
D28*
X160120000Y-79061200D02*
X161048800Y-78132400D01*
X159220000Y-79061200D02*
X160120000Y-79061200D01*
D27*
X159040800Y-74982000D02*
X160540800Y-74982000D01*
D28*
X161048800Y-78132400D02*
X161048800Y-74474000D01*
D27*
X160540800Y-74982000D02*
X161048800Y-74474000D01*
X146382800Y-67870000D02*
X145468400Y-66955600D01*
X146382800Y-70816400D02*
X146382800Y-67870000D01*
X162388400Y-70816400D02*
X161150400Y-72054400D01*
X166382800Y-70816400D02*
X166382800Y-67870000D01*
X166382800Y-70816400D02*
X162388400Y-70816400D01*
X166382800Y-67870000D02*
X165468400Y-66955600D01*
X161048800Y-74474000D02*
X161048800Y-73906000D01*
X161048800Y-73906000D02*
X161150400Y-73804400D01*
X161150400Y-73804400D02*
X161150400Y-72054400D01*
X122388400Y-70816400D02*
X121150400Y-72054400D01*
X126382800Y-70816400D02*
X122388400Y-70816400D01*
X121150400Y-73804400D02*
X121150400Y-72054400D01*
X121048800Y-73906000D02*
X121150400Y-73804400D01*
D28*
X119220000Y-79061200D02*
X120120000Y-79061200D01*
X120120000Y-79061200D02*
X121048800Y-78132400D01*
X121048800Y-78132400D02*
X121048800Y-74474000D01*
D27*
X119040800Y-74982000D02*
X120540800Y-74982000D01*
X120540800Y-74982000D02*
X121048800Y-74474000D01*
X121048800Y-74474000D02*
X121048800Y-73906000D01*
D28*
X141048800Y-78132400D02*
X141048800Y-74474000D01*
D27*
X141048800Y-74474000D02*
X141048800Y-73906000D01*
X141048800Y-73906000D02*
X141150400Y-73804400D01*
X140540800Y-74982000D02*
X141048800Y-74474000D01*
X126382800Y-67870000D02*
X125468400Y-66955600D01*
X141150400Y-73804400D02*
X141150400Y-72054400D01*
X126382800Y-70816400D02*
X126382800Y-67870000D01*
D28*
X139220000Y-79061200D02*
X140120000Y-79061200D01*
X140120000Y-79061200D02*
X141048800Y-78132400D01*
D27*
X139040800Y-74982000D02*
X140540800Y-74982000D01*
X106382800Y-67870000D02*
X105468400Y-66955600D01*
X106382800Y-70816400D02*
X102388400Y-70816400D01*
X106382800Y-70816400D02*
X106382800Y-67870000D01*
X102388400Y-70816400D02*
X101150400Y-72054400D01*
D28*
X101048800Y-78132400D02*
X101048800Y-74474000D01*
D27*
X99040800Y-74982000D02*
X100540800Y-74982000D01*
X100540800Y-74982000D02*
X101048800Y-74474000D01*
D28*
X100120000Y-79061200D02*
X101048800Y-78132400D01*
D27*
X101048800Y-74474000D02*
X101048800Y-73906000D01*
X101048800Y-73906000D02*
X101150400Y-73804400D01*
X101150400Y-73804400D02*
X101150400Y-72054400D01*
D28*
X99220000Y-79061200D02*
X100120000Y-79061200D01*
D27*
X81150400Y-73804400D02*
X81150400Y-72054400D01*
X81048800Y-73906000D02*
X81150400Y-73804400D01*
X81048800Y-74474000D02*
X81048800Y-73906000D01*
X79040800Y-74982000D02*
X80540800Y-74982000D01*
D28*
X81048800Y-78132400D02*
X81048800Y-74474000D01*
X80120000Y-79061200D02*
X81048800Y-78132400D01*
X79220000Y-79061200D02*
X80120000Y-79061200D01*
D27*
X80540800Y-74982000D02*
X81048800Y-74474000D01*
X86382800Y-70816400D02*
X82388400Y-70816400D01*
X82388400Y-70816400D02*
X81150400Y-72054400D01*
X86382800Y-67870000D02*
X85468400Y-66955600D01*
X86382800Y-70816400D02*
X86382800Y-67870000D01*
X166382800Y-42870000D02*
X165468400Y-41955600D01*
X161150400Y-48804400D02*
X161150400Y-47054400D01*
X162388400Y-45816400D02*
X161150400Y-47054400D01*
X166382800Y-45816400D02*
X166382800Y-42870000D01*
X166382800Y-45816400D02*
X162388400Y-45816400D01*
X161048800Y-48906000D02*
X161150400Y-48804400D01*
D28*
X159220000Y-54061200D02*
X160120000Y-54061200D01*
D27*
X161048800Y-49474000D02*
X161048800Y-48906000D01*
X160540800Y-49982000D02*
X161048800Y-49474000D01*
X159040800Y-49982000D02*
X160540800Y-49982000D01*
D28*
X161048800Y-53132400D02*
X161048800Y-49474000D01*
X160120000Y-54061200D02*
X161048800Y-53132400D01*
D27*
X146382800Y-42870000D02*
X145468400Y-41955600D01*
X141150400Y-48804400D02*
X141150400Y-47054400D01*
X142388400Y-45816400D02*
X141150400Y-47054400D01*
X146382800Y-45816400D02*
X146382800Y-42870000D01*
X146382800Y-45816400D02*
X142388400Y-45816400D01*
X141048800Y-48906000D02*
X141150400Y-48804400D01*
D28*
X139220000Y-54061200D02*
X140120000Y-54061200D01*
D27*
X141048800Y-49474000D02*
X141048800Y-48906000D01*
X140540800Y-49982000D02*
X141048800Y-49474000D01*
X139040800Y-49982000D02*
X140540800Y-49982000D01*
D28*
X141048800Y-53132400D02*
X141048800Y-49474000D01*
X140120000Y-54061200D02*
X141048800Y-53132400D01*
D27*
X126382800Y-42870000D02*
X125468400Y-41955600D01*
X121150400Y-48804400D02*
X121150400Y-47054400D01*
X122388400Y-45816400D02*
X121150400Y-47054400D01*
X126382800Y-45816400D02*
X126382800Y-42870000D01*
X126382800Y-45816400D02*
X122388400Y-45816400D01*
X121048800Y-48906000D02*
X121150400Y-48804400D01*
D28*
X119220000Y-54061200D02*
X120120000Y-54061200D01*
D27*
X121048800Y-49474000D02*
X121048800Y-48906000D01*
X120540800Y-49982000D02*
X121048800Y-49474000D01*
X119040800Y-49982000D02*
X120540800Y-49982000D01*
D28*
X121048800Y-53132400D02*
X121048800Y-49474000D01*
X120120000Y-54061200D02*
X121048800Y-53132400D01*
D27*
X106382800Y-42870000D02*
X105468400Y-41955600D01*
X101150400Y-48804400D02*
X101150400Y-47054400D01*
X102388400Y-45816400D02*
X101150400Y-47054400D01*
X106382800Y-45816400D02*
X106382800Y-42870000D01*
X106382800Y-45816400D02*
X102388400Y-45816400D01*
X101048800Y-48906000D02*
X101150400Y-48804400D01*
D28*
X99220000Y-54061200D02*
X100120000Y-54061200D01*
D27*
X101048800Y-49474000D02*
X101048800Y-48906000D01*
X100540800Y-49982000D02*
X101048800Y-49474000D01*
X99040800Y-49982000D02*
X100540800Y-49982000D01*
D28*
X101048800Y-53132400D02*
X101048800Y-49474000D01*
X100120000Y-54061200D02*
X101048800Y-53132400D01*
X79220000Y-54061200D02*
X80120000Y-54061200D01*
X80120000Y-54061200D02*
X81048800Y-53132400D01*
X81048800Y-53132400D02*
X81048800Y-49474000D01*
D27*
X79040800Y-49982000D02*
X80540800Y-49982000D01*
X80540800Y-49982000D02*
X81048800Y-49474000D01*
X81048800Y-49474000D02*
X81048800Y-48906000D01*
X81150400Y-48804400D02*
X81150400Y-47054400D01*
X81048800Y-48906000D02*
X81150400Y-48804400D01*
X86382800Y-45816400D02*
X82388400Y-45816400D01*
X82388400Y-45816400D02*
X81150400Y-47054400D01*
X86382800Y-45816400D02*
X86382800Y-42870000D01*
X86382800Y-42870000D02*
X85468400Y-41955600D01*
D28*
X155307600Y-133126800D02*
X157043200Y-131391200D01*
X155157600Y-133226800D02*
X155257600Y-133126800D01*
X159220000Y-130961200D02*
X157205800Y-130961200D01*
X157043200Y-131391200D02*
X157043200Y-131348600D01*
X157043200Y-131348600D02*
X157043200Y-130798600D01*
X157205800Y-130961200D02*
X157043200Y-130798600D01*
X155257600Y-133126800D02*
X155307600Y-133126800D01*
X153378000Y-133226800D02*
X155157600Y-133226800D01*
X115157600Y-133226800D02*
X115257600Y-133126800D01*
X115257600Y-133126800D02*
X115307600Y-133126800D01*
X113378000Y-133226800D02*
X115157600Y-133226800D01*
X117043200Y-131391200D02*
X117043200Y-131348600D01*
X117043200Y-131348600D02*
X117043200Y-130798600D01*
X117205800Y-130961200D02*
X117043200Y-130798600D01*
X115307600Y-133126800D02*
X117043200Y-131391200D01*
X135157600Y-133226800D02*
X135257600Y-133126800D01*
X135257600Y-133126800D02*
X135307600Y-133126800D01*
X135307600Y-133126800D02*
X137043200Y-131391200D01*
X133378000Y-133226800D02*
X135157600Y-133226800D01*
X137043200Y-131348600D02*
X137043200Y-130798600D01*
X137043200Y-131391200D02*
X137043200Y-131348600D01*
X137205800Y-130961200D02*
X137043200Y-130798600D01*
X139220000Y-130961200D02*
X137205800Y-130961200D01*
X119220000Y-130961200D02*
X117205800Y-130961200D01*
X77043200Y-131348600D02*
X77043200Y-130798600D01*
X77043200Y-131391200D02*
X77043200Y-131348600D01*
X77205800Y-130961200D02*
X77043200Y-130798600D01*
X75307600Y-133126800D02*
X77043200Y-131391200D01*
X75257600Y-133126800D02*
X75307600Y-133126800D01*
X75157600Y-133226800D02*
X75257600Y-133126800D01*
X73378000Y-133226800D02*
X75157600Y-133226800D01*
X99220000Y-130961200D02*
X97205800Y-130961200D01*
X97043200Y-131391200D02*
X97043200Y-131348600D01*
X97205800Y-130961200D02*
X97043200Y-130798600D01*
X97043200Y-131348600D02*
X97043200Y-130798600D01*
X95157600Y-133226800D02*
X95257600Y-133126800D01*
X95257600Y-133126800D02*
X95307600Y-133126800D01*
X95307600Y-133126800D02*
X97043200Y-131391200D01*
X79220000Y-130961200D02*
X77205800Y-130961200D01*
X93378000Y-133226800D02*
X95157600Y-133226800D01*
X155307600Y-108126800D02*
X157043200Y-106391200D01*
X155157600Y-108226800D02*
X155257600Y-108126800D01*
X159220000Y-105961200D02*
X157205800Y-105961200D01*
X157043200Y-106391200D02*
X157043200Y-106348600D01*
X157043200Y-106348600D02*
X157043200Y-105798600D01*
X157205800Y-105961200D02*
X157043200Y-105798600D01*
X155257600Y-108126800D02*
X155307600Y-108126800D01*
X153378000Y-108226800D02*
X155157600Y-108226800D01*
X115157600Y-108226800D02*
X115257600Y-108126800D01*
X115257600Y-108126800D02*
X115307600Y-108126800D01*
X113378000Y-108226800D02*
X115157600Y-108226800D01*
X117043200Y-106391200D02*
X117043200Y-106348600D01*
X117043200Y-106348600D02*
X117043200Y-105798600D01*
X117205800Y-105961200D02*
X117043200Y-105798600D01*
X115307600Y-108126800D02*
X117043200Y-106391200D01*
X135157600Y-108226800D02*
X135257600Y-108126800D01*
X135257600Y-108126800D02*
X135307600Y-108126800D01*
X135307600Y-108126800D02*
X137043200Y-106391200D01*
X133378000Y-108226800D02*
X135157600Y-108226800D01*
X137043200Y-106348600D02*
X137043200Y-105798600D01*
X137043200Y-106391200D02*
X137043200Y-106348600D01*
X137205800Y-105961200D02*
X137043200Y-105798600D01*
X139220000Y-105961200D02*
X137205800Y-105961200D01*
X119220000Y-105961200D02*
X117205800Y-105961200D01*
X77043200Y-106348600D02*
X77043200Y-105798600D01*
X77043200Y-106391200D02*
X77043200Y-106348600D01*
X77205800Y-105961200D02*
X77043200Y-105798600D01*
X75307600Y-108126800D02*
X77043200Y-106391200D01*
X75257600Y-108126800D02*
X75307600Y-108126800D01*
X75157600Y-108226800D02*
X75257600Y-108126800D01*
X73378000Y-108226800D02*
X75157600Y-108226800D01*
X99220000Y-105961200D02*
X97205800Y-105961200D01*
X97043200Y-106391200D02*
X97043200Y-106348600D01*
X97205800Y-105961200D02*
X97043200Y-105798600D01*
X97043200Y-106348600D02*
X97043200Y-105798600D01*
X95157600Y-108226800D02*
X95257600Y-108126800D01*
X95257600Y-108126800D02*
X95307600Y-108126800D01*
X95307600Y-108126800D02*
X97043200Y-106391200D01*
X79220000Y-105961200D02*
X77205800Y-105961200D01*
X93378000Y-108226800D02*
X95157600Y-108226800D01*
X155307600Y-83126800D02*
X157043200Y-81391200D01*
X155157600Y-83226800D02*
X155257600Y-83126800D01*
X159220000Y-80961200D02*
X157205800Y-80961200D01*
X157043200Y-81391200D02*
X157043200Y-81348600D01*
X157043200Y-81348600D02*
X157043200Y-80798600D01*
X157205800Y-80961200D02*
X157043200Y-80798600D01*
X155257600Y-83126800D02*
X155307600Y-83126800D01*
X153378000Y-83226800D02*
X155157600Y-83226800D01*
X115157600Y-83226800D02*
X115257600Y-83126800D01*
X115257600Y-83126800D02*
X115307600Y-83126800D01*
X113378000Y-83226800D02*
X115157600Y-83226800D01*
X117043200Y-81391200D02*
X117043200Y-81348600D01*
X117043200Y-81348600D02*
X117043200Y-80798600D01*
X117205800Y-80961200D02*
X117043200Y-80798600D01*
X115307600Y-83126800D02*
X117043200Y-81391200D01*
X135157600Y-83226800D02*
X135257600Y-83126800D01*
X135257600Y-83126800D02*
X135307600Y-83126800D01*
X135307600Y-83126800D02*
X137043200Y-81391200D01*
X133378000Y-83226800D02*
X135157600Y-83226800D01*
X137043200Y-81348600D02*
X137043200Y-80798600D01*
X137043200Y-81391200D02*
X137043200Y-81348600D01*
X137205800Y-80961200D02*
X137043200Y-80798600D01*
X139220000Y-80961200D02*
X137205800Y-80961200D01*
X119220000Y-80961200D02*
X117205800Y-80961200D01*
X77043200Y-81348600D02*
X77043200Y-80798600D01*
X77043200Y-81391200D02*
X77043200Y-81348600D01*
X77205800Y-80961200D02*
X77043200Y-80798600D01*
X75307600Y-83126800D02*
X77043200Y-81391200D01*
X75257600Y-83126800D02*
X75307600Y-83126800D01*
X75157600Y-83226800D02*
X75257600Y-83126800D01*
X73378000Y-83226800D02*
X75157600Y-83226800D01*
X99220000Y-80961200D02*
X97205800Y-80961200D01*
X97043200Y-81391200D02*
X97043200Y-81348600D01*
X97205800Y-80961200D02*
X97043200Y-80798600D01*
X97043200Y-81348600D02*
X97043200Y-80798600D01*
X95157600Y-83226800D02*
X95257600Y-83126800D01*
X95257600Y-83126800D02*
X95307600Y-83126800D01*
X95307600Y-83126800D02*
X97043200Y-81391200D01*
X79220000Y-80961200D02*
X77205800Y-80961200D01*
X93378000Y-83226800D02*
X95157600Y-83226800D01*
X159220000Y-55961200D02*
X157205800Y-55961200D01*
X155307600Y-58126800D02*
X157043200Y-56391200D01*
X155257600Y-58126800D02*
X155307600Y-58126800D01*
X155157600Y-58226800D02*
X155257600Y-58126800D01*
X157205800Y-55961200D02*
X157043200Y-55798600D01*
X157043200Y-56348600D02*
X157043200Y-55798600D01*
X157043200Y-56391200D02*
X157043200Y-56348600D01*
X153378000Y-58226800D02*
X155157600Y-58226800D01*
X139220000Y-55961200D02*
X137205800Y-55961200D01*
X135307600Y-58126800D02*
X137043200Y-56391200D01*
X135257600Y-58126800D02*
X135307600Y-58126800D01*
X135157600Y-58226800D02*
X135257600Y-58126800D01*
X137205800Y-55961200D02*
X137043200Y-55798600D01*
X137043200Y-56348600D02*
X137043200Y-55798600D01*
X137043200Y-56391200D02*
X137043200Y-56348600D01*
X133378000Y-58226800D02*
X135157600Y-58226800D01*
X119220000Y-55961200D02*
X117205800Y-55961200D01*
X115307600Y-58126800D02*
X117043200Y-56391200D01*
X115257600Y-58126800D02*
X115307600Y-58126800D01*
X115157600Y-58226800D02*
X115257600Y-58126800D01*
X117205800Y-55961200D02*
X117043200Y-55798600D01*
X117043200Y-56348600D02*
X117043200Y-55798600D01*
X117043200Y-56391200D02*
X117043200Y-56348600D01*
X113378000Y-58226800D02*
X115157600Y-58226800D01*
X99220000Y-55961200D02*
X97205800Y-55961200D01*
X95307600Y-58126800D02*
X97043200Y-56391200D01*
X95257600Y-58126800D02*
X95307600Y-58126800D01*
X95157600Y-58226800D02*
X95257600Y-58126800D01*
X97205800Y-55961200D02*
X97043200Y-55798600D01*
X97043200Y-56348600D02*
X97043200Y-55798600D01*
X97043200Y-56391200D02*
X97043200Y-56348600D01*
X93378000Y-58226800D02*
X95157600Y-58226800D01*
X73378000Y-58226800D02*
X75157600Y-58226800D01*
X75157600Y-58226800D02*
X75257600Y-58126800D01*
X75257600Y-58126800D02*
X75307600Y-58126800D01*
X75307600Y-58126800D02*
X77043200Y-56391200D01*
X77043200Y-56391200D02*
X77043200Y-56348600D01*
X77043200Y-56348600D02*
X77043200Y-55798600D01*
X79220000Y-55961200D02*
X77205800Y-55961200D01*
X77205800Y-55961200D02*
X77043200Y-55798600D01*
X154444800Y-138088400D02*
X157295200Y-138088400D01*
X157295200Y-138088400D02*
X157543600Y-138336800D01*
X157543600Y-138336800D02*
X157543600Y-138936800D01*
X114444800Y-138088400D02*
X117295200Y-138088400D01*
X134444800Y-138088400D02*
X137295200Y-138088400D01*
X137295200Y-138088400D02*
X137543600Y-138336800D01*
X137543600Y-138336800D02*
X137543600Y-138936800D01*
X117543600Y-138336800D02*
X117543600Y-138936800D01*
X117295200Y-138088400D02*
X117543600Y-138336800D01*
X77543600Y-138336800D02*
X77543600Y-138936800D01*
X77295200Y-138088400D02*
X77543600Y-138336800D01*
X74444800Y-138088400D02*
X77295200Y-138088400D01*
X94444800Y-138088400D02*
X97295200Y-138088400D01*
X97295200Y-138088400D02*
X97543600Y-138336800D01*
X97543600Y-138336800D02*
X97543600Y-138936800D01*
X154444800Y-113088400D02*
X157295200Y-113088400D01*
X157295200Y-113088400D02*
X157543600Y-113336800D01*
X157543600Y-113336800D02*
X157543600Y-113936800D01*
X114444800Y-113088400D02*
X117295200Y-113088400D01*
X134444800Y-113088400D02*
X137295200Y-113088400D01*
X137295200Y-113088400D02*
X137543600Y-113336800D01*
X137543600Y-113336800D02*
X137543600Y-113936800D01*
X117543600Y-113336800D02*
X117543600Y-113936800D01*
X117295200Y-113088400D02*
X117543600Y-113336800D01*
X77543600Y-113336800D02*
X77543600Y-113936800D01*
X77295200Y-113088400D02*
X77543600Y-113336800D01*
X74444800Y-113088400D02*
X77295200Y-113088400D01*
X94444800Y-113088400D02*
X97295200Y-113088400D01*
X97295200Y-113088400D02*
X97543600Y-113336800D01*
X97543600Y-113336800D02*
X97543600Y-113936800D01*
X154444800Y-88088400D02*
X157295200Y-88088400D01*
X157295200Y-88088400D02*
X157543600Y-88336800D01*
X157543600Y-88336800D02*
X157543600Y-88936800D01*
X114444800Y-88088400D02*
X117295200Y-88088400D01*
X134444800Y-88088400D02*
X137295200Y-88088400D01*
X137295200Y-88088400D02*
X137543600Y-88336800D01*
X137543600Y-88336800D02*
X137543600Y-88936800D01*
X117543600Y-88336800D02*
X117543600Y-88936800D01*
X117295200Y-88088400D02*
X117543600Y-88336800D01*
X77543600Y-88336800D02*
X77543600Y-88936800D01*
X77295200Y-88088400D02*
X77543600Y-88336800D01*
X74444800Y-88088400D02*
X77295200Y-88088400D01*
X94444800Y-88088400D02*
X97295200Y-88088400D01*
X97295200Y-88088400D02*
X97543600Y-88336800D01*
X97543600Y-88336800D02*
X97543600Y-88936800D01*
X157543600Y-63336800D02*
X157543600Y-63936800D01*
X157295200Y-63088400D02*
X157543600Y-63336800D01*
X154444800Y-63088400D02*
X157295200Y-63088400D01*
X137543600Y-63336800D02*
X137543600Y-63936800D01*
X137295200Y-63088400D02*
X137543600Y-63336800D01*
X134444800Y-63088400D02*
X137295200Y-63088400D01*
X117543600Y-63336800D02*
X117543600Y-63936800D01*
X117295200Y-63088400D02*
X117543600Y-63336800D01*
X114444800Y-63088400D02*
X117295200Y-63088400D01*
X97543600Y-63336800D02*
X97543600Y-63936800D01*
X97295200Y-63088400D02*
X97543600Y-63336800D01*
X94444800Y-63088400D02*
X97295200Y-63088400D01*
X74444800Y-63088400D02*
X77295200Y-63088400D01*
X77295200Y-63088400D02*
X77543600Y-63336800D01*
X77543600Y-63336800D02*
X77543600Y-63936800D01*
X157543600Y-137036800D02*
X157843600Y-137036800D01*
X159692000Y-138885200D02*
X159794000Y-138885200D01*
X157843600Y-137036800D02*
X159692000Y-138885200D01*
X137543600Y-137036800D02*
X137843600Y-137036800D01*
X137843600Y-137036800D02*
X139692000Y-138885200D01*
X139692000Y-138885200D02*
X139794000Y-138885200D01*
X119692000Y-138885200D02*
X119794000Y-138885200D01*
X117843600Y-137036800D02*
X119692000Y-138885200D01*
X117543600Y-137036800D02*
X117843600Y-137036800D01*
X79692000Y-138885200D02*
X79794000Y-138885200D01*
X77543600Y-137036800D02*
X77843600Y-137036800D01*
X77843600Y-137036800D02*
X79692000Y-138885200D01*
X97543600Y-137036800D02*
X97843600Y-137036800D01*
X99692000Y-138885200D02*
X99794000Y-138885200D01*
X97843600Y-137036800D02*
X99692000Y-138885200D01*
X157543600Y-112036800D02*
X157843600Y-112036800D01*
X159692000Y-113885200D02*
X159794000Y-113885200D01*
X157843600Y-112036800D02*
X159692000Y-113885200D01*
X137543600Y-112036800D02*
X137843600Y-112036800D01*
X137843600Y-112036800D02*
X139692000Y-113885200D01*
X139692000Y-113885200D02*
X139794000Y-113885200D01*
X119692000Y-113885200D02*
X119794000Y-113885200D01*
X117843600Y-112036800D02*
X119692000Y-113885200D01*
X117543600Y-112036800D02*
X117843600Y-112036800D01*
X79692000Y-113885200D02*
X79794000Y-113885200D01*
X77543600Y-112036800D02*
X77843600Y-112036800D01*
X77843600Y-112036800D02*
X79692000Y-113885200D01*
X97543600Y-112036800D02*
X97843600Y-112036800D01*
X99692000Y-113885200D02*
X99794000Y-113885200D01*
X97843600Y-112036800D02*
X99692000Y-113885200D01*
X157543600Y-87036800D02*
X157843600Y-87036800D01*
X159692000Y-88885200D02*
X159794000Y-88885200D01*
X157843600Y-87036800D02*
X159692000Y-88885200D01*
X137543600Y-87036800D02*
X137843600Y-87036800D01*
X137843600Y-87036800D02*
X139692000Y-88885200D01*
X139692000Y-88885200D02*
X139794000Y-88885200D01*
X119692000Y-88885200D02*
X119794000Y-88885200D01*
X117843600Y-87036800D02*
X119692000Y-88885200D01*
X117543600Y-87036800D02*
X117843600Y-87036800D01*
X79692000Y-88885200D02*
X79794000Y-88885200D01*
X77543600Y-87036800D02*
X77843600Y-87036800D01*
X77843600Y-87036800D02*
X79692000Y-88885200D01*
X97543600Y-87036800D02*
X97843600Y-87036800D01*
X99692000Y-88885200D02*
X99794000Y-88885200D01*
X97843600Y-87036800D02*
X99692000Y-88885200D01*
X157843600Y-62036800D02*
X159692000Y-63885200D01*
X159692000Y-63885200D02*
X159794000Y-63885200D01*
X157543600Y-62036800D02*
X157843600Y-62036800D01*
X137843600Y-62036800D02*
X139692000Y-63885200D01*
X139692000Y-63885200D02*
X139794000Y-63885200D01*
X137543600Y-62036800D02*
X137843600Y-62036800D01*
X117843600Y-62036800D02*
X119692000Y-63885200D01*
X119692000Y-63885200D02*
X119794000Y-63885200D01*
X117543600Y-62036800D02*
X117843600Y-62036800D01*
X97843600Y-62036800D02*
X99692000Y-63885200D01*
X99692000Y-63885200D02*
X99794000Y-63885200D01*
X97543600Y-62036800D02*
X97843600Y-62036800D01*
X77543600Y-62036800D02*
X77843600Y-62036800D01*
X77843600Y-62036800D02*
X79692000Y-63885200D01*
X79692000Y-63885200D02*
X79794000Y-63885200D01*
D27*
X151643200Y-126988600D02*
X151643200Y-120856800D01*
X151643200Y-120856800D02*
X152500000Y-120000000D01*
X152500000Y-117750000D02*
X152500000Y-120000000D01*
X161150400Y-118054400D02*
X161150400Y-116304400D01*
X160596000Y-115750000D02*
X154500000Y-115750000D01*
X161150400Y-116304400D02*
X160596000Y-115750000D01*
X154500000Y-115750000D02*
X152500000Y-117750000D01*
X114500000Y-115750000D02*
X112500000Y-117750000D01*
X111643200Y-120856800D02*
X112500000Y-120000000D01*
X111643200Y-126988600D02*
X111643200Y-120856800D01*
X112500000Y-117750000D02*
X112500000Y-120000000D01*
X120596000Y-115750000D02*
X114500000Y-115750000D01*
X121150400Y-116304400D02*
X120596000Y-115750000D01*
X121150400Y-118054400D02*
X121150400Y-116304400D01*
X132500000Y-117750000D02*
X132500000Y-120000000D01*
X131643200Y-120856800D02*
X132500000Y-120000000D01*
X140596000Y-115750000D02*
X134500000Y-115750000D01*
X141150400Y-116304400D02*
X140596000Y-115750000D01*
X141150400Y-118054400D02*
X141150400Y-116304400D01*
X134500000Y-115750000D02*
X132500000Y-117750000D01*
X131643200Y-126988600D02*
X131643200Y-120856800D01*
X101150400Y-116304400D02*
X100596000Y-115750000D01*
X101150400Y-118054400D02*
X101150400Y-116304400D01*
X100596000Y-115750000D02*
X94500000Y-115750000D01*
X72500000Y-117750000D02*
X72500000Y-120000000D01*
X74500000Y-115750000D02*
X72500000Y-117750000D01*
X71643200Y-120856800D02*
X72500000Y-120000000D01*
X81150400Y-118054400D02*
X81150400Y-116304400D01*
X80596000Y-115750000D02*
X74500000Y-115750000D01*
X81150400Y-116304400D02*
X80596000Y-115750000D01*
X71643200Y-126988600D02*
X71643200Y-120856800D01*
X91643200Y-126988600D02*
X91643200Y-120856800D01*
X91643200Y-120856800D02*
X92500000Y-120000000D01*
X94500000Y-115750000D02*
X92500000Y-117750000D01*
X92500000Y-117750000D02*
X92500000Y-120000000D01*
X151643200Y-101988600D02*
X151643200Y-95856800D01*
X151643200Y-95856800D02*
X152500000Y-95000000D01*
X152500000Y-92750000D02*
X152500000Y-95000000D01*
X161150400Y-93054400D02*
X161150400Y-91304400D01*
X160596000Y-90750000D02*
X154500000Y-90750000D01*
X161150400Y-91304400D02*
X160596000Y-90750000D01*
X154500000Y-90750000D02*
X152500000Y-92750000D01*
X114500000Y-90750000D02*
X112500000Y-92750000D01*
X111643200Y-95856800D02*
X112500000Y-95000000D01*
X111643200Y-101988600D02*
X111643200Y-95856800D01*
X112500000Y-92750000D02*
X112500000Y-95000000D01*
X120596000Y-90750000D02*
X114500000Y-90750000D01*
X121150400Y-91304400D02*
X120596000Y-90750000D01*
X121150400Y-93054400D02*
X121150400Y-91304400D01*
X132500000Y-92750000D02*
X132500000Y-95000000D01*
X131643200Y-95856800D02*
X132500000Y-95000000D01*
X140596000Y-90750000D02*
X134500000Y-90750000D01*
X141150400Y-91304400D02*
X140596000Y-90750000D01*
X141150400Y-93054400D02*
X141150400Y-91304400D01*
X134500000Y-90750000D02*
X132500000Y-92750000D01*
X131643200Y-101988600D02*
X131643200Y-95856800D01*
X101150400Y-91304400D02*
X100596000Y-90750000D01*
X101150400Y-93054400D02*
X101150400Y-91304400D01*
X100596000Y-90750000D02*
X94500000Y-90750000D01*
X72500000Y-92750000D02*
X72500000Y-95000000D01*
X74500000Y-90750000D02*
X72500000Y-92750000D01*
X71643200Y-95856800D02*
X72500000Y-95000000D01*
X81150400Y-93054400D02*
X81150400Y-91304400D01*
X80596000Y-90750000D02*
X74500000Y-90750000D01*
X81150400Y-91304400D02*
X80596000Y-90750000D01*
X71643200Y-101988600D02*
X71643200Y-95856800D01*
X91643200Y-101988600D02*
X91643200Y-95856800D01*
X91643200Y-95856800D02*
X92500000Y-95000000D01*
X94500000Y-90750000D02*
X92500000Y-92750000D01*
X92500000Y-92750000D02*
X92500000Y-95000000D01*
X151643200Y-76988600D02*
X151643200Y-70856800D01*
X151643200Y-70856800D02*
X152500000Y-70000000D01*
X152500000Y-67750000D02*
X152500000Y-70000000D01*
X161150400Y-68054400D02*
X161150400Y-66304400D01*
X160596000Y-65750000D02*
X154500000Y-65750000D01*
X161150400Y-66304400D02*
X160596000Y-65750000D01*
X154500000Y-65750000D02*
X152500000Y-67750000D01*
X114500000Y-65750000D02*
X112500000Y-67750000D01*
X111643200Y-70856800D02*
X112500000Y-70000000D01*
X111643200Y-76988600D02*
X111643200Y-70856800D01*
X112500000Y-67750000D02*
X112500000Y-70000000D01*
X120596000Y-65750000D02*
X114500000Y-65750000D01*
X121150400Y-66304400D02*
X120596000Y-65750000D01*
X121150400Y-68054400D02*
X121150400Y-66304400D01*
X132500000Y-67750000D02*
X132500000Y-70000000D01*
X131643200Y-70856800D02*
X132500000Y-70000000D01*
X140596000Y-65750000D02*
X134500000Y-65750000D01*
X141150400Y-66304400D02*
X140596000Y-65750000D01*
X141150400Y-68054400D02*
X141150400Y-66304400D01*
X134500000Y-65750000D02*
X132500000Y-67750000D01*
X131643200Y-76988600D02*
X131643200Y-70856800D01*
X101150400Y-66304400D02*
X100596000Y-65750000D01*
X101150400Y-68054400D02*
X101150400Y-66304400D01*
X100596000Y-65750000D02*
X94500000Y-65750000D01*
X72500000Y-67750000D02*
X72500000Y-70000000D01*
X74500000Y-65750000D02*
X72500000Y-67750000D01*
X71643200Y-70856800D02*
X72500000Y-70000000D01*
X81150400Y-68054400D02*
X81150400Y-66304400D01*
X80596000Y-65750000D02*
X74500000Y-65750000D01*
X81150400Y-66304400D02*
X80596000Y-65750000D01*
X71643200Y-76988600D02*
X71643200Y-70856800D01*
X91643200Y-76988600D02*
X91643200Y-70856800D01*
X91643200Y-70856800D02*
X92500000Y-70000000D01*
X94500000Y-65750000D02*
X92500000Y-67750000D01*
X92500000Y-67750000D02*
X92500000Y-70000000D01*
X152500000Y-42750000D02*
X152500000Y-45000000D01*
X160596000Y-40750000D02*
X154500000Y-40750000D01*
X161150400Y-41304400D02*
X160596000Y-40750000D01*
X161150400Y-43054400D02*
X161150400Y-41304400D01*
X154500000Y-40750000D02*
X152500000Y-42750000D01*
X151643200Y-51988600D02*
X151643200Y-45856800D01*
X151643200Y-45856800D02*
X152500000Y-45000000D01*
X132500000Y-42750000D02*
X132500000Y-45000000D01*
X140596000Y-40750000D02*
X134500000Y-40750000D01*
X141150400Y-41304400D02*
X140596000Y-40750000D01*
X141150400Y-43054400D02*
X141150400Y-41304400D01*
X134500000Y-40750000D02*
X132500000Y-42750000D01*
X131643200Y-51988600D02*
X131643200Y-45856800D01*
X131643200Y-45856800D02*
X132500000Y-45000000D01*
X112500000Y-42750000D02*
X112500000Y-45000000D01*
X120596000Y-40750000D02*
X114500000Y-40750000D01*
X121150400Y-41304400D02*
X120596000Y-40750000D01*
X121150400Y-43054400D02*
X121150400Y-41304400D01*
X114500000Y-40750000D02*
X112500000Y-42750000D01*
X111643200Y-51988600D02*
X111643200Y-45856800D01*
X111643200Y-45856800D02*
X112500000Y-45000000D01*
X92500000Y-42750000D02*
X92500000Y-45000000D01*
X100596000Y-40750000D02*
X94500000Y-40750000D01*
X101150400Y-41304400D02*
X100596000Y-40750000D01*
X101150400Y-43054400D02*
X101150400Y-41304400D01*
X94500000Y-40750000D02*
X92500000Y-42750000D01*
X91643200Y-51988600D02*
X91643200Y-45856800D01*
X91643200Y-45856800D02*
X92500000Y-45000000D01*
X81150400Y-43054400D02*
X81150400Y-41304400D01*
X81150400Y-41304400D02*
X80596000Y-40750000D01*
X80596000Y-40750000D02*
X74500000Y-40750000D01*
X74500000Y-40750000D02*
X72500000Y-42750000D01*
X72500000Y-42750000D02*
X72500000Y-45000000D01*
X71643200Y-51988600D02*
X71643200Y-45856800D01*
X71643200Y-45856800D02*
X72500000Y-45000000D01*
X157746800Y-125924000D02*
X157746800Y-124496800D01*
X157746800Y-124496800D02*
X157500000Y-124250000D01*
X154830800Y-126233600D02*
X154830800Y-125083600D01*
X155768200Y-128258600D02*
X154830800Y-127321200D01*
X157043200Y-128258600D02*
X155768200Y-128258600D01*
X154830800Y-127321200D02*
X154830800Y-126233600D01*
D28*
X156568200Y-128258600D02*
X157043200Y-128258600D01*
D27*
X158201800Y-128258600D02*
X157043200Y-128258600D01*
X159141600Y-127318800D02*
X158201800Y-128258600D01*
X159141600Y-127318800D02*
X157746800Y-125924000D01*
X157500000Y-124250000D02*
X157500000Y-120000000D01*
X157500000Y-121456798D02*
X157500000Y-120000000D01*
X118201800Y-128258600D02*
X117043200Y-128258600D01*
D28*
X116568200Y-128258600D02*
X117043200Y-128258600D01*
D27*
X117043200Y-128258600D02*
X115768200Y-128258600D01*
X114830800Y-127321200D02*
X114830800Y-126233600D01*
X114830800Y-126233600D02*
X114830800Y-125083600D01*
X115768200Y-128258600D02*
X114830800Y-127321200D01*
X119141600Y-127318800D02*
X118201800Y-128258600D01*
X119141600Y-127318800D02*
X117746800Y-125924000D01*
X117746800Y-125924000D02*
X117746800Y-124496800D01*
X117746800Y-124496800D02*
X117500000Y-124250000D01*
X117500000Y-121456798D02*
X117500000Y-120000000D01*
X117500000Y-124250000D02*
X117500000Y-120000000D01*
X137746800Y-125924000D02*
X137746800Y-124496800D01*
X137746800Y-124496800D02*
X137500000Y-124250000D01*
X137500000Y-121456798D02*
X137500000Y-120000000D01*
X137500000Y-124250000D02*
X137500000Y-120000000D01*
X134830800Y-126233600D02*
X134830800Y-125083600D01*
X135768200Y-128258600D02*
X134830800Y-127321200D01*
X134830800Y-127321200D02*
X134830800Y-126233600D01*
X137043200Y-128258600D02*
X135768200Y-128258600D01*
D28*
X136568200Y-128258600D02*
X137043200Y-128258600D01*
D27*
X138201800Y-128258600D02*
X137043200Y-128258600D01*
X139141600Y-127318800D02*
X137746800Y-125924000D01*
X139141600Y-127318800D02*
X138201800Y-128258600D01*
X97746800Y-125924000D02*
X97746800Y-124496800D01*
X99141600Y-127318800D02*
X97746800Y-125924000D01*
X98201800Y-128258600D02*
X97043200Y-128258600D01*
X99141600Y-127318800D02*
X98201800Y-128258600D01*
X97500000Y-121456798D02*
X97500000Y-120000000D01*
X97500000Y-124250000D02*
X97500000Y-120000000D01*
X97746800Y-124496800D02*
X97500000Y-124250000D01*
X94830800Y-126233600D02*
X94830800Y-125083600D01*
X94830800Y-127321200D02*
X94830800Y-126233600D01*
X97043200Y-128258600D02*
X95768200Y-128258600D01*
D28*
X96568200Y-128258600D02*
X97043200Y-128258600D01*
D27*
X95768200Y-128258600D02*
X94830800Y-127321200D01*
X77500000Y-124250000D02*
X77500000Y-120000000D01*
X77500000Y-121456798D02*
X77500000Y-120000000D01*
X77746800Y-124496800D02*
X77500000Y-124250000D01*
X77746800Y-125924000D02*
X77746800Y-124496800D01*
D28*
X76568200Y-128258600D02*
X77043200Y-128258600D01*
D27*
X74830800Y-126233600D02*
X74830800Y-125083600D01*
X75768200Y-128258600D02*
X74830800Y-127321200D01*
X74830800Y-127321200D02*
X74830800Y-126233600D01*
X77043200Y-128258600D02*
X75768200Y-128258600D01*
X79141600Y-127318800D02*
X77746800Y-125924000D01*
X79141600Y-127318800D02*
X78201800Y-128258600D01*
X78201800Y-128258600D02*
X77043200Y-128258600D01*
X157746800Y-100924000D02*
X157746800Y-99496800D01*
X157746800Y-99496800D02*
X157500000Y-99250000D01*
X154830800Y-101233600D02*
X154830800Y-100083600D01*
X155768200Y-103258600D02*
X154830800Y-102321200D01*
X157043200Y-103258600D02*
X155768200Y-103258600D01*
X154830800Y-102321200D02*
X154830800Y-101233600D01*
D28*
X156568200Y-103258600D02*
X157043200Y-103258600D01*
D27*
X158201800Y-103258600D02*
X157043200Y-103258600D01*
X159141600Y-102318800D02*
X158201800Y-103258600D01*
X159141600Y-102318800D02*
X157746800Y-100924000D01*
X157500000Y-99250000D02*
X157500000Y-95000000D01*
X157500000Y-96456798D02*
X157500000Y-95000000D01*
X118201800Y-103258600D02*
X117043200Y-103258600D01*
D28*
X116568200Y-103258600D02*
X117043200Y-103258600D01*
D27*
X117043200Y-103258600D02*
X115768200Y-103258600D01*
X114830800Y-102321200D02*
X114830800Y-101233600D01*
X114830800Y-101233600D02*
X114830800Y-100083600D01*
X115768200Y-103258600D02*
X114830800Y-102321200D01*
X119141600Y-102318800D02*
X118201800Y-103258600D01*
X119141600Y-102318800D02*
X117746800Y-100924000D01*
X117746800Y-100924000D02*
X117746800Y-99496800D01*
X117746800Y-99496800D02*
X117500000Y-99250000D01*
X117500000Y-96456798D02*
X117500000Y-95000000D01*
X117500000Y-99250000D02*
X117500000Y-95000000D01*
X137746800Y-100924000D02*
X137746800Y-99496800D01*
X137746800Y-99496800D02*
X137500000Y-99250000D01*
X137500000Y-96456798D02*
X137500000Y-95000000D01*
X137500000Y-99250000D02*
X137500000Y-95000000D01*
X134830800Y-101233600D02*
X134830800Y-100083600D01*
X135768200Y-103258600D02*
X134830800Y-102321200D01*
X134830800Y-102321200D02*
X134830800Y-101233600D01*
X137043200Y-103258600D02*
X135768200Y-103258600D01*
D28*
X136568200Y-103258600D02*
X137043200Y-103258600D01*
D27*
X138201800Y-103258600D02*
X137043200Y-103258600D01*
X139141600Y-102318800D02*
X137746800Y-100924000D01*
X139141600Y-102318800D02*
X138201800Y-103258600D01*
X97746800Y-100924000D02*
X97746800Y-99496800D01*
X99141600Y-102318800D02*
X97746800Y-100924000D01*
X98201800Y-103258600D02*
X97043200Y-103258600D01*
X99141600Y-102318800D02*
X98201800Y-103258600D01*
X97500000Y-96456798D02*
X97500000Y-95000000D01*
X97500000Y-99250000D02*
X97500000Y-95000000D01*
X97746800Y-99496800D02*
X97500000Y-99250000D01*
X94830800Y-101233600D02*
X94830800Y-100083600D01*
X94830800Y-102321200D02*
X94830800Y-101233600D01*
X97043200Y-103258600D02*
X95768200Y-103258600D01*
D28*
X96568200Y-103258600D02*
X97043200Y-103258600D01*
D27*
X95768200Y-103258600D02*
X94830800Y-102321200D01*
X77500000Y-99250000D02*
X77500000Y-95000000D01*
X77500000Y-96456798D02*
X77500000Y-95000000D01*
X77746800Y-99496800D02*
X77500000Y-99250000D01*
X77746800Y-100924000D02*
X77746800Y-99496800D01*
D28*
X76568200Y-103258600D02*
X77043200Y-103258600D01*
D27*
X74830800Y-101233600D02*
X74830800Y-100083600D01*
X75768200Y-103258600D02*
X74830800Y-102321200D01*
X74830800Y-102321200D02*
X74830800Y-101233600D01*
X77043200Y-103258600D02*
X75768200Y-103258600D01*
X79141600Y-102318800D02*
X77746800Y-100924000D01*
X79141600Y-102318800D02*
X78201800Y-103258600D01*
X78201800Y-103258600D02*
X77043200Y-103258600D01*
X157746800Y-75924000D02*
X157746800Y-74496800D01*
X157746800Y-74496800D02*
X157500000Y-74250000D01*
X154830800Y-76233600D02*
X154830800Y-75083600D01*
X155768200Y-78258600D02*
X154830800Y-77321200D01*
X157043200Y-78258600D02*
X155768200Y-78258600D01*
X154830800Y-77321200D02*
X154830800Y-76233600D01*
D28*
X156568200Y-78258600D02*
X157043200Y-78258600D01*
D27*
X158201800Y-78258600D02*
X157043200Y-78258600D01*
X159141600Y-77318800D02*
X158201800Y-78258600D01*
X159141600Y-77318800D02*
X157746800Y-75924000D01*
X157500000Y-74250000D02*
X157500000Y-70000000D01*
X157500000Y-71456798D02*
X157500000Y-70000000D01*
X118201800Y-78258600D02*
X117043200Y-78258600D01*
D28*
X116568200Y-78258600D02*
X117043200Y-78258600D01*
D27*
X117043200Y-78258600D02*
X115768200Y-78258600D01*
X114830800Y-77321200D02*
X114830800Y-76233600D01*
X114830800Y-76233600D02*
X114830800Y-75083600D01*
X115768200Y-78258600D02*
X114830800Y-77321200D01*
X119141600Y-77318800D02*
X118201800Y-78258600D01*
X119141600Y-77318800D02*
X117746800Y-75924000D01*
X117746800Y-75924000D02*
X117746800Y-74496800D01*
X117746800Y-74496800D02*
X117500000Y-74250000D01*
X117500000Y-71456798D02*
X117500000Y-70000000D01*
X117500000Y-74250000D02*
X117500000Y-70000000D01*
X137746800Y-75924000D02*
X137746800Y-74496800D01*
X137746800Y-74496800D02*
X137500000Y-74250000D01*
X137500000Y-71456798D02*
X137500000Y-70000000D01*
X137500000Y-74250000D02*
X137500000Y-70000000D01*
X134830800Y-76233600D02*
X134830800Y-75083600D01*
X135768200Y-78258600D02*
X134830800Y-77321200D01*
X134830800Y-77321200D02*
X134830800Y-76233600D01*
X137043200Y-78258600D02*
X135768200Y-78258600D01*
D28*
X136568200Y-78258600D02*
X137043200Y-78258600D01*
D27*
X138201800Y-78258600D02*
X137043200Y-78258600D01*
X139141600Y-77318800D02*
X137746800Y-75924000D01*
X139141600Y-77318800D02*
X138201800Y-78258600D01*
X97746800Y-75924000D02*
X97746800Y-74496800D01*
X99141600Y-77318800D02*
X97746800Y-75924000D01*
X98201800Y-78258600D02*
X97043200Y-78258600D01*
X99141600Y-77318800D02*
X98201800Y-78258600D01*
X97500000Y-71456798D02*
X97500000Y-70000000D01*
X97500000Y-74250000D02*
X97500000Y-70000000D01*
X97746800Y-74496800D02*
X97500000Y-74250000D01*
X94830800Y-76233600D02*
X94830800Y-75083600D01*
X94830800Y-77321200D02*
X94830800Y-76233600D01*
X97043200Y-78258600D02*
X95768200Y-78258600D01*
D28*
X96568200Y-78258600D02*
X97043200Y-78258600D01*
D27*
X95768200Y-78258600D02*
X94830800Y-77321200D01*
X77500000Y-74250000D02*
X77500000Y-70000000D01*
X77500000Y-71456798D02*
X77500000Y-70000000D01*
X77746800Y-74496800D02*
X77500000Y-74250000D01*
X77746800Y-75924000D02*
X77746800Y-74496800D01*
D28*
X76568200Y-78258600D02*
X77043200Y-78258600D01*
D27*
X74830800Y-76233600D02*
X74830800Y-75083600D01*
X75768200Y-78258600D02*
X74830800Y-77321200D01*
X74830800Y-77321200D02*
X74830800Y-76233600D01*
X77043200Y-78258600D02*
X75768200Y-78258600D01*
X79141600Y-77318800D02*
X77746800Y-75924000D01*
X79141600Y-77318800D02*
X78201800Y-78258600D01*
X78201800Y-78258600D02*
X77043200Y-78258600D01*
X154830800Y-51233600D02*
X154830800Y-50083600D01*
X154830800Y-52321200D02*
X154830800Y-51233600D01*
X155768200Y-53258600D02*
X154830800Y-52321200D01*
X158201800Y-53258600D02*
X157043200Y-53258600D01*
X159141600Y-52318800D02*
X158201800Y-53258600D01*
X157746800Y-49496800D02*
X157500000Y-49250000D01*
X157746800Y-50924000D02*
X157746800Y-49496800D01*
X159141600Y-52318800D02*
X157746800Y-50924000D01*
X157500000Y-46456798D02*
X157500000Y-45000000D01*
X157500000Y-49250000D02*
X157500000Y-45000000D01*
D28*
X156568200Y-53258600D02*
X157043200Y-53258600D01*
D27*
X157043200Y-53258600D02*
X155768200Y-53258600D01*
X134830800Y-51233600D02*
X134830800Y-50083600D01*
X134830800Y-52321200D02*
X134830800Y-51233600D01*
X135768200Y-53258600D02*
X134830800Y-52321200D01*
X138201800Y-53258600D02*
X137043200Y-53258600D01*
X139141600Y-52318800D02*
X138201800Y-53258600D01*
X137746800Y-49496800D02*
X137500000Y-49250000D01*
X137746800Y-50924000D02*
X137746800Y-49496800D01*
X139141600Y-52318800D02*
X137746800Y-50924000D01*
X137500000Y-46456798D02*
X137500000Y-45000000D01*
X137500000Y-49250000D02*
X137500000Y-45000000D01*
D28*
X136568200Y-53258600D02*
X137043200Y-53258600D01*
D27*
X137043200Y-53258600D02*
X135768200Y-53258600D01*
X114830800Y-51233600D02*
X114830800Y-50083600D01*
X114830800Y-52321200D02*
X114830800Y-51233600D01*
X115768200Y-53258600D02*
X114830800Y-52321200D01*
X118201800Y-53258600D02*
X117043200Y-53258600D01*
X119141600Y-52318800D02*
X118201800Y-53258600D01*
X117746800Y-49496800D02*
X117500000Y-49250000D01*
X117746800Y-50924000D02*
X117746800Y-49496800D01*
X119141600Y-52318800D02*
X117746800Y-50924000D01*
X117500000Y-46456798D02*
X117500000Y-45000000D01*
X117500000Y-49250000D02*
X117500000Y-45000000D01*
D28*
X116568200Y-53258600D02*
X117043200Y-53258600D01*
D27*
X117043200Y-53258600D02*
X115768200Y-53258600D01*
X94830800Y-51233600D02*
X94830800Y-50083600D01*
X94830800Y-52321200D02*
X94830800Y-51233600D01*
X95768200Y-53258600D02*
X94830800Y-52321200D01*
X98201800Y-53258600D02*
X97043200Y-53258600D01*
X99141600Y-52318800D02*
X98201800Y-53258600D01*
X97746800Y-49496800D02*
X97500000Y-49250000D01*
X97746800Y-50924000D02*
X97746800Y-49496800D01*
X99141600Y-52318800D02*
X97746800Y-50924000D01*
X97500000Y-46456798D02*
X97500000Y-45000000D01*
X97500000Y-49250000D02*
X97500000Y-45000000D01*
D28*
X96568200Y-53258600D02*
X97043200Y-53258600D01*
D27*
X97043200Y-53258600D02*
X95768200Y-53258600D01*
X77043200Y-53258600D02*
X75768200Y-53258600D01*
X75768200Y-53258600D02*
X74830800Y-52321200D01*
X74830800Y-52321200D02*
X74830800Y-51233600D01*
X74830800Y-51233600D02*
X74830800Y-50083600D01*
X77746800Y-50924000D02*
X77746800Y-49496800D01*
X77746800Y-49496800D02*
X77500000Y-49250000D01*
X77500000Y-49250000D02*
X77500000Y-45000000D01*
X79141600Y-52318800D02*
X77746800Y-50924000D01*
X79141600Y-52318800D02*
X78201800Y-53258600D01*
X78201800Y-53258600D02*
X77043200Y-53258600D01*
X77500000Y-46456798D02*
X77500000Y-45000000D01*
D28*
X76568200Y-53258600D02*
X77043200Y-53258600D01*
X150543199Y-131420799D02*
X150543199Y-130153601D01*
X151168200Y-129528600D02*
X151643200Y-129528600D01*
X150543199Y-131420799D02*
X151396800Y-132274400D01*
X150543199Y-130153601D02*
X151168200Y-129528600D01*
X151396800Y-132274400D02*
X151396800Y-133126000D01*
X111396800Y-132274400D02*
X111396800Y-133126000D01*
X110543199Y-131420799D02*
X111396800Y-132274400D01*
X110543199Y-131420799D02*
X110543199Y-130153601D01*
X111168200Y-129528600D02*
X111643200Y-129528600D01*
X110543199Y-130153601D02*
X111168200Y-129528600D01*
X131168200Y-129528600D02*
X131643200Y-129528600D01*
X130543199Y-131420799D02*
X131396800Y-132274400D01*
X130543199Y-130153601D02*
X131168200Y-129528600D01*
X130543199Y-131420799D02*
X130543199Y-130153601D01*
X131396800Y-132274400D02*
X131396800Y-133126000D01*
X71396800Y-132274400D02*
X71396800Y-133126000D01*
X71168200Y-129528600D02*
X71643200Y-129528600D01*
X70543199Y-131420799D02*
X70543199Y-130153601D01*
X70543199Y-131420799D02*
X71396800Y-132274400D01*
X70543199Y-130153601D02*
X71168200Y-129528600D01*
X91168200Y-129528600D02*
X91643200Y-129528600D01*
X90543199Y-131420799D02*
X90543199Y-130153601D01*
X90543199Y-130153601D02*
X91168200Y-129528600D01*
X90543199Y-131420799D02*
X91396800Y-132274400D01*
X91396800Y-132274400D02*
X91396800Y-133126000D01*
X150543199Y-106420799D02*
X150543199Y-105153601D01*
X151168200Y-104528600D02*
X151643200Y-104528600D01*
X150543199Y-106420799D02*
X151396800Y-107274400D01*
X150543199Y-105153601D02*
X151168200Y-104528600D01*
X151396800Y-107274400D02*
X151396800Y-108126000D01*
X111396800Y-107274400D02*
X111396800Y-108126000D01*
X110543199Y-106420799D02*
X111396800Y-107274400D01*
X110543199Y-106420799D02*
X110543199Y-105153601D01*
X111168200Y-104528600D02*
X111643200Y-104528600D01*
X110543199Y-105153601D02*
X111168200Y-104528600D01*
X131168200Y-104528600D02*
X131643200Y-104528600D01*
X130543199Y-106420799D02*
X131396800Y-107274400D01*
X130543199Y-105153601D02*
X131168200Y-104528600D01*
X130543199Y-106420799D02*
X130543199Y-105153601D01*
X131396800Y-107274400D02*
X131396800Y-108126000D01*
X71396800Y-107274400D02*
X71396800Y-108126000D01*
X71168200Y-104528600D02*
X71643200Y-104528600D01*
X70543199Y-106420799D02*
X70543199Y-105153601D01*
X70543199Y-106420799D02*
X71396800Y-107274400D01*
X70543199Y-105153601D02*
X71168200Y-104528600D01*
X91168200Y-104528600D02*
X91643200Y-104528600D01*
X90543199Y-106420799D02*
X90543199Y-105153601D01*
X90543199Y-105153601D02*
X91168200Y-104528600D01*
X90543199Y-106420799D02*
X91396800Y-107274400D01*
X91396800Y-107274400D02*
X91396800Y-108126000D01*
X150543199Y-81420799D02*
X150543199Y-80153601D01*
X151168200Y-79528600D02*
X151643200Y-79528600D01*
X150543199Y-81420799D02*
X151396800Y-82274400D01*
X150543199Y-80153601D02*
X151168200Y-79528600D01*
X151396800Y-82274400D02*
X151396800Y-83126000D01*
X111396800Y-82274400D02*
X111396800Y-83126000D01*
X110543199Y-81420799D02*
X111396800Y-82274400D01*
X110543199Y-81420799D02*
X110543199Y-80153601D01*
X111168200Y-79528600D02*
X111643200Y-79528600D01*
X110543199Y-80153601D02*
X111168200Y-79528600D01*
X131168200Y-79528600D02*
X131643200Y-79528600D01*
X130543199Y-81420799D02*
X131396800Y-82274400D01*
X130543199Y-80153601D02*
X131168200Y-79528600D01*
X130543199Y-81420799D02*
X130543199Y-80153601D01*
X131396800Y-82274400D02*
X131396800Y-83126000D01*
X71396800Y-82274400D02*
X71396800Y-83126000D01*
X71168200Y-79528600D02*
X71643200Y-79528600D01*
X70543199Y-81420799D02*
X70543199Y-80153601D01*
X70543199Y-81420799D02*
X71396800Y-82274400D01*
X70543199Y-80153601D02*
X71168200Y-79528600D01*
X91168200Y-79528600D02*
X91643200Y-79528600D01*
X90543199Y-81420799D02*
X90543199Y-80153601D01*
X90543199Y-80153601D02*
X91168200Y-79528600D01*
X90543199Y-81420799D02*
X91396800Y-82274400D01*
X91396800Y-82274400D02*
X91396800Y-83126000D01*
X151168200Y-54528600D02*
X151643200Y-54528600D01*
X150543199Y-55153601D02*
X151168200Y-54528600D01*
X150543199Y-56420799D02*
X150543199Y-55153601D01*
X150543199Y-56420799D02*
X151396800Y-57274400D01*
X151396800Y-57274400D02*
X151396800Y-58126000D01*
X131168200Y-54528600D02*
X131643200Y-54528600D01*
X130543199Y-55153601D02*
X131168200Y-54528600D01*
X130543199Y-56420799D02*
X130543199Y-55153601D01*
X130543199Y-56420799D02*
X131396800Y-57274400D01*
X131396800Y-57274400D02*
X131396800Y-58126000D01*
X111168200Y-54528600D02*
X111643200Y-54528600D01*
X110543199Y-55153601D02*
X111168200Y-54528600D01*
X110543199Y-56420799D02*
X110543199Y-55153601D01*
X110543199Y-56420799D02*
X111396800Y-57274400D01*
X111396800Y-57274400D02*
X111396800Y-58126000D01*
X91168200Y-54528600D02*
X91643200Y-54528600D01*
X90543199Y-55153601D02*
X91168200Y-54528600D01*
X90543199Y-56420799D02*
X90543199Y-55153601D01*
X90543199Y-56420799D02*
X91396800Y-57274400D01*
X91396800Y-57274400D02*
X91396800Y-58126000D01*
X70543199Y-56420799D02*
X71396800Y-57274400D01*
X71396800Y-57274400D02*
X71396800Y-58126000D01*
X70543199Y-56420799D02*
X70543199Y-55153601D01*
X70543199Y-55153601D02*
X71168200Y-54528600D01*
X71168200Y-54528600D02*
X71643200Y-54528600D01*
D27*
X156730800Y-125083600D02*
X156730800Y-126676200D01*
X156730800Y-126676200D02*
X157043200Y-126988600D01*
X116730800Y-126676200D02*
X117043200Y-126988600D01*
X116730800Y-125083600D02*
X116730800Y-126676200D01*
X136730800Y-125083600D02*
X136730800Y-126676200D01*
X136730800Y-126676200D02*
X137043200Y-126988600D01*
X96730800Y-125083600D02*
X96730800Y-126676200D01*
X96730800Y-126676200D02*
X97043200Y-126988600D01*
X76730800Y-126676200D02*
X77043200Y-126988600D01*
X76730800Y-125083600D02*
X76730800Y-126676200D01*
X156730800Y-100083600D02*
X156730800Y-101676200D01*
X156730800Y-101676200D02*
X157043200Y-101988600D01*
X116730800Y-101676200D02*
X117043200Y-101988600D01*
X116730800Y-100083600D02*
X116730800Y-101676200D01*
X136730800Y-100083600D02*
X136730800Y-101676200D01*
X136730800Y-101676200D02*
X137043200Y-101988600D01*
X96730800Y-100083600D02*
X96730800Y-101676200D01*
X96730800Y-101676200D02*
X97043200Y-101988600D01*
X76730800Y-101676200D02*
X77043200Y-101988600D01*
X76730800Y-100083600D02*
X76730800Y-101676200D01*
X156730800Y-75083600D02*
X156730800Y-76676200D01*
X156730800Y-76676200D02*
X157043200Y-76988600D01*
X116730800Y-76676200D02*
X117043200Y-76988600D01*
X116730800Y-75083600D02*
X116730800Y-76676200D01*
X136730800Y-75083600D02*
X136730800Y-76676200D01*
X136730800Y-76676200D02*
X137043200Y-76988600D01*
X96730800Y-75083600D02*
X96730800Y-76676200D01*
X96730800Y-76676200D02*
X97043200Y-76988600D01*
X76730800Y-76676200D02*
X77043200Y-76988600D01*
X76730800Y-75083600D02*
X76730800Y-76676200D01*
X156730800Y-50083600D02*
X156730800Y-51676200D01*
X156730800Y-51676200D02*
X157043200Y-51988600D01*
X136730800Y-50083600D02*
X136730800Y-51676200D01*
X136730800Y-51676200D02*
X137043200Y-51988600D01*
X116730800Y-50083600D02*
X116730800Y-51676200D01*
X116730800Y-51676200D02*
X117043200Y-51988600D01*
X96730800Y-50083600D02*
X96730800Y-51676200D01*
X96730800Y-51676200D02*
X97043200Y-51988600D01*
X76730800Y-50083600D02*
X76730800Y-51676200D01*
X76730800Y-51676200D02*
X77043200Y-51988600D01*
D28*
X157137200Y-135726800D02*
X157772199Y-136361799D01*
X156087200Y-135226800D02*
X155257600Y-135226800D01*
X157137200Y-135126800D02*
X156187200Y-135126800D01*
X156187200Y-135126800D02*
X156087200Y-135226800D01*
X157137200Y-135126800D02*
X157137200Y-135726800D01*
X160094000Y-136885200D02*
X160744000Y-136885200D01*
X159570599Y-136361799D02*
X160094000Y-136885200D01*
X157772199Y-136361799D02*
X159570599Y-136361799D01*
X116087200Y-135226800D02*
X115257600Y-135226800D01*
X117137200Y-135126800D02*
X116187200Y-135126800D01*
X116187200Y-135126800D02*
X116087200Y-135226800D01*
X137137200Y-135126800D02*
X136187200Y-135126800D01*
X137137200Y-135126800D02*
X137137200Y-135726800D01*
X136187200Y-135126800D02*
X136087200Y-135226800D01*
X136087200Y-135226800D02*
X135257600Y-135226800D01*
X137137200Y-135726800D02*
X137772199Y-136361799D01*
X137772199Y-136361799D02*
X139570599Y-136361799D01*
X139570599Y-136361799D02*
X140094000Y-136885200D01*
X140094000Y-136885200D02*
X140744000Y-136885200D01*
X119570599Y-136361799D02*
X120094000Y-136885200D01*
X120094000Y-136885200D02*
X120744000Y-136885200D01*
X117137200Y-135726800D02*
X117772199Y-136361799D01*
X117137200Y-135126800D02*
X117137200Y-135726800D01*
X117772199Y-136361799D02*
X119570599Y-136361799D01*
X77772199Y-136361799D02*
X79570599Y-136361799D01*
X79570599Y-136361799D02*
X80094000Y-136885200D01*
X80094000Y-136885200D02*
X80744000Y-136885200D01*
X77137200Y-135126800D02*
X77137200Y-135726800D01*
X76187200Y-135126800D02*
X76087200Y-135226800D01*
X76087200Y-135226800D02*
X75257600Y-135226800D01*
X77137200Y-135726800D02*
X77772199Y-136361799D01*
X77137200Y-135126800D02*
X76187200Y-135126800D01*
X96087200Y-135226800D02*
X95257600Y-135226800D01*
X96187200Y-135126800D02*
X96087200Y-135226800D01*
X97137200Y-135126800D02*
X96187200Y-135126800D01*
X97137200Y-135126800D02*
X97137200Y-135726800D01*
X97772199Y-136361799D02*
X99570599Y-136361799D01*
X97137200Y-135726800D02*
X97772199Y-136361799D01*
X100094000Y-136885200D02*
X100744000Y-136885200D01*
X99570599Y-136361799D02*
X100094000Y-136885200D01*
X157137200Y-110726800D02*
X157772199Y-111361799D01*
X156087200Y-110226800D02*
X155257600Y-110226800D01*
X157137200Y-110126800D02*
X156187200Y-110126800D01*
X156187200Y-110126800D02*
X156087200Y-110226800D01*
X157137200Y-110126800D02*
X157137200Y-110726800D01*
X160094000Y-111885200D02*
X160744000Y-111885200D01*
X159570599Y-111361799D02*
X160094000Y-111885200D01*
X157772199Y-111361799D02*
X159570599Y-111361799D01*
X116087200Y-110226800D02*
X115257600Y-110226800D01*
X117137200Y-110126800D02*
X116187200Y-110126800D01*
X116187200Y-110126800D02*
X116087200Y-110226800D01*
X137137200Y-110126800D02*
X136187200Y-110126800D01*
X137137200Y-110126800D02*
X137137200Y-110726800D01*
X136187200Y-110126800D02*
X136087200Y-110226800D01*
X136087200Y-110226800D02*
X135257600Y-110226800D01*
X137137200Y-110726800D02*
X137772199Y-111361799D01*
X137772199Y-111361799D02*
X139570599Y-111361799D01*
X139570599Y-111361799D02*
X140094000Y-111885200D01*
X140094000Y-111885200D02*
X140744000Y-111885200D01*
X119570599Y-111361799D02*
X120094000Y-111885200D01*
X120094000Y-111885200D02*
X120744000Y-111885200D01*
X117137200Y-110726800D02*
X117772199Y-111361799D01*
X117137200Y-110126800D02*
X117137200Y-110726800D01*
X117772199Y-111361799D02*
X119570599Y-111361799D01*
X77772199Y-111361799D02*
X79570599Y-111361799D01*
X79570599Y-111361799D02*
X80094000Y-111885200D01*
X80094000Y-111885200D02*
X80744000Y-111885200D01*
X77137200Y-110126800D02*
X77137200Y-110726800D01*
X76187200Y-110126800D02*
X76087200Y-110226800D01*
X76087200Y-110226800D02*
X75257600Y-110226800D01*
X77137200Y-110726800D02*
X77772199Y-111361799D01*
X77137200Y-110126800D02*
X76187200Y-110126800D01*
X96087200Y-110226800D02*
X95257600Y-110226800D01*
X96187200Y-110126800D02*
X96087200Y-110226800D01*
X97137200Y-110126800D02*
X96187200Y-110126800D01*
X97137200Y-110126800D02*
X97137200Y-110726800D01*
X97772199Y-111361799D02*
X99570599Y-111361799D01*
X97137200Y-110726800D02*
X97772199Y-111361799D01*
X100094000Y-111885200D02*
X100744000Y-111885200D01*
X99570599Y-111361799D02*
X100094000Y-111885200D01*
X157137200Y-85726800D02*
X157772199Y-86361799D01*
X156087200Y-85226800D02*
X155257600Y-85226800D01*
X157137200Y-85126800D02*
X156187200Y-85126800D01*
X156187200Y-85126800D02*
X156087200Y-85226800D01*
X157137200Y-85126800D02*
X157137200Y-85726800D01*
X160094000Y-86885200D02*
X160744000Y-86885200D01*
X159570599Y-86361799D02*
X160094000Y-86885200D01*
X157772199Y-86361799D02*
X159570599Y-86361799D01*
X116087200Y-85226800D02*
X115257600Y-85226800D01*
X117137200Y-85126800D02*
X116187200Y-85126800D01*
X116187200Y-85126800D02*
X116087200Y-85226800D01*
X137137200Y-85126800D02*
X136187200Y-85126800D01*
X137137200Y-85126800D02*
X137137200Y-85726800D01*
X136187200Y-85126800D02*
X136087200Y-85226800D01*
X136087200Y-85226800D02*
X135257600Y-85226800D01*
X137137200Y-85726800D02*
X137772199Y-86361799D01*
X137772199Y-86361799D02*
X139570599Y-86361799D01*
X139570599Y-86361799D02*
X140094000Y-86885200D01*
X140094000Y-86885200D02*
X140744000Y-86885200D01*
X119570599Y-86361799D02*
X120094000Y-86885200D01*
X120094000Y-86885200D02*
X120744000Y-86885200D01*
X117137200Y-85726800D02*
X117772199Y-86361799D01*
X117137200Y-85126800D02*
X117137200Y-85726800D01*
X117772199Y-86361799D02*
X119570599Y-86361799D01*
X77772199Y-86361799D02*
X79570599Y-86361799D01*
X79570599Y-86361799D02*
X80094000Y-86885200D01*
X80094000Y-86885200D02*
X80744000Y-86885200D01*
X77137200Y-85126800D02*
X77137200Y-85726800D01*
X76187200Y-85126800D02*
X76087200Y-85226800D01*
X76087200Y-85226800D02*
X75257600Y-85226800D01*
X77137200Y-85726800D02*
X77772199Y-86361799D01*
X77137200Y-85126800D02*
X76187200Y-85126800D01*
X96087200Y-85226800D02*
X95257600Y-85226800D01*
X96187200Y-85126800D02*
X96087200Y-85226800D01*
X97137200Y-85126800D02*
X96187200Y-85126800D01*
X97137200Y-85126800D02*
X97137200Y-85726800D01*
X97772199Y-86361799D02*
X99570599Y-86361799D01*
X97137200Y-85726800D02*
X97772199Y-86361799D01*
X100094000Y-86885200D02*
X100744000Y-86885200D01*
X99570599Y-86361799D02*
X100094000Y-86885200D01*
X157772199Y-61361799D02*
X159570599Y-61361799D01*
X160094000Y-61885200D02*
X160744000Y-61885200D01*
X159570599Y-61361799D02*
X160094000Y-61885200D01*
X157137200Y-60726800D02*
X157772199Y-61361799D01*
X157137200Y-60126800D02*
X157137200Y-60726800D01*
X157137200Y-60126800D02*
X156187200Y-60126800D01*
X156087200Y-60226800D02*
X155257600Y-60226800D01*
X156187200Y-60126800D02*
X156087200Y-60226800D01*
X137772199Y-61361799D02*
X139570599Y-61361799D01*
X140094000Y-61885200D02*
X140744000Y-61885200D01*
X139570599Y-61361799D02*
X140094000Y-61885200D01*
X137137200Y-60726800D02*
X137772199Y-61361799D01*
X137137200Y-60126800D02*
X137137200Y-60726800D01*
X137137200Y-60126800D02*
X136187200Y-60126800D01*
X136087200Y-60226800D02*
X135257600Y-60226800D01*
X136187200Y-60126800D02*
X136087200Y-60226800D01*
X117772199Y-61361799D02*
X119570599Y-61361799D01*
X120094000Y-61885200D02*
X120744000Y-61885200D01*
X119570599Y-61361799D02*
X120094000Y-61885200D01*
X117137200Y-60726800D02*
X117772199Y-61361799D01*
X117137200Y-60126800D02*
X117137200Y-60726800D01*
X117137200Y-60126800D02*
X116187200Y-60126800D01*
X116087200Y-60226800D02*
X115257600Y-60226800D01*
X116187200Y-60126800D02*
X116087200Y-60226800D01*
X97772199Y-61361799D02*
X99570599Y-61361799D01*
X100094000Y-61885200D02*
X100744000Y-61885200D01*
X99570599Y-61361799D02*
X100094000Y-61885200D01*
X97137200Y-60726800D02*
X97772199Y-61361799D01*
X97137200Y-60126800D02*
X97137200Y-60726800D01*
X97137200Y-60126800D02*
X96187200Y-60126800D01*
X96087200Y-60226800D02*
X95257600Y-60226800D01*
X96187200Y-60126800D02*
X96087200Y-60226800D01*
X76187200Y-60126800D02*
X76087200Y-60226800D01*
X76087200Y-60226800D02*
X75257600Y-60226800D01*
X77137200Y-60126800D02*
X76187200Y-60126800D01*
X77137200Y-60126800D02*
X77137200Y-60726800D01*
X77137200Y-60726800D02*
X77772199Y-61361799D01*
X77772199Y-61361799D02*
X79570599Y-61361799D01*
X79570599Y-61361799D02*
X80094000Y-61885200D01*
X80094000Y-61885200D02*
X80744000Y-61885200D01*
M02*
